<svg xmlns="http://www.w3.org/2000/svg" viewBox="0 -0.5 26 26" shape-rendering="crispEdges"><path stroke="#000" d="M6 2h2M6 3h2M4 4h2m2 0h2M4 5h2m2 0h2M2 6h2m2 0h2M2 7h2m2 0h2M2 8h2m2 0h2M2 9h2m2 0h2m-8 1h2m4 0h2m-8 1h2m4 0h2m-8 1h2m4 0h2m-8 1h2m4 0h2m-8 1h2m6 0h2m8 0h2M0 15h2m6 0h2m8 0h2M2 16h2m6 0h8m2 0h2M2 17h2m6 0h8m2 0h2M2 18h2m14 0h2M2 19h2m14 0h2M4 20h4m6 0h4M4 21h4m6 0h4M8 22h6m-6 1h6"/><path stroke="#f2fffd" d="M6 4h2M6 5h2M4 6h2M4 7h2M4 8h2M4 9h2m-4 1h4m-4 1h4m-4 1h2m-2 1h2"/><path stroke="#daf1f2" d="M4 12h2m-2 1h2m-4 1h6m-6 1h6m-4 1h4m-4 1h4m-4 1h2m-2 1h2"/><path stroke="#c6eaef" d="M8 16h2m8 0h2M8 17h2m8 0h2M6 18h8m-8 1h8m-6 1h2m-2 1h2"/><path stroke="#99d1d8" d="M14 18h4m-4 1h4m-8 1h4m-4 1h4"/></svg>