<svg xmlns="http://www.w3.org/2000/svg" viewBox="0 -0.5 12 12" shape-rendering="crispEdges"><path stroke="#000" d="M3 2h5M2 3h1m5 0h1M1 4h1m7 0h1M1 5h1m2 0h2m1 0h3M1 6h1m2 0h1m1 0h1m1 0h2M1 7h1m3 0h1m1 0h1m1 0h1M1 8h1m3 0h1m1 0h1m1 0h1M2 9h1m2 0h3m1 0h1m-7 1h3m1 0h2"/><path stroke="#9b9a8e" d="M3 3h1M2 4h1"/><path stroke="#939284" d="M4 3h1M2 5h1"/><path stroke="#898879" d="M5 3h1M3 4h1M2 6h1"/><path stroke="gray" d="M6 3h2M4 4h5M3 5h1m2 0h1M3 6h1M2 7h3M2 8h2"/><path stroke="#2b2b2b" d="M5 6h1m1 0h1M6 7h1M6 8h1"/><path stroke="#75777f" d="M8 7h1M4 8h1M3 9h1"/><path stroke="#6a6b73" d="M8 8h1"/><path stroke="#606168" d="M4 9h1m3 0h1"/></svg>