<svg xmlns="http://www.w3.org/2000/svg" viewBox="0 -0.5 12 12" shape-rendering="crispEdges"><path stroke="#000" d="M2 1h8M1 2h1m4 0h1m3 0h1M0 3h1m6 0h1m3 0h1M0 4h1m6 0h1m3 0h1M0 5h1m6 0h1m3 0h1M0 6h1m6 0h1m3 0h1M0 7h1m6 0h1m2 0h1M0 8h1m6 0h3M1 9h1m4 0h1m-5 1h4"/><path stroke="#f7c42a" d="M2 2h4m1 0h3M1 3h6m1 0h3M2 4h4m2 0h2M3 5h1M3 7h1M3 9h1"/><path stroke="#f7971b" d="M1 4h1m4 0h1m3 0h1M2 5h1m1 0h2m2 0h2M1 6h1m4 0h1m3 0h1M2 7h1m1 0h2m2 0h2M1 8h1m4 0h1M2 9h1m1 0h2"/><path stroke="#ce5906" d="M1 5h1m4 0h1m3 0h1M2 6h4m2 0h2M1 7h1m4 0h1M2 8h4"/></svg>