<svg xmlns="http://www.w3.org/2000/svg" viewBox="0 -0.5 12 12" shape-rendering="crispEdges"><path stroke="#000" d="M7 0h3M3 1h4m3 0h1M1 2h2m6 0h2M1 3h1m1 0h2m5 0h1M1 4h1m1 0h1m3 0h2m1 0h1M1 5h1m3 0h1m2 0h1m1 0h1M1 6h1m3 0h2m3 0h1M1 7h1m8 0h1M1 8h1m8 0h1M1 9h1m8 0h1M1 10h1m1 0h1m3 0h4m-9 1h5"/><path stroke="gray" d="M7 1h3M3 2h4M2 3h1"/><path stroke="#16060c" d="M7 2h2M5 3h2M3 5h1M3 6h1M3 7h1M3 8h1M3 9h1"/><path stroke="#cc5a18" d="M7 3h2M4 4h2M4 5h1M4 6h1M4 7h1M4 8h1"/><path stroke="#a02500" d="M9 3h1M6 4h1M6 5h2M5 7h2M5 8h2m-3 2h2"/><path stroke="#666" d="M2 4h1M2 5h1M2 6h1M2 7h1M2 8h1M2 9h1m-1 1h1"/><path stroke="#871b26" d="M9 4h1M9 5h1M7 6h2M7 7h2M7 9h1m-2 1h1"/><path stroke="#6d1d30" d="M9 6h1M9 7h1M8 9h2"/><path stroke="#ccc100" d="M7 8h3"/><path stroke="#fff200" d="M4 9h3"/></svg>