<svg xmlns="http://www.w3.org/2000/svg" viewBox="0 -0.5 12 12" shape-rendering="crispEdges"><path stroke="#006b11" d="M5 0h2M4 1h1m2 0h1M4 2h1m2 0h1"/><path stroke="#006601" d="M5 1h2M5 2h2M4 3h4M4 4h2m1 1h1"/><path stroke="#004c0d" d="M3 3h1m4 0h1M3 4h1m4 0h1M2 5h1m6 0h1M2 6h2m5 0h1"/><path stroke="#00560e" d="M6 4h2M3 5h4m1 0h1M4 6h2M5 7h1m1 0h1M6 8h1M6 9h1"/><path stroke="#004c29" d="M6 6h3M3 7h2m1 0h1m1 0h1M2 8h1m2 0h1m3 0h1M2 9h2m4 0h2m-6 1h5"/><path stroke="#003f0a" d="M3 8h2m2 0h2M4 9h2m1 0h1"/><path stroke="#4c2200" d="M5 11h2"/></svg>