<svg xmlns="http://www.w3.org/2000/svg" viewBox="0 -0.5 12 12" shape-rendering="crispEdges"><path stroke="#000" d="M1 0h10M0 1h1m10 0h1M0 2h1m10 0h1M0 3h1m10 0h1M0 4h1m10 0h1M0 5h1m10 0h1M0 6h1m10 0h1M0 7h1m10 0h1M0 8h1m10 0h1M0 9h1m10 0h1M0 10h1m10 0h1M1 11h10"/><path stroke="#7f3300" d="M1 1h9M2 2h7M3 3h5M4 4h3M5 5h1"/><path stroke="#491b10" d="M10 1h1M9 2h2M8 3h3M7 4h4M6 5h5M7 6h4M8 7h3M9 8h2m-1 1h1"/><path stroke="#9b5200" d="M1 2h1M1 3h2M1 4h3M1 5h4M1 6h5M1 7h4M1 8h3M1 9h2m-2 1h1"/><path stroke="#662800" d="M6 6h1M5 7h3M4 8h5M3 9h7m-8 1h9"/></svg>