<svg xmlns="http://www.w3.org/2000/svg" viewBox="0 -0.5 12 12" shape-rendering="crispEdges"><path stroke="#92982f" d="M2 0h1m0 1h1m2 0h1M3 2h1m2 0h1M1 3h1m3 0h1m4 0h1M0 4h5m2 0h1m1 0h1M2 5h1m2 0h5M3 6h1M3 7h1"/><path stroke="#aaa525" d="M3 0h4M1 1h2m1 0h2m1 0h2M1 2h2m1 0h2m1 0h4M0 3h1m1 0h3m1 0h4M5 4h1m2 0h1M5 6h1"/><path stroke="#767925" d="M11 3h1M6 4h1m3 0h2M1 5h1m2 0h1m5 0h2M2 6h1m1 0h1m1 0h2m1 0h2M5 7h1m1 0h1m1 0h2"/><path stroke="#7c4d2e" d="M3 5h1m4 1h1M8 7h1M7 8h1M5 9h2m-1 1h1"/><path stroke="#89682f" d="M4 7h1m1 0h1M4 8h3"/><path stroke="#6a3829" d="M5 10h1m-1 1h2"/></svg>