<svg xmlns="http://www.w3.org/2000/svg" viewBox="0 -0.5 12 12" shape-rendering="crispEdges"><path stroke="#449e38" d="M4 0h5M3 1h3m1 0h4M1 2h2m1 0h2m1 0h3M1 3h2m1 0h1m1 0h1m1 0h1M0 4h1m1 0h2m1 0h1M5 6h1"/><path stroke="#408e3d" d="M2 1h1m3 0h1M3 2h1m2 0h1m3 0h1M3 3h1m1 0h1m1 0h1m1 0h1M1 4h1m2 0h1m2 0h3M0 5h4m1 0h2M2 6h1m0 1h1"/><path stroke="#347231" d="M11 2h1m-2 1h2M6 4h1m3 0h2M4 5h1m2 0h1m1 0h2M1 6h1m2 0h1m1 0h2m1 0h2M2 7h1m2 0h1"/><path stroke="#7f3b2c" d="M8 5h1M3 6h1m4 0h1M8 7h1M7 8h2M5 9h2m-1 1h2m0 1h1"/><path stroke="#8c542c" d="M4 7h1m1 0h1M5 8h2"/><path stroke="#6d2928" d="M5 10h1m-2 1h4"/></svg>