<svg xmlns="http://www.w3.org/2000/svg" viewBox="0 -0.5 26 26" shape-rendering="crispEdges"><path stroke="#000" d="M6 2h2M6 3h2M4 4h2m2 0h4m4 0h2M4 5h2m2 0h4m4 0h2M6 6h4m2 0h4m2 0h2M6 7h4m2 0h4m2 0h2M8 8h2m4 0h4M8 9h2m4 0h4M6 10h2m6 0h2M6 11h2m6 0h2M4 12h2m10 0h2M4 13h2m10 0h2M2 14h2m12 0h2M2 15h2m12 0h2M2 16h2m12 0h2M2 17h2m12 0h2M2 18h2m10 0h2M2 19h2m10 0h2M4 20h2m6 0h2M4 21h2m6 0h2m-8 1h6m-6 1h6"/><path stroke="#af0800" d="M6 4h2M6 5h2m2 1h2m4 0h2m-8 1h2m4 0h2m-8 1h4m-4 1h4m-6 1h2m-2 1h2m-4 1h2m6 0h2M6 13h2m6 0h2M4 14h2m8 0h2M4 15h2m8 0h2M4 16h2m8 0h2M4 17h2m8 0h2M4 18h2m6 0h2M4 19h2m6 0h2m-8 1h2m2 0h2m-6 1h2m2 0h2"/><path stroke="#f21c00" d="M10 10h4m-4 1h4m-6 1h2m2 0h2m-6 1h2m2 0h2m-8 1h2m4 0h2m-8 1h2m4 0h2m-2 1h2m-2 1h2"/><path stroke="#ff8300" d="M10 12h2m-2 1h2m-2 1h2m-2 1h2m-6 3h2m-2 1h2m0 1h2m-2 1h2"/><path stroke="#ff4c00" d="M8 14h2m-2 1h2m-4 1h2m-2 1h2m2 1h2m-2 1h2"/><path stroke="#ffae00" d="M8 16h4m-4 1h4m-4 1h2m-2 1h2"/></svg>