<svg xmlns="http://www.w3.org/2000/svg" viewBox="0 -0.5 26 26" shape-rendering="crispEdges"><path stroke="#000" d="M6 4h6M6 5h6M4 6h2m6 0h4M4 7h2m6 0h4M4 8h2m10 0h2M4 9h2m10 0h2M4 10h2m10 0h2M4 11h2m10 0h2M6 12h2m10 0h2M6 13h2m10 0h2M4 14h2m12 0h2M4 15h2m12 0h2M2 16h2m6 0h2m6 0h2M2 17h2m6 0h2m6 0h2M2 18h2m4 0h2m2 0h6M2 19h2m4 0h2m2 0h6M2 20h6m-6 1h6"/><path stroke="#e2e2e2" d="M6 6h4M6 7h4M6 8h2M6 9h2"/><path stroke="#bcbcbc" d="M10 6h2m-2 1h2M8 8h6M8 9h6m-8 1h6m-6 1h6m-4 1h2m-2 1h2"/><path stroke="#5b1b00" d="M14 8h2m-2 1h2m-8 5h2m-2 1h2m-4 1h2m-2 1h2m-4 1h2m-2 1h2"/><path stroke="#8da0a0" d="M12 10h4m-4 1h4m-6 1h8m-8 1h8m-8 1h6m-6 1h6m-4 1h2m-2 1h2"/><path stroke="#9b5000" d="M6 14h2m-2 1h2m-4 1h2m-2 1h2"/><path stroke="#567c7c" d="M16 14h2m-2 1h2m-4 1h4m-4 1h4"/><path stroke="#2d0e0a" d="M8 16h2m-2 1h2m-4 1h2m-2 1h2"/></svg>