<svg xmlns="http://www.w3.org/2000/svg" viewBox="0 -0.5 10 8" shape-rendering="crispEdges"><path stroke="#000" d="M0 1h2m2 0h2m2 0h2M0 2h1m1 0h2m2 0h2m1 0h1M0 3h1m1 0h1m4 0h1m1 0h1M0 4h1m8 0h1M0 5h1m8 0h1M0 6h1m8 0h1M0 7h10"/><path stroke="#e5cd47" d="M1 2h1m2 0h2m2 0h1M1 5h1m6 0h1"/><path stroke="#bca73c" d="M1 3h1m6 0h1M1 6h3m2 0h3"/><path stroke="#e8a127" d="M3 3h4M1 4h1m1 0h1m2 0h1m1 0h1M2 5h6M4 6h2"/><path stroke="#ce0000" d="M2 4h1"/><path stroke="#ff7200" d="M4 4h1"/><path stroke="#d64000" d="M5 4h1"/><path stroke="#ff3200" d="M7 4h1"/></svg>