<svg xmlns="http://www.w3.org/2000/svg" viewBox="0 -0.5 7 12" shape-rendering="crispEdges"><path stroke="#1e2025" d="M3 0h1M2 1h1M2 2h1M1 3h1M1 4h1M0 5h1M0 6h1m0 1h1M1 8h1m0 1h1m-1 1h1m0 1h1"/><path stroke="#000" d="M4 0h3M3 1h1m2 0h1M3 2h1m2 0h1M2 3h1m3 0h1M2 4h1m3 0h1M1 5h1m4 0h1M1 6h1m4 0h1M2 7h1m3 0h1M2 8h1m3 0h1M3 9h1m2 0h1m-4 1h1m2 0h1m-3 1h3"/><path stroke="#657d8c" d="M4 1h1M4 2h1M3 3h1M3 4h1M2 5h1M2 6h1m0 1h1M3 8h1m0 1h1m-1 1h1"/><path stroke="#03031d" d="M5 1h1M5 2h1M5 3h1M5 4h1M5 5h1M5 6h1M5 7h1M5 8h1M5 9h1m-1 1h1"/><path stroke="#24304e" d="M4 3h1M4 4h1M3 5h2M3 6h2M4 7h1M4 8h1"/></svg>