<svg xmlns="http://www.w3.org/2000/svg" viewBox="0 -0.5 7 12" shape-rendering="crispEdges"><path stroke="#000" d="M0 0h3M0 1h1m2 0h1M0 2h1m2 0h1M0 3h1m3 0h1M0 4h1m3 0h1M0 5h1m4 0h1M0 6h1m4 0h1M0 7h1m3 0h1M0 8h1m3 0h1M0 9h1m2 0h1m-4 1h1m2 0h1m-4 1h3"/><path stroke="#5a5849" d="M3 0h1m0 1h1M4 2h1m0 1h1M5 4h1m0 1h1M6 6h1M5 7h1M5 8h1M4 9h1m-1 1h1m-2 1h1"/><path stroke="#5c9e25" d="M1 1h1M1 2h1M1 3h1M1 4h1M1 5h1M1 6h1M1 7h1M1 8h1M1 9h1"/><path stroke="#005622" d="M2 1h1M2 2h1m0 1h1M3 4h1m0 1h1M4 6h1M3 7h1M3 8h1M2 9h1m-1 1h1"/><path stroke="#208720" d="M2 3h1M2 4h1M2 5h2M2 6h2M2 7h1M2 8h1m-2 2h1"/></svg>