<svg xmlns="http://www.w3.org/2000/svg" viewBox="0 -0.5 12 12" shape-rendering="crispEdges"><path stroke="#000" d="M5 1h2M4 2h1m2 0h1M3 3h1m4 0h1M2 4h1m6 0h1M1 5h1m8 0h1M1 6h1m8 0h1M1 7h1m8 0h1M1 8h1m8 0h1M1 9h1m8 0h1M1 10h1m8 0h1M1 11h4m2 0h4"/><path stroke="#938b75" d="M5 2h1M4 3h2M3 4h3M2 5h4"/><path stroke="#6b6d7a" d="M6 2h1M6 3h2M6 4h3M6 5h4"/><path stroke="#fff6e0" d="M2 6h4M2 7h1m1 0h1M2 8h4M2 9h1m1 0h1m-3 1h3"/><path stroke="#d7d9e5" d="M6 6h4M7 7h1m1 0h1M6 8h4M7 9h1m1 0h1m-3 1h3"/><path stroke="#413822" d="M3 7h1m1 0h1M3 9h1"/><path stroke="#191b27" d="M6 7h1m1 0h1M8 9h1"/><path stroke="#1e1e1e" d="M5 9h2m-2 1h2m-2 1h2"/></svg>