<svg xmlns="http://www.w3.org/2000/svg" viewBox="0 -0.5 12 12" shape-rendering="crispEdges"><path stroke="#000" d="M5 1h2M4 2h1m2 0h1M3 3h1m4 0h1M2 4h1m6 0h1M1 5h1m8 0h1M0 6h1m10 0h1M1 7h1m8 0h1M1 8h1m8 0h1M1 9h1m8 0h1M1 10h1m8 0h1M1 11h4m2 0h4"/><path stroke="#ff4f00" d="M5 2h1M4 3h2M3 4h3M2 5h4M1 6h5"/><path stroke="#ff0019" d="M6 2h1M6 3h2M6 4h3M6 5h4M6 6h5"/><path stroke="#c9c0aa" d="M2 7h4"/><path stroke="#a1a3af" d="M6 7h4"/><path stroke="#fff6e0" d="M2 8h4M2 9h3m-3 1h3"/><path stroke="#d7d9e5" d="M6 8h4M7 9h3m-3 1h3"/><path stroke="#191919" d="M5 9h2m-2 1h2m-2 1h2"/></svg>