<svg xmlns="http://www.w3.org/2000/svg" viewBox="0 -0.5 12 12" shape-rendering="crispEdges"><path stroke="#af0800" d="M4 1h1M4 2h2M4 3h1m1 0h1M3 4h1m3 0h1M2 5h1m5 0h1M1 6h1m7 0h1M1 7h1m7 0h1M1 8h1m7 0h1M1 9h1m2 0h2m2 0h1m-7 1h2m2 0h2"/><path stroke="#f21c00" d="M5 3h1M4 4h1m1 0h1M3 5h1m3 0h1M2 6h1m5 0h1M2 7h1m5 0h1M2 8h1m5 0h1M2 9h2m2 0h2"/><path stroke="#ff4c00" d="M5 4h1M4 5h1m1 0h1M3 6h1m3 0h1M3 7h1m3 0h1M3 8h3m1 0h1"/><path stroke="#ff8300" d="M5 5h1M4 6h3M4 7h1m1 0h1M6 8h1"/><path stroke="#ffae00" d="M5 7h1"/></svg>