<svg xmlns="http://www.w3.org/2000/svg" viewBox="0 -0.5 12 12" shape-rendering="crispEdges"><path stroke="#000" d="M5 1h2M4 2h1m2 0h1M3 3h1m4 0h1M2 4h1m6 0h1M1 5h1m8 0h1M0 6h1m10 0h1M1 7h1m8 0h1M1 8h1m8 0h1M1 9h1m8 0h1M1 10h1m8 0h1M1 11h3m4 0h3"/><path stroke="#cfcfcf" d="M5 2h1M4 3h1M4 4h1m0 1h1"/><path stroke="#a3a3a3" d="M6 2h1m0 1h1M7 4h1M6 5h1"/><path stroke="#fff" d="M5 3h1M5 4h1"/><path stroke="#e7e7e7" d="M6 3h1M6 4h1"/><path stroke="#5d553f" d="M3 4h1M2 5h3M1 6h5"/><path stroke="#353844" d="M8 4h1M7 5h3M6 6h5"/><path stroke="#905009" d="M2 7h4M2 8h3M2 9h2m-2 1h2"/><path stroke="#68320e" d="M6 7h4M7 8h3M8 9h2m-2 1h2"/><path stroke="#191919" d="M5 8h2M4 9h4m-4 1h4m-4 1h4"/></svg>