<svg xmlns="http://www.w3.org/2000/svg" viewBox="0 -0.5 12 12" shape-rendering="crispEdges"><path stroke="#000" d="M1 0h10M0 1h1m10 0h1M0 2h1m10 0h1M0 3h1m10 0h1M0 4h1m10 0h1M0 5h1m10 0h1M0 6h1m10 0h1M0 7h1m10 0h1M0 8h1m10 0h1M0 9h1m10 0h1M0 10h1m10 0h1M1 11h10"/><path stroke="#82794f" d="M1 1h5m1 0h4M1 2h1M1 3h1M1 4h1m1 0h1M1 6h1M1 7h1M1 8h1m5 0h1M1 9h1m-1 1h1"/><path stroke="#404040" d="M6 1h1M2 2h8M2 3h8M2 4h1m1 0h4m1 0h1M1 5h9M2 6h8M2 7h1m1 0h6M2 8h5m1 0h3M2 9h8m-5 1h1"/><path stroke="#212133" d="M10 2h1m-1 1h1M8 4h1m1 0h1m-1 1h1m-1 1h1M3 7h1m6 0h1m-1 2h1m-9 1h3m1 0h5"/></svg>