<svg xmlns="http://www.w3.org/2000/svg" viewBox="0 -0.5 120 110" shape-rendering="crispEdges">
<metadata>Made with Pixels to Svg https://codepen.io/shshaw/pen/XbxvNj</metadata>
<path stroke="#000000" d="M41 1h3M40 2h2M43 2h1M39 3h2M43 3h1M39 4h1M43 4h2M38 5h2M44 5h1M38 6h1M44 6h1M37 7h2M44 7h1M36 8h2M44 8h1M35 9h2M44 9h1M34 10h2M44 10h1M33 11h2M44 11h1M33 12h1M44 12h2M33 13h2M45 13h1M34 14h1M45 14h1M34 15h2M45 15h1M34 16h3M44 16h2M34 17h1M36 17h1M39 17h2M42 17h3M34 18h2M40 18h3M34 19h2M41 19h1M34 20h1M39 20h3M34 21h2M40 21h1M34 22h1M38 22h1M40 22h1M34 23h1M38 23h1M40 23h3M34 24h1M37 24h2M42 24h1M33 25h2M37 25h1M42 25h4M33 26h1M37 26h1M45 26h3M33 27h1M37 27h1M47 27h4M32 28h2M36 28h2M50 28h16M32 29h1M36 29h1M56 29h2M65 29h4M32 30h1M36 30h1M68 30h3M32 31h1M35 31h2M70 31h2M31 32h2M35 32h1M71 32h1M31 33h1M35 33h1M71 33h2M31 34h1M35 34h1M72 34h1M30 35h2M34 35h2M72 35h1M30 36h1M34 36h1M72 36h2M30 37h1M34 37h1M73 37h1M30 38h1M33 38h2M73 38h1M29 39h2M33 39h2M73 39h1M29 40h1M33 40h1M73 40h3M29 41h1M33 41h1M75 41h3M28 42h2M32 42h2M77 42h2M28 43h1M32 43h1M78 43h3M28 44h1M32 44h1M80 44h3M28 45h1M32 45h1M82 45h3M27 46h2M31 46h2M84 46h2M27 47h1M31 47h1M85 47h2M27 48h1M31 48h1M86 48h2M27 49h1M30 49h2M87 49h3M26 50h2M30 50h1M89 50h7M26 51h1M30 51h1M95 51h1M26 52h1M30 52h1M95 52h1M25 53h2M29 53h2M94 53h2M25 54h1M29 54h1M94 54h1M25 55h1M29 55h1M94 55h2M25 56h1M28 56h2M95 56h1M24 57h2M28 57h1M95 57h1M24 58h1M28 58h1M95 58h1M24 59h1M28 59h1M95 59h1M23 60h2M27 60h2M95 60h2M23 61h1M27 61h1M96 61h1M23 62h1M27 62h1M96 62h1M23 63h1M26 63h2M96 63h1M22 64h2M26 64h1M95 64h2M22 65h1M26 65h1M95 65h1M22 66h1M26 66h1M95 66h1M21 67h2M25 67h2M94 67h2M21 68h1M25 68h1M94 68h1M21 69h1M25 69h2M94 69h1M21 70h1M24 70h3M94 70h1M20 71h2M24 71h1M26 71h2M93 71h2M20 72h1M24 72h1M27 72h1M93 72h1M20 73h1M24 73h1M27 73h3M93 73h1M19 74h2M23 74h2M29 74h2M52 74h11M92 74h2M19 75h1M23 75h1M30 75h4M45 75h8M62 75h5M92 75h1M19 76h1M23 76h1M33 76h13M66 76h2M92 76h1M19 77h1M23 77h1M67 77h2M92 77h1M18 78h2M22 78h2M68 78h1M91 78h2M18 79h1M22 79h1M68 79h2M91 79h1M18 80h1M22 80h1M69 80h1M91 80h1M18 81h1M21 81h2M69 81h1M91 81h1M17 82h2M21 82h1M69 82h2M91 82h1M17 83h1M21 83h1M70 83h2M80 83h6M91 83h1M17 84h1M21 84h1M71 84h10M85 84h5M91 84h1M5 85h33M40 85h15M60 85h7M70 85h11M86 85h24M5 86h1M37 86h4M54 86h1M59 86h2M66 86h1M70 86h1M80 86h1M85 86h2M109 86h1M5 87h1M37 87h2M54 87h1M59 87h1M66 87h2M70 87h1M80 87h1M85 87h1M109 87h1M5 88h1M37 88h1M54 88h1M58 88h2M67 88h1M70 88h1M80 88h2M85 88h1M109 88h1M5 89h1M54 89h1M58 89h1M67 89h1M70 89h1M81 89h1M84 89h2M109 89h1M5 90h1M54 90h1M57 90h2M67 90h2M70 90h1M81 90h2M84 90h1M109 90h1M5 91h3M14 91h2M22 91h1M29 91h2M45 91h1M54 91h1M57 91h1M68 91h1M70 91h3M82 91h3M93 91h2M101 91h2M109 91h1M7 92h1M14 92h1M22 92h1M29 92h1M43 92h5M54 92h1M57 92h1M68 92h2M72 92h1M82 92h2M93 92h2M101 92h1M109 92h1M7 93h1M14 93h1M22 93h1M29 93h1M42 93h2M45 93h4M54 93h4M69 93h1M72 93h1M82 93h2M93 93h2M101 93h1M109 93h1M7 94h1M20 94h3M42 94h1M45 94h1M56 94h1M69 94h1M72 94h1M93 94h2M107 94h3M7 95h1M20 95h1M22 95h1M41 95h2M45 95h1M56 95h1M62 95h1M69 95h2M72 95h1M93 95h2M107 95h1M7 96h1M20 96h1M22 96h1M41 96h2M45 96h1M70 96h1M72 96h1M93 96h2M107 96h1M7 97h1M20 97h1M22 97h1M42 97h1M45 97h1M70 97h1M72 97h1M93 97h2M107 97h1M7 98h1M20 98h3M42 98h2M45 98h1M70 98h3M93 98h2M107 98h4M7 99h1M14 99h1M29 99h1M43 99h5M71 99h2M93 99h2M101 99h1M110 99h1M7 100h1M14 100h1M29 100h1M44 100h4M71 100h2M93 100h2M101 100h1M110 100h1M5 101h3M14 101h2M29 101h6M61 101h3M72 101h1M93 101h2M101 101h2M110 101h1M5 102h1M31 102h1M34 102h2M62 102h2M77 102h1M110 102h1M5 103h1M31 103h1M35 103h2M62 103h2M78 103h1M85 103h1M110 103h1M5 104h1M31 104h1M36 104h1M62 104h2M109 104h2M5 105h1M31 105h1M36 105h3M62 105h2M109 105h1M5 106h1M31 106h1M38 106h3M52 106h1M62 106h2M80 106h1M85 106h1M109 106h1M5 107h27M40 107h70" />
<path stroke="#bdb8c1" d="M42 2h1M42 3h1M40 4h1M40 5h1M43 5h1M39 6h2M43 6h1M39 7h2M43 7h1M38 8h2M43 8h1M38 9h2M43 9h1M39 10h1M43 10h1M38 11h1M38 12h1M41 15h2M44 15h1M40 16h4M41 17h1" />
<path stroke="#55527c" d="M41 3h1M41 4h1M37 9h1M36 10h3M36 11h2M36 12h2M36 13h3M36 14h4M38 15h3" />
<path stroke="#ffffd5" d="M42 4h1M41 5h2M41 6h2M41 7h2M40 8h3M40 9h3M40 10h3M35 11h1M39 11h5M34 12h2M39 12h5M35 13h1M39 13h6M35 14h1M40 14h5M36 15h2M43 15h1M37 16h3M63 53h2M63 54h4M63 55h5M63 56h6M63 57h7M63 58h8M62 59h9M62 60h9M62 61h9M62 62h9M62 63h9M62 64h9M62 65h9M62 66h9M62 67h9M62 68h9M62 69h10M62 70h10M62 71h10M56 72h16M51 73h1M59 73h13M68 74h4M71 75h2" />
<path stroke="#7e4858" d="M35 17h1M37 17h2M36 18h2M36 19h2M35 20h1M39 21h1M35 22h2M35 23h1M35 24h1M35 25h1M34 26h2M34 27h1M34 28h1M33 29h2M33 30h1M33 31h1M33 32h1M32 33h2M32 34h1M32 35h1M31 36h2M31 37h1M31 38h1M31 39h1M30 40h2M30 41h1M30 42h1M29 43h2M29 44h2M29 45h1M29 46h1M28 47h2M28 48h1M28 49h1M28 50h1M27 51h2M27 52h1M27 53h1M26 54h2M26 55h1M26 56h1M26 57h1M25 58h2M25 59h1M25 60h1M24 61h2M24 62h1M24 63h1M24 64h1M23 65h2M23 66h1M23 67h1M22 68h2M22 69h1M22 70h1M22 71h1M21 72h2M21 73h1M21 74h1M20 75h2M20 76h2M20 77h1M20 78h1M19 79h2M19 80h1M19 81h1M19 82h1M18 83h2M18 84h1" />
<path stroke="#3b1a56" d="M38 18h2M38 19h2M38 20h1M37 22h1M36 23h2M36 24h1M36 25h1M36 26h1M35 27h2M35 28h1M35 29h1M34 30h2M34 31h1M34 32h1M34 33h1M33 34h2M33 35h1M33 36h1M32 37h2M32 38h1M32 39h1M32 40h1M31 41h2M31 42h1M31 43h1M31 44h1M30 45h2M30 46h1M30 47h1M29 48h2M29 49h1M29 50h1M29 51h1M28 52h2M28 53h1M28 54h1M27 55h2M27 56h1M27 57h1M27 58h1M26 59h2M26 60h1M26 61h1M25 62h2M25 63h1M25 64h1M25 65h1M24 66h2M24 67h1M24 68h1M23 69h2M23 70h1M23 71h1M23 72h1M22 73h2M22 74h1M22 75h1M22 76h1M21 77h2M21 78h1M21 79h1M20 80h2M20 81h1M20 82h1M20 83h1M19 84h2" />
<path stroke="#4e2344" d="M40 19h1" />
<path stroke="#a96a53" d="M36 20h1M36 21h1" />
<path stroke="#a86a55" d="M37 20h1M37 21h2" />
<path stroke="#002c9a" d="M39 22h1M39 23h1M39 24h3M38 25h2M41 25h1M42 26h3M44 27h3M46 28h4M49 29h7M58 29h7M56 30h12M68 31h2M70 32h1M70 33h1M71 34h1M71 35h1M71 36h1M72 37h1M72 38h1M72 39h1M72 40h1M72 41h3M73 42h1M75 42h2M73 43h1M76 43h2M73 44h1M77 44h3M73 45h1M79 45h3M73 46h1M81 46h3M73 47h1M83 47h2M74 48h1M84 48h2M74 49h1M85 49h2M74 50h1M87 50h2M74 51h1M88 51h7M74 52h1M88 52h7M75 53h1M90 53h4M75 54h1M90 54h4M75 55h2M91 55h3M75 56h2M92 56h3M75 57h2M92 57h3M75 58h2M93 58h2M75 59h2M93 59h2M76 60h2M93 60h2M76 61h2M93 61h3M76 62h2M94 62h2M94 63h2M94 64h1M94 65h1M94 66h1" />
<path stroke="#0056b9" d="M40 25h1M38 26h4M38 27h6M38 28h8M37 29h12M37 30h19M37 31h31M36 32h34M36 33h34M36 34h35M36 35h29M67 35h4M35 36h29M67 36h4M35 37h29M68 37h4M35 38h29M68 38h4M35 39h29M68 39h4M34 40h30M68 40h4M34 41h30M68 41h4M34 42h30M69 42h4M74 42h1M33 43h31M69 43h4M74 43h2M33 44h31M69 44h4M74 44h3M33 45h31M69 45h4M74 45h5M35 46h28M69 46h4M74 46h7M36 47h27M69 47h4M74 47h9M37 48h26M69 48h5M75 48h9M38 49h25M69 49h5M75 49h10M40 50h23M69 50h5M75 50h12M42 51h21M69 51h5M75 51h13M49 52h6M69 52h5M75 52h13M70 53h5M76 53h14M70 54h5M76 54h14M70 55h5M77 55h14M70 56h5M77 56h15M71 57h4M77 57h15M72 58h3M77 58h16M73 59h2M77 59h16M74 60h2M78 60h15M75 61h1M78 61h15M78 62h16M78 63h16M79 64h15M81 65h13M83 66h11M85 67h4M93 67h1" />
<path stroke="#e2ffe4" d="M65 35h2M64 36h3M64 37h4M64 38h4M64 39h4M64 40h4M64 41h4M64 42h5M64 43h5M64 44h5M64 45h5M63 46h6M63 47h6M63 48h6M63 49h6M63 50h6M63 51h6M63 52h6M65 53h5M67 54h3M68 55h2M69 56h1" />
<path stroke="#ffd800" d="M33 46h2M32 47h4M32 48h5M32 49h6M31 50h9M31 51h11M31 52h18M55 52h8M31 53h32M30 54h33M30 55h33M30 56h33M29 57h34M29 58h34M71 58h1M29 59h33M71 59h2M29 60h33M71 60h3M29 61h33M71 61h4M29 62h33M71 62h5M29 63h33M71 63h5M30 64h32M71 64h5M78 64h1M30 65h32M71 65h6M78 65h3M30 66h32M71 66h6M79 66h4M30 67h32M71 67h6M80 67h5M89 67h4M30 68h32M71 68h7M80 68h14M31 69h31M72 69h6M80 69h14M31 70h31M72 70h6M80 70h14M31 71h31M72 71h6M80 71h13M32 72h24M72 72h6M80 72h13M32 73h19M72 73h6M81 73h12M32 74h11M72 74h6M81 74h11M34 75h2M73 75h6M81 75h11M74 76h5M81 76h11M74 77h5M81 77h11M76 78h2M81 78h10M76 79h2M81 79h10M77 80h1M80 80h11M80 81h10M78 82h12M78 83h2M86 83h3" />
<path stroke="#ffc310" d="M70 57h1" />
<path stroke="#d77239" d="M28 61h1M28 62h1M28 63h1M76 63h2M27 64h3M76 64h2M27 65h3M77 65h1M27 66h3M77 66h2M27 67h3M77 67h3M26 68h4M78 68h2M27 69h4M78 69h2M27 70h4M78 70h2M28 71h3M78 71h2M28 72h4M78 72h2M30 73h2M52 73h7M78 73h3M31 74h1M43 74h9M63 74h3M78 74h3M36 75h9M79 75h2M71 76h3M79 76h2M79 77h2M74 78h2M78 78h3M78 79h3M76 80h1M78 80h2M76 81h4M90 81h1M77 82h1M90 82h1M76 83h2M89 83h2M90 84h1" />
<path stroke="#651e34" d="M66 74h2M67 75h4M68 76h3M69 77h5M69 78h5M70 79h6M70 80h6M70 81h6M71 82h6M72 83h4" />
<path stroke="#fcfcc1" d="M6 86h30M41 86h12M61 86h4M71 86h8M87 86h21M6 87h14M21 87h14M39 87h13M60 87h4M71 87h7M86 87h21M6 88h2M22 88h1M38 88h5M60 88h3M71 88h2M86 88h3M6 89h1M37 89h4M59 89h3M71 89h1M86 89h2M9 90h1M24 90h1M37 90h3M59 90h3M74 90h1M85 90h3M96 90h1M8 91h2M17 91h2M23 91h2M32 91h2M37 91h2M58 91h3M73 91h2M85 91h3M95 91h2M104 91h2M8 92h2M15 92h4M23 92h2M30 92h4M36 92h2M49 92h2M58 92h3M73 92h2M84 92h3M95 92h2M102 92h4M8 93h2M15 93h3M23 93h2M30 93h3M36 93h2M49 93h1M58 93h2M73 93h2M84 93h3M95 93h2M102 93h3M8 94h2M14 94h3M23 94h2M29 94h3M35 94h2M46 94h5M53 94h2M57 94h3M63 94h1M73 94h2M83 94h3M95 94h2M101 94h3M8 95h2M13 95h4M23 95h2M28 95h4M35 95h2M46 95h8M57 95h3M63 95h1M73 95h2M83 95h3M95 95h2M100 95h4M8 96h2M23 96h2M35 96h2M46 96h2M56 96h3M62 96h2M73 96h2M83 96h2M95 96h2M8 97h2M23 97h2M35 97h2M46 97h1M56 97h3M62 97h2M73 97h2M82 97h3M88 97h1M95 97h2M8 98h2M16 98h1M23 98h2M31 98h1M35 98h2M49 98h1M56 98h2M73 98h2M78 98h1M88 98h1M95 98h2M103 98h1M8 99h2M15 99h1M20 99h2M23 99h2M30 99h1M35 99h2M48 99h2M55 99h3M73 99h2M78 99h1M87 99h2M95 99h2M102 99h1M107 99h2M8 100h2M18 100h3M23 100h2M35 100h2M48 100h2M55 100h3M65 100h1M73 100h2M78 100h2M87 100h2M95 100h2M105 100h3M8 101h2M16 101h4M23 101h2M43 101h2M47 101h3M54 101h3M64 101h2M73 101h2M78 101h2M87 101h2M95 101h2M103 101h4M6 102h4M14 102h5M23 102h2M29 102h1M37 102h2M43 102h7M54 102h3M64 102h3M71 102h4M78 102h3M86 102h3M93 102h4M101 102h5M6 103h4M13 103h5M22 103h3M28 103h1M37 103h1M45 103h4M53 103h3M59 103h1M64 103h3M71 103h4M77 103h1M79 103h2M86 103h3M92 103h5M100 103h5M6 104h2M22 104h1M64 104h2M80 104h1M85 104h2M6 105h1M64 105h1M85 105h1" />
<path stroke="#7f7f7f" d="M36 86h1M53 86h1M65 86h1M79 86h1M108 86h1M8 88h2M11 88h1M16 88h2M19 88h1M21 88h1M23 88h2M26 88h1M31 88h2M34 88h1M43 88h1M46 88h1M48 88h1M51 88h1M63 88h1M66 88h1M73 88h2M76 88h2M90 88h1M93 88h4M98 88h1M103 88h2M106 88h1M7 89h1M9 89h2M17 89h2M22 89h1M24 89h2M32 89h2M41 89h1M47 89h1M49 89h2M63 89h2M72 89h1M75 89h2M80 89h1M89 89h1M96 89h2M104 89h2M6 90h1M49 90h2M62 90h2M71 90h1M75 90h3M89 90h1M16 91h1M31 91h1M36 91h1M39 91h1M46 91h1M61 91h3M67 91h1M75 91h4M81 91h1M88 91h2M103 91h1M38 92h1M48 92h1M63 92h2M75 92h5M87 92h3M10 93h1M25 93h1M35 93h1M50 93h1M64 93h2M68 93h1M77 93h2M97 93h1M10 94h2M13 94h1M17 94h1M25 94h2M28 94h1M32 94h1M52 94h1M55 94h1M64 94h3M76 94h1M78 94h1M82 94h1M97 94h2M100 94h1M104 94h1M11 95h2M26 95h2M64 95h2M76 95h1M78 95h2M98 95h2M11 96h1M15 96h2M26 96h1M30 96h2M37 96h1M48 96h2M51 96h1M59 96h2M65 96h1M69 96h1M77 96h4M82 96h1M98 96h1M102 96h2M37 97h1M41 97h1M47 97h1M49 97h2M61 97h1M65 97h3M79 97h2M37 98h2M46 98h1M58 98h1M64 98h3M79 98h1M87 98h1M16 99h1M19 99h1M22 99h1M31 99h1M37 99h1M42 99h1M54 99h1M65 99h2M70 99h1M81 99h1M83 99h1M103 99h1M106 99h1M109 99h1M15 100h1M30 100h1M37 100h4M43 100h1M54 100h1M66 100h2M80 100h2M83 100h1M102 100h1M10 101h1M25 101h1M35 101h1M39 101h3M45 101h2M67 101h1M71 101h1M82 101h1M89 101h1M97 101h1M10 102h2M13 102h1M19 102h1M22 102h1M25 102h2M30 102h1M36 102h1M39 102h4M50 102h1M53 102h1M57 102h1M61 102h1M67 102h4M75 102h1M81 102h2M89 102h2M97 102h2M100 102h1M106 102h1M10 103h3M18 103h1M25 103h3M40 103h3M44 103h1M49 103h1M52 103h1M58 103h1M67 103h2M70 103h1M76 103h1M81 103h1M89 103h3M97 103h3M105 103h1M21 104h1M37 104h1M42 104h1M53 104h1M71 104h2M81 104h1M93 104h2M7 105h1M22 105h1M39 105h1M65 105h1M86 105h1M6 106h1M41 106h1M64 106h1" />
<path stroke="#575774" d="M20 87h1M35 87h1M52 87h1M64 87h1M78 87h1M107 87h1M12 88h4M27 88h4M44 88h2M91 88h2M99 88h4M11 89h1M19 89h1M26 89h1M34 89h1M42 89h1M48 89h1M51 89h1M77 89h1M90 89h1M98 89h1M106 89h1M11 90h1M19 90h1M26 90h1M34 90h1M40 90h1M51 90h1M64 90h1M78 90h1M90 90h1M98 90h1M106 90h1M11 91h1M19 91h1M26 91h1M34 91h1M51 91h1M64 91h1M90 91h1M98 91h1M106 91h1M11 92h1M26 92h1M39 92h1M51 92h1M61 92h2M65 92h1M90 92h1M98 92h1M11 93h1M26 93h1M38 93h1M75 93h2M79 93h1M87 93h1M90 93h1M98 93h1M38 94h1M60 94h1M75 94h1M79 94h1M86 94h2M90 94h1M17 95h1M32 95h1M38 95h1M54 95h1M60 95h1M66 95h1M75 95h1M80 95h1M86 95h2M90 95h1M104 95h1M12 96h3M17 96h1M27 96h3M32 96h1M38 96h1M52 96h2M66 96h1M75 96h2M90 96h1M99 96h3M104 96h1M11 97h1M17 97h1M26 97h1M32 97h1M38 97h1M51 97h1M75 97h1M81 97h1M85 97h1M90 97h1M98 97h1M104 97h1M11 98h1M17 98h1M26 98h1M32 98h1M39 98h1M51 98h1M59 98h5M67 98h1M75 98h1M80 98h2M90 98h1M98 98h1M104 98h1M11 99h1M26 99h1M38 99h2M51 99h1M58 99h1M67 99h1M75 99h1M80 99h1M84 99h1M90 99h1M98 99h1M11 100h1M21 100h1M26 100h1M41 100h2M51 100h1M58 100h1M68 100h1M75 100h1M90 100h1M98 100h1M108 100h1M11 101h1M20 101h1M26 101h1M42 101h1M51 101h1M57 101h1M68 101h1M75 101h1M83 101h1M90 101h1M98 101h1M107 101h1M28 102h1M51 102h1M83 102h1M92 102h1M19 103h1M29 103h1M50 103h2M60 103h1M82 103h1M106 103h1M9 104h11M24 104h5M43 104h7M55 104h5M66 104h5M74 104h4M82 104h1M88 104h5M96 104h11" />
<path stroke="#03033e" d="M36 87h1M53 87h1M65 87h1M79 87h1M108 87h1M20 88h1M35 88h2M52 88h2M64 88h2M78 88h2M107 88h2M8 89h1M12 89h5M20 89h2M23 89h1M27 89h5M35 89h2M43 89h4M52 89h2M65 89h2M73 89h1M78 89h2M91 89h5M99 89h5M107 89h2M7 90h1M12 90h5M20 90h3M27 90h5M35 90h2M41 90h8M52 90h2M65 90h2M72 90h1M79 90h2M91 90h4M99 90h5M107 90h2M12 91h2M20 91h2M27 91h2M35 91h1M40 91h5M47 91h2M52 91h2M65 91h2M79 91h2M91 91h2M99 91h2M107 91h2M12 92h2M19 92h3M27 92h2M34 92h2M40 92h3M52 92h2M66 92h2M80 92h2M91 92h2M99 92h2M106 92h3M12 93h2M18 93h4M27 93h2M33 93h2M39 93h3M51 93h3M61 93h2M66 93h2M80 93h2M91 93h2M99 93h2M105 93h4M12 94h1M18 94h2M27 94h1M33 94h2M39 94h3M61 94h2M67 94h2M80 94h2M91 94h2M99 94h1M105 94h2M18 95h2M33 95h2M39 95h2M55 95h1M61 95h1M67 95h2M81 95h2M91 95h2M105 95h2M18 96h2M33 96h2M39 96h2M54 96h2M61 96h1M67 96h2M81 96h1M86 96h2M91 96h2M105 96h2M12 97h4M18 97h2M27 97h4M33 97h2M39 97h2M48 97h1M52 97h4M68 97h2M76 97h2M86 97h2M91 97h2M99 97h4M105 97h2M12 98h3M18 98h2M27 98h3M33 98h2M40 98h2M47 98h1M52 98h4M68 98h2M76 98h2M85 98h2M91 98h2M99 98h3M105 98h2M12 99h2M17 99h2M27 99h2M32 99h3M40 99h2M52 99h2M59 99h6M68 99h2M76 99h2M85 99h2M91 99h2M99 99h2M104 99h2M12 100h2M16 100h2M22 100h1M27 100h2M31 100h4M52 100h2M59 100h5M69 100h2M76 100h2M84 100h3M91 100h2M99 100h2M103 100h2M109 100h1M12 101h2M21 101h2M27 101h2M52 101h2M58 101h3M69 101h2M76 101h2M84 101h3M91 101h2M99 101h2M108 101h2M12 102h1M20 102h2M27 102h1M52 102h1M58 102h2M76 102h1M84 102h2M91 102h1M99 102h1M107 102h3M20 103h2M30 103h1M39 103h1M61 103h1M83 103h2M107 103h3M20 104h1M29 104h2M38 104h4M50 104h3M60 104h2M78 104h2M83 104h2M107 104h2M8 105h14M23 105h8M40 105h22M66 105h14M81 105h4M87 105h22M7 106h24M42 106h10M53 106h9M65 106h15M81 106h4M86 106h23" />
<path stroke="#a8a88a" d="M10 88h1M18 88h1M25 88h1M33 88h1M47 88h1M49 88h2M75 88h1M89 88h1M97 88h1M105 88h1M62 89h1M74 89h1M88 89h1M8 90h1M10 90h1M18 90h1M23 90h1M25 90h1M33 90h1M88 90h1M95 90h1M97 90h1M105 90h1M10 91h1M25 91h1M50 91h1M97 91h1M10 92h1M25 92h1M97 92h1M88 93h2M37 94h1M51 94h1M77 94h1M88 94h2M10 95h1M25 95h1M37 95h1M77 95h1M88 95h2M97 95h1M10 96h1M25 96h1M50 96h1M64 96h1M88 96h2M97 96h1M10 97h1M16 97h1M25 97h1M31 97h1M59 97h2M64 97h1M78 97h1M89 97h1M97 97h1M103 97h1M10 98h1M15 98h1M25 98h1M30 98h1M48 98h1M50 98h1M82 98h2M89 98h1M97 98h1M102 98h1M10 99h1M25 99h1M50 99h1M79 99h1M82 99h1M89 99h1M97 99h1M10 100h1M25 100h1M50 100h1M64 100h1M82 100h1M89 100h1M97 100h1M36 101h1M50 101h1M66 101h1M81 101h1M43 103h1M56 103h2M69 103h1M75 103h1M80 105h1" />
<path stroke="#aaaaaa" d="M17 90h1M32 90h1M73 90h1M104 90h1M49 91h1M63 93h1M37 101h2M80 101h1" />
<path stroke="#775a77" d="M60 93h1M85 96h1M84 98h1M8 104h1M23 104h1M54 104h1M73 104h1M87 104h1M95 104h1" />
<path stroke="#2c2c49" d="M60 102h1" />
<path stroke="#86a486" d="M38 103h1" />
</svg>