<svg xmlns="http://www.w3.org/2000/svg" viewBox="0 -0.5 100 100" shape-rendering="crispEdges">
<metadata>Made with Pixels to Svg https://codepen.io/shshaw/pen/XbxvNj</metadata>
<path stroke="#404040" d="M0 0h5M6 0h4M12 0h25M38 0h10M51 0h16M72 0h7M81 0h7M91 0h9M0 1h10M13 1h1M15 1h5M21 1h8M31 1h7M40 1h6M49 1h19M70 1h1M73 1h6M81 1h7M90 1h10M0 2h6M7 2h3M13 2h2M16 2h16M33 2h6M41 2h4M47 2h25M73 2h3M77 2h2M81 2h7M90 2h5M96 2h4M0 3h1M3 3h6M13 3h2M16 3h4M21 3h8M30 3h5M36 3h3M41 3h2M46 3h11M59 3h13M73 3h5M80 3h8M91 3h9M0 4h2M4 4h4M9 4h5M16 4h23M42 4h1M46 4h11M59 4h31M91 4h9M0 5h2M4 5h1M6 5h9M16 5h22M39 5h1M42 5h2M45 5h15M61 5h33M95 5h5M1 6h2M5 6h14M20 6h5M26 6h13M40 6h36M77 6h14M92 6h8M0 7h3M5 7h20M26 7h3M30 7h6M37 7h63M0 8h2M4 8h21M26 8h8M35 8h20M56 8h44M1 9h11M14 9h2M18 9h6M26 9h18M45 9h43M89 9h3M94 9h6M1 10h1M5 10h11M18 10h6M26 10h6M33 10h32M66 10h27M95 10h5M0 11h16M18 11h6M26 11h4M32 11h19M52 11h38M91 11h3M96 11h4M0 12h100M0 13h44M45 13h19M65 13h35M0 14h53M54 14h21M76 14h9M86 14h14M0 15h100M0 16h64M65 16h8M74 16h26M0 17h25M26 17h74M0 18h1M3 18h44M48 18h52M0 19h2M4 19h19M24 19h76M0 20h3M5 20h30M36 20h64M0 21h3M5 21h5M11 21h23M35 21h65M0 22h4M6 22h8M15 22h18M34 22h46M81 22h19M0 23h5M6 23h94M0 24h48M49 24h11M62 24h3M66 24h34M0 25h44M45 25h6M54 25h1M56 25h30M88 25h12M0 26h51M53 26h15M69 26h16M89 26h11M0 27h50M53 27h1M55 27h1M57 27h11M69 27h16M87 27h1M89 27h6M97 27h3M0 28h5M6 28h43M51 28h20M72 28h23M97 28h3M0 29h15M16 29h6M26 29h23M51 29h13M65 29h23M89 29h6M97 29h3M0 30h21M23 30h1M26 30h23M51 30h11M63 30h6M70 30h17M88 30h7M97 30h3M0 31h21M23 31h27M52 31h43M97 31h3M0 32h4M6 32h15M23 32h4M28 32h4M33 32h17M52 32h48M0 33h5M8 33h92M0 34h7M9 34h32M43 34h57M0 35h8M10 35h31M43 35h57M0 36h42M44 36h56M0 37h11M12 37h30M44 37h56M0 38h43M45 38h6M52 38h19M72 38h28M0 39h28M29 39h14M45 39h55M0 40h43M45 40h16M62 40h31M94 40h6M0 41h43M45 41h51M97 41h3M0 42h21M22 42h15M38 42h6M46 42h54M0 43h44M46 43h48M97 43h3M0 44h11M12 44h32M46 44h48M96 44h4M0 45h44M46 45h41M88 45h5M95 45h2M98 45h2M0 46h23M24 46h21M47 46h28M77 46h17M97 46h3M0 47h5M6 47h39M47 47h20M68 47h7M77 47h17M96 47h1M98 47h2M0 48h13M14 48h17M32 48h14M48 48h14M63 48h12M77 48h17M96 48h4M0 49h46M48 49h27M77 49h23M0 50h20M21 50h25M48 50h3M52 50h23M77 50h7M86 50h14M0 51h75M77 51h7M86 51h14M0 52h75M77 52h7M86 52h14M0 53h36M37 53h38M77 53h7M86 53h14M0 54h75M77 54h7M86 54h14M0 55h27M28 55h47M77 55h23M0 56h100M0 57h4M5 57h13M20 57h80M0 58h18M20 58h80M0 59h18M20 59h80M0 60h17M19 60h31M51 60h11M63 60h3M67 60h19M87 60h13M0 61h55M57 61h40M98 61h2M0 62h39M40 62h15M57 62h12M70 62h24M95 62h5M0 63h28M29 63h27M58 63h5M64 63h36M0 64h56M58 64h42M0 65h19M20 65h23M44 65h13M59 65h27M87 65h13M1 66h8M10 66h48M59 66h41M0 67h100M0 68h19M20 68h62M83 68h12M96 68h4M0 69h41M42 69h58M0 70h28M30 70h42M73 70h27M0 71h28M30 71h62M93 71h7M0 72h28M30 72h18M49 72h51M0 73h29M30 73h70M0 74h28M30 74h70M0 75h27M29 75h71M0 76h7M8 76h19M28 76h47M76 76h24M0 77h13M14 77h11M28 77h72M0 78h24M26 78h26M54 78h46M0 79h24M26 79h26M54 79h10M65 79h35M0 80h23M25 80h14M40 80h12M54 80h21M76 80h22M99 80h1M0 81h11M12 81h10M24 81h28M54 81h46M0 82h52M54 82h46M0 83h5M7 83h93M0 84h5M7 84h93M0 85h5M7 85h21M29 85h56M87 85h13M0 86h4M8 86h76M87 86h13M0 87h4M6 87h1M9 87h35M45 87h55M0 88h100M0 89h17M18 89h34M53 89h47M0 90h15M16 90h79M96 90h4M0 91h15M17 91h3M21 91h71M94 91h6M0 92h16M18 92h72M91 92h1M94 92h1M96 92h4M0 93h16M19 93h2M22 93h41M65 93h25M91 93h1M94 93h1M96 93h4M0 94h14M15 94h2M19 94h44M65 94h29M96 94h4M0 95h15M16 95h2M19 95h17M39 95h23M64 95h30M96 95h4M0 96h13M14 96h23M39 96h13M53 96h9M64 96h6M71 96h21M96 96h4M0 97h38M40 97h23M65 97h35M0 98h100M0 99h92M93 99h7" />
<path stroke="#4a4a4a" d="M5 0h1" />
<path stroke="#2c2f35" d="M10 0h1M48 0h1M67 0h2M79 0h1M88 0h1M11 1h1M38 1h2M46 1h1M71 1h1M79 1h1M10 2h1M39 2h1M45 2h1M79 2h1M88 2h1M1 3h1M9 3h1M11 3h1M39 3h1M44 3h1M57 3h1M72 3h1M78 3h1M88 3h2M2 4h1M15 4h1M39 4h2M57 4h1M2 5h1M15 5h1M40 5h1M44 5h1M3 6h1M25 6h1M3 7h1M2 8h1M16 9h1M24 9h1M92 9h1M24 10h1M93 10h1M16 11h1M24 11h1M90 11h1M94 11h1M44 25h1M52 25h1M87 25h1M51 26h1M88 26h1M50 27h1M49 28h1M49 29h1M49 30h1M69 30h1M50 31h1M27 32h1M50 32h1M41 34h1M41 35h1M42 36h1M42 37h1M43 38h1M51 38h1M28 39h1M43 39h1M43 40h1M43 41h1M44 42h1M44 43h1M94 43h2M44 44h1M94 44h1M44 45h1M93 45h1M45 46h1M45 47h1M67 47h1M94 47h1M97 47h1M13 48h1M46 48h1M94 48h1M46 49h1M46 50h1M51 50h1M27 55h1M94 62h1M19 65h1M43 65h1M86 65h1M75 76h1M11 81h1M52 89h1M15 90h1M16 91h1M92 91h1M16 92h1M92 92h1M95 92h1M16 93h2M92 93h1M95 93h1M17 94h1M94 94h1M94 95h1M92 96h3" />
<path stroke="#84806a" d="M11 0h1M49 0h1M71 0h1M80 0h1M89 0h1M12 1h1M47 1h2M69 1h1M72 1h1M80 1h1M89 1h1M11 2h2M15 2h1M40 2h1M46 2h1M72 2h1M80 2h1M89 2h1M2 3h1M10 3h1M12 3h1M15 3h1M40 3h1M45 3h1M58 3h1M79 3h1M90 3h1M3 4h1M45 4h1M58 4h1M90 4h1M3 5h1M41 5h1M4 6h1M4 7h1M3 8h1M55 8h1M17 9h1M25 9h1M93 9h1M17 10h1M94 10h1M17 11h1M25 11h1M95 11h1M44 13h1M75 14h1M25 17h1M2 18h1M3 19h1M4 20h1M4 21h1M5 22h1M48 24h1M53 25h1M52 26h1M86 26h2M51 27h1M86 27h1M88 27h1M96 27h1M5 28h1M50 28h1M96 28h1M15 29h1M23 29h3M50 29h1M96 29h1M22 30h1M25 30h1M50 30h1M96 30h1M22 31h1M51 31h1M96 31h1M5 32h1M22 32h1M51 32h1M6 33h2M8 34h1M42 34h1M9 35h1M42 35h1M43 36h1M11 37h1M43 37h1M44 38h1M71 38h1M44 39h1M44 40h1M44 41h1M45 42h1M45 43h1M96 43h1M45 44h1M95 44h1M45 45h1M94 45h1M46 46h1M76 46h1M95 46h1M46 47h1M76 47h1M95 47h1M47 48h1M76 48h1M95 48h1M47 49h1M76 49h1M20 50h1M47 50h1M76 50h1M85 50h1M76 51h1M85 51h1M76 52h1M85 52h1M76 53h1M85 53h1M76 54h1M85 54h1M76 55h1M19 57h1M19 58h1M19 59h1M18 60h1M66 60h1M56 61h1M97 61h1M56 62h1M69 62h1M57 63h1M57 64h1M58 65h1M29 70h1M29 71h1M29 72h1M29 73h1M29 74h1M28 75h1M27 76h1M26 77h2M25 78h1M53 78h1M25 79h1M53 79h1M24 80h1M53 80h1M98 80h1M23 81h1M53 81h1M53 82h1M6 83h1M6 84h1M6 85h1M86 85h1M5 86h1M7 86h1M85 86h2M5 87h1M8 87h1M44 87h1M15 91h1M93 91h1M17 92h1M18 93h1M64 93h1M93 93h1M18 94h1M64 94h1M95 94h1M18 95h1M37 95h2M63 95h1M95 95h1M13 96h1M38 96h1M63 96h1M95 96h1M39 97h1M64 97h1" />
<path stroke="#23252d" d="M37 0h1" />
<path stroke="#25282f" d="M50 0h1" />
<path stroke="#424449" d="M69 0h1M38 5h1" />
<path stroke="#918d7a" d="M70 0h1" />
<path stroke="#575656" d="M90 0h1M20 1h1M30 1h1M36 7h1M87 30h1M15 95h1" />
<path stroke="#464646" d="M10 1h1M14 4h1" />
<path stroke="#313131" d="M14 1h1" />
<path stroke="#46464c" d="M29 1h1" />
<path stroke="#3d4045" d="M68 1h1" />
<path stroke="#2f3139" d="M88 1h1" />
<path stroke="#373737" d="M6 2h1" />
<path stroke="#585756" d="M32 2h1M76 6h1M51 11h1M64 13h1M85 14h1M65 24h1" />
<path stroke="#585857" d="M76 2h1M35 3h1" />
<path stroke="#2c2c2c" d="M95 2h1" />
<path stroke="#565655" d="M20 3h1M39 6h1M47 18h1M10 21h1M33 22h1M80 22h1M56 27h1M61 40h1M11 44h1M87 45h1M23 46h1M31 48h1M62 48h1M4 57h1M62 60h1M39 62h1M95 68h1M92 71h1M48 72h1M13 77h1M64 79h1M39 80h1M52 96h1M92 99h1" />
<path stroke="#272a32" d="M29 3h1" />
<path stroke="#36373e" d="M43 3h1" />
<path stroke="#2d2d2d" d="M8 4h1" />
<path stroke="#8d8a76" d="M41 4h1" />
<path stroke="#555454" d="M43 4h1M64 16h1M68 26h1M54 27h1M64 29h1M21 42h1M37 42h1M97 45h1M50 60h1M86 60h1M28 63h1M0 66h1M19 68h1M82 68h1M72 70h1M7 76h1M75 80h1" />
<path stroke="#44464a" d="M44 4h1" />
<path stroke="#2b2b2b" d="M5 5h1" />
<path stroke="#17191e" d="M60 5h1M65 10h1M53 14h1M73 16h1M23 19h1M34 21h1M17 89h1" />
<path stroke="#2f2f2f" d="M94 5h1" />
<path stroke="#37393d" d="M0 6h1" />
<path stroke="#545453" d="M19 6h1M90 93h1" />
<path stroke="#393939" d="M91 6h1" />
<path stroke="#47494d" d="M25 7h1" />
<path stroke="#33363d" d="M29 7h1" />
<path stroke="#2c2f34" d="M25 8h1" />
<path stroke="#434a4e" d="M34 8h1" />
<path stroke="#5a5a5a" d="M0 9h1" />
<path stroke="#6d6d6d" d="M12 9h1" />
<path stroke="#444444" d="M13 9h1" />
<path stroke="#1b1f25" d="M44 9h1" />
<path stroke="#42464c" d="M88 9h1" />
<path stroke="#424242" d="M0 10h1M2 10h1" />
<path stroke="#616161" d="M3 10h1" />
<path stroke="#222222" d="M4 10h1" />
<path stroke="#2e3035" d="M16 10h1M1 18h1M2 19h1M3 20h1M3 21h1M4 22h1M5 23h1M86 25h1M85 26h1M85 27h1M95 27h1M95 28h1M22 29h1M95 29h1M21 30h1M24 30h1M95 30h1M21 31h1M95 31h1M4 32h1M21 32h1M5 33h1M7 34h1M8 35h1M75 46h1M75 47h1M75 48h1M75 49h1M75 50h1M84 50h1M75 51h1M84 51h1M75 52h1M84 52h1M75 53h1M84 53h1M75 54h1M84 54h1M75 55h1M18 57h1M18 58h1M18 59h1M17 60h1M55 61h1M55 62h1M56 63h1M56 64h1M57 65h1M58 66h1M28 70h1M28 71h1M28 72h1M28 74h1M27 75h1M25 77h1M24 78h1M52 78h1M24 79h1M52 79h1M23 80h1M52 80h1M22 81h1M52 81h1M52 82h1M5 83h1M5 84h1M5 85h1M85 85h1M4 86h1M6 86h1M84 86h1M4 87h1M7 87h1M63 93h1M63 94h1M36 95h1M62 95h1M37 96h1M62 96h1M38 97h1M63 97h1" />
<path stroke="#23272b" d="M25 10h1" />
<path stroke="#525252" d="M32 10h1" />
<path stroke="#23272c" d="M30 11h1" />
<path stroke="#3f4247" d="M31 11h1" />
<path stroke="#1c1f26" d="M35 20h1M14 22h1M68 27h1M32 32h1M5 47h1M36 53h1M63 63h1M9 66h1M41 69h1M28 85h1M21 93h1M70 96h1" />
<path stroke="#2d3337" d="M60 24h1" />
<path stroke="#201f26" d="M61 24h1" />
<path stroke="#595958" d="M51 25h1" />
<path stroke="#32353b" d="M55 25h1" />
<path stroke="#5e6064" d="M52 27h1" />
<path stroke="#20252b" d="M71 28h1" />
<path stroke="#3c4143" d="M88 29h1" />
<path stroke="#25282d" d="M62 30h1" />
<path stroke="#434343" d="M93 40h1" />
<path stroke="#353535" d="M96 41h1" />
<path stroke="#4e4e4e" d="M94 46h1" />
<path stroke="#3b3b3b" d="M96 46h1" />
<path stroke="#2a2b32" d="M95 90h1" />
<path stroke="#35383e" d="M20 91h1" />
<path stroke="#2e3036" d="M90 92h1" />
<path stroke="#3b3c42" d="M93 92h1" />
<path stroke="#24242a" d="M14 94h1" />
</svg>