<svg xmlns="http://www.w3.org/2000/svg" viewBox="0 -0.5 16 16" shape-rendering="crispEdges">
<metadata>Made with Pixels to Svg https://codepen.io/shshaw/pen/XbxvNj</metadata>
<path stroke="#000000" d="M0 0h4M12 0h4M0 1h1M3 1h10M15 1h1M0 2h1M15 2h1M0 3h2M14 3h2M1 4h1M14 4h1M1 5h1M14 5h1M1 6h1M14 6h1M1 7h1M14 7h1M1 8h1M14 8h1M1 9h1M14 9h1M1 10h1M14 10h1M1 11h1M14 11h1M0 12h2M14 12h2M0 13h1M15 13h1M0 14h1M3 14h10M15 14h1M0 15h4M12 15h4" />
<path stroke="#84806a" d="M1 1h2M13 1h1M4 2h9M2 3h1M2 4h1M2 6h1M2 7h1M2 8h1M2 9h1M13 9h1M2 10h1M2 11h1M2 12h1M1 13h1M1 14h1" />
<path stroke="#2d3137" d="M14 1h1M1 2h1" />
<path stroke="#404040" d="M2 2h1M13 2h1M3 3h5M9 3h4M3 4h10M3 5h10M3 6h10M3 7h10M3 8h9M3 9h10M4 10h9M4 11h9M3 12h10M13 13h1" />
<path stroke="#7c7865" d="M3 2h1" />
<path stroke="#2c2f35" d="M14 2h1M13 3h1M13 4h1M13 5h1M13 6h1M13 7h1M12 8h2M13 11h1M13 12h1M3 13h10M2 14h1M13 14h2" />
<path stroke="#4a4a4a" d="M8 3h1" />
<path stroke="#42464b" d="M2 5h1" />
<path stroke="#5a5a5a" d="M3 10h1" />
<path stroke="#424448" d="M13 10h1" />
<path stroke="#424242" d="M3 11h1" />
<path stroke="#44474b" d="M2 13h1M14 13h1" />
</svg>