<svg xmlns="http://www.w3.org/2000/svg" viewBox="0 -0.5 60 60" shape-rendering="crispEdges"><path stroke="#171717" d="M0 0h60M0 1h60M0 2h19m1 0h36m1 0h3M0 3h60M0 4h60M0 5h51m1 0h8M0 6h30m1 0h29M0 7h5m1 0h54M0 8h60M0 9h60M0 10h19m1 0h40M0 11h60M0 12h1m1 0h58M0 13h60M0 14h60M0 15h47m1 0h12M0 16h60M0 17h56m1 0h2M0 18h11m1 0h22m1 0h7m1 0h17M0 19h17m1 0h42M0 20h60M0 21h60M0 22h4m1 0h55M0 23h19m1 0h40M0 24h60M0 25h60M0 26h60M0 27h50m1 0h1m1 0h7M0 28h14m1 0h45M0 29h60M0 30h59M0 31h2m1 0h57M0 32h8m1 0h28m1 0h22M0 33h60M0 34h60M0 35h60M0 36h60M0 37h60M0 38h60M0 39h60M0 40h27m1 0h32M0 41h25m1 0h34M0 42h60M0 43h60M0 44h5m1 0h54M0 45h60M0 46h60M0 47h60M0 48h53m1 0h6M0 49h60M0 50h46m1 0h13M0 51h27m1 0h13m1 0h18M0 52h60M0 53h28m1 0h31M0 54h27m1 0h32M1 55h59M0 56h60M0 57h60M0 58h60M0 59h10m1 0h49"/><path stroke="#101113" d="M19 2h1m31 3h1M5 7h1m41 8h1m-37 3h1m30 0h1m-26 1h1m1 4h1m32 4h1m6 3h1M2 31h1m24 9h1m-1 11h1m13 0h1m-15 3h1M0 55h1m9 4h1"/><path stroke="#2f2d26" d="M56 2h1M30 6h1m-12 4h1M1 12h1m54 5h1m2 0h1m-26 1h1M4 22h1m45 5h1m-37 1h1m-7 4h1m28 0h1m-13 9h1M5 44h1m47 4h1m-8 2h1m-19 3h1"/></svg>