<svg xmlns="http://www.w3.org/2000/svg" viewBox="0 -0.5 64 64" shape-rendering="crispEdges">
<metadata>Made with Pixels to Svg https://codepen.io/shshaw/pen/XbxvNj</metadata>
<path stroke="#1e2022" d="M0 0h1M39 13h1M48 14h1M42 27h1M51 28h1M53 53h1" />
<path stroke="#1c1c1c" d="M1 0h15M18 0h3M22 0h1M25 0h7M35 0h7M44 0h3M50 0h1M52 0h12M0 1h4M5 1h11M19 1h6M26 1h6M34 1h9M45 1h19M0 2h19M20 2h12M34 2h10M45 2h8M54 2h5M60 2h4M0 3h1M3 3h7M12 3h4M18 3h10M29 3h3M35 3h5M41 3h1M43 3h1M45 3h7M55 3h9M0 4h2M4 4h6M12 4h4M18 4h13M32 4h2M35 4h17M54 4h10M0 5h3M4 5h3M8 5h2M12 5h3M17 5h13M31 5h4M38 5h4M44 5h8M54 5h7M62 5h2M0 6h1M2 6h1M4 6h5M11 6h18M30 6h6M38 6h4M45 6h2M48 6h4M55 6h5M61 6h2M0 7h1M3 7h3M7 7h6M16 7h11M30 7h4M35 7h5M42 7h1M45 7h1M48 7h4M54 7h10M0 8h1M3 8h3M8 8h4M14 8h5M20 8h21M43 8h2M47 8h5M54 8h5M60 8h4M2 9h4M8 9h2M13 9h21M35 9h7M47 9h5M55 9h9M0 10h6M9 10h1M13 10h17M31 10h12M46 10h5M52 10h1M55 10h6M62 10h2M0 11h61M63 11h1M0 12h1M3 12h2M7 12h8M18 12h13M32 12h1M34 12h5M40 12h4M45 12h5M51 12h4M56 12h5M0 13h1M3 13h1M6 13h9M17 13h2M21 13h3M25 13h14M40 13h3M44 13h5M50 13h9M61 13h1M0 14h1M3 14h1M6 14h8M17 14h1M19 14h5M25 14h14M40 14h1M42 14h6M49 14h7M57 14h3M61 14h2M0 15h3M5 15h6M12 15h1M15 15h12M28 15h2M32 15h6M40 15h12M53 15h3M58 15h6M0 16h3M5 16h8M15 16h5M21 16h8M32 16h6M40 16h6M47 16h9M58 16h6M0 17h1M5 17h7M14 17h5M22 17h7M31 17h8M42 17h7M51 17h6M58 17h3M62 17h1M0 18h6M8 18h11M21 18h9M32 18h7M41 18h9M52 18h5M60 18h4M0 19h7M9 19h10M21 19h10M32 19h3M36 19h3M41 19h10M52 19h3M56 19h1M59 19h4M0 20h8M9 20h3M13 20h2M16 20h3M22 20h5M28 20h1M30 20h1M32 20h7M42 20h5M48 20h1M50 20h1M52 20h5M59 20h4M0 21h4M6 21h3M10 21h6M19 21h11M33 21h4M38 21h5M45 21h1M48 21h1M51 21h4M56 21h1M59 21h5M0 22h1M2 22h2M6 22h3M11 22h4M17 22h5M23 22h21M46 22h2M50 22h5M56 22h2M59 22h4M0 23h3M5 23h4M11 23h2M16 23h21M38 23h7M50 23h5M57 23h1M59 23h2M0 24h9M12 24h1M16 24h17M34 24h12M49 24h5M55 24h7M0 25h64M0 26h4M6 26h2M10 26h8M21 26h13M35 26h1M37 26h5M43 26h4M48 26h5M54 26h2M58 26h4M63 26h1M0 27h1M3 27h1M6 27h1M9 27h9M20 27h2M24 27h3M28 27h14M43 27h3M47 27h5M53 27h3M59 27h5M0 28h2M3 28h1M6 28h1M9 28h8M20 28h1M22 28h5M28 28h14M43 28h1M45 28h6M52 28h6M60 28h4M0 29h6M8 29h6M15 29h1M18 29h12M31 29h2M35 29h6M43 29h12M56 29h2M61 29h1M63 29h1M0 30h6M8 30h8M18 30h5M24 30h8M35 30h6M43 30h6M50 30h9M61 30h3M0 31h4M8 31h7M17 31h5M25 31h7M34 31h8M45 31h7M54 31h3M58 31h2M61 31h3M2 32h7M11 32h11M24 32h9M35 32h7M44 32h9M55 32h5M61 32h3M1 33h9M12 33h10M24 33h10M35 33h3M39 33h3M44 33h10M55 33h5M61 33h3M1 34h10M12 34h3M16 34h2M19 34h3M25 34h5M31 34h1M33 34h1M35 34h7M45 34h5M51 34h1M53 34h1M55 34h5M61 34h3M0 35h4M5 35h5M12 35h1M15 35h1M18 35h4M24 35h9M35 35h6M43 35h2M46 35h1M49 35h9M61 35h3M0 36h11M13 36h2M17 36h5M24 36h10M35 36h3M39 36h2M43 36h21M0 37h4M5 37h7M17 37h5M25 37h5M31 37h1M33 37h1M35 37h5M42 37h2M45 37h4M52 37h9M62 37h2M1 38h12M16 38h5M22 38h1M25 38h18M44 38h6M52 38h9M62 38h2M0 39h61M62 39h2M0 40h1M2 40h1M4 40h5M10 40h4M15 40h5M21 40h4M28 40h4M34 40h7M43 40h3M47 40h17M2 41h6M9 41h6M17 41h9M28 41h5M34 41h1M37 41h4M44 41h6M52 41h8M61 41h3M0 42h2M3 42h12M17 42h10M28 42h7M37 42h5M44 42h6M52 42h9M62 42h2M1 43h10M12 43h3M18 43h5M24 43h1M26 43h1M28 43h6M36 43h4M41 43h2M44 43h4M52 43h8M61 43h1M63 43h1M1 44h13M15 44h2M18 44h14M33 44h10M46 44h7M55 44h5M61 44h3M0 45h13M14 45h4M21 45h4M27 45h4M32 45h11M45 45h9M56 45h3M61 45h3M0 46h12M13 46h6M21 46h4M28 46h6M35 46h8M45 46h10M56 46h5M62 46h2M0 47h2M4 47h3M9 47h6M17 47h3M21 47h6M30 47h11M44 47h4M49 47h5M56 47h3M60 47h1M62 47h2M0 48h1M3 48h5M9 48h3M13 48h2M17 48h3M22 48h4M28 48h5M34 48h21M56 48h8M2 49h3M7 49h1M9 49h5M16 49h4M22 49h2M27 49h21M49 49h9M59 49h1M61 49h2M2 50h3M6 50h14M23 50h1M27 50h17M45 50h11M57 50h1M59 50h2M62 50h2M0 51h56M57 51h1M59 51h5M0 52h6M8 52h7M17 52h2M21 52h8M32 52h13M46 52h1M48 52h5M54 52h10M0 53h6M9 53h3M14 53h1M17 53h1M20 53h9M31 53h2M35 53h3M39 53h14M54 53h10M0 54h3M4 54h4M10 54h3M14 54h1M17 54h1M20 54h8M31 54h1M33 54h5M39 54h14M54 54h1M56 54h6M63 54h1M1 55h1M4 55h4M11 55h6M19 55h6M26 55h1M29 55h12M42 55h2M46 55h6M54 55h10M0 56h2M4 56h5M11 56h6M19 56h8M29 56h5M35 56h8M46 56h6M54 56h9M0 57h1M3 57h4M8 57h2M11 57h4M19 57h7M28 57h5M36 57h7M45 57h8M56 57h8M0 58h10M13 58h7M22 58h11M35 58h9M46 58h7M55 58h5M62 58h2M0 59h10M12 59h9M23 59h10M35 59h10M46 59h3M50 59h3M55 59h4M60 59h4M0 60h1M2 60h8M12 60h10M23 60h3M27 60h2M30 60h3M36 60h5M42 60h1M44 60h1M46 60h7M56 60h8M0 61h1M3 61h16M20 61h12M35 61h4M40 61h5M47 61h1M50 61h1M53 61h3M58 61h2M61 61h3M0 62h24M25 62h21M48 62h2M52 62h4M58 62h6M0 63h3M6 63h4M12 63h27M40 63h7M52 63h4M57 63h2M60 63h4" />
<path stroke="#131517" d="M16 0h1M23 0h1M32 0h1M42 0h1M16 1h2M25 1h1M43 1h1M32 2h1M1 3h1M10 3h1M16 3h1M32 3h2M52 3h1M2 4h1M10 4h1M16 4h1M10 5h1M15 5h1M42 5h2M52 5h1M9 6h1M36 6h1M44 6h1M52 6h2M63 6h1M1 7h1M6 7h1M13 7h1M40 7h1M46 7h1M1 8h1M6 8h1M12 8h1M41 8h1M45 8h1M52 8h1M0 9h1M6 9h1M11 9h1M42 9h1M45 9h1M52 9h2M6 10h2M43 10h2M53 10h1M61 10h1M61 11h1M1 12h1M16 12h1M39 12h1M61 12h2M1 13h1M4 13h1M15 13h1M62 13h1M1 14h1M4 14h1M14 14h1M39 14h1M63 14h1M3 15h1M13 15h1M30 15h1M38 15h1M56 15h1M3 16h1M13 16h1M38 16h1M56 16h1M1 17h3M12 17h2M19 17h1M29 17h1M39 17h1M49 17h1M6 18h1M30 18h1M50 18h1M57 18h1M7 19h1M19 19h1M39 19h1M63 19h1M19 20h2M39 20h2M57 20h1M4 21h1M9 21h1M16 21h1M43 21h1M49 21h1M57 21h1M4 22h1M9 22h1M15 22h1M44 22h1M48 22h1M55 22h1M63 22h1M3 23h1M9 23h1M14 23h1M45 23h1M48 23h1M55 23h1M62 23h1M9 24h2M46 24h2M4 26h1M19 26h1M42 26h1M56 26h2M4 27h1M7 27h1M18 27h1M58 27h1M4 28h1M7 28h1M17 28h1M42 28h1M58 28h1M6 29h1M16 29h1M33 29h1M41 29h1M58 29h2M6 30h1M16 30h1M41 30h1M59 30h1M4 31h3M15 31h2M22 31h1M32 31h1M42 31h1M52 31h1M9 32h1M33 32h1M53 32h1M60 32h1M10 33h1M22 33h1M42 33h1M22 34h2M42 34h2M60 34h1M10 35h1M16 35h1M33 35h1M41 35h1M47 35h1M11 36h1M15 36h1M22 36h1M41 36h1M12 37h1M15 37h1M22 37h2M40 37h1M13 38h2M23 38h1M50 38h1M9 40h1M32 40h2M41 40h1M0 41h1M8 41h1M26 41h1M35 41h1M41 41h2M50 41h1M60 41h1M15 42h1M35 42h1M42 42h1M50 42h1M15 43h2M34 43h2M48 43h3M60 43h1M43 44h1M53 44h1M60 44h1M25 45h2M54 45h1M59 45h1M19 46h1M27 46h1M43 46h1M2 47h1M7 47h1M15 47h1M20 47h1M27 47h1M54 47h1M61 47h1M1 48h1M15 48h1M20 48h1M26 48h1M55 48h1M0 49h1M14 49h1M20 49h1M25 49h1M58 49h1M20 50h2M58 50h1M58 51h1M6 52h2M15 52h1M30 52h1M53 52h1M8 53h1M15 53h1M18 53h1M29 53h1M3 54h1M8 54h1M15 54h1M18 54h1M28 54h1M53 54h1M2 55h1M8 55h2M17 55h1M27 55h1M44 55h1M52 55h1M2 56h1M9 56h1M17 56h1M27 56h1M52 56h1M1 57h2M15 57h3M26 57h2M33 57h1M43 57h1M53 57h1M10 58h1M20 58h1M44 58h1M61 58h1M21 59h1M33 59h1M53 59h1M10 60h1M33 60h2M53 60h2M1 61h1M45 61h1M51 61h1M56 61h1M46 62h1M50 62h1M56 62h1M10 63h2M47 63h1M50 63h1" />
<path stroke="#39382e" d="M17 0h1M24 0h1M33 0h1M43 0h1M47 0h1M18 1h1M33 1h1M44 1h1M33 2h1M44 2h1M2 3h1M11 3h1M17 3h1M34 3h1M53 3h1M3 4h1M11 4h1M17 4h1M34 4h1M53 4h1M3 5h1M11 5h1M16 5h1M37 5h1M53 5h1M10 6h1M37 6h1M42 6h2M54 6h1M2 7h1M14 7h2M28 7h2M41 7h1M47 7h1M53 7h1M2 8h1M7 8h1M13 8h1M42 8h1M46 8h1M53 8h1M1 9h1M7 9h1M12 9h1M43 9h2M46 9h1M54 9h1M12 10h1M45 10h1M54 10h1M62 11h1M2 12h1M17 12h1M63 12h1M5 13h1M16 13h1M63 13h1M2 14h1M5 14h1M15 14h1M56 14h1M4 15h1M14 15h1M31 15h1M39 15h1M57 15h1M4 16h1M14 16h1M31 16h1M57 16h1M4 17h1M20 17h1M30 17h1M40 17h1M50 17h1M57 17h1M7 18h1M20 18h1M31 18h1M40 18h1M51 18h1M58 18h1M8 19h1M20 19h1M31 19h1M40 19h1M51 19h1M58 19h1M8 20h1M21 20h1M41 20h1M58 20h1M63 20h1M5 21h1M17 21h2M31 21h2M44 21h1M50 21h1M58 21h1M5 22h1M10 22h1M16 22h1M45 22h1M49 22h1M58 22h1M4 23h1M10 23h1M15 23h1M46 23h2M49 23h1M63 23h1M15 24h1M48 24h1M63 24h1M5 26h1M20 26h1M8 27h1M19 27h1M56 27h2M5 28h1M8 28h1M18 28h1M59 28h1M7 29h1M17 29h1M34 29h1M42 29h1M60 29h1M7 30h1M17 30h1M34 30h1M60 30h1M7 31h1M23 31h1M33 31h1M43 31h1M53 31h1M60 31h1M0 32h1M10 32h1M23 32h1M34 32h1M43 32h1M54 32h1M0 33h1M11 33h1M23 33h1M34 33h1M43 33h1M54 33h1M0 34h1M11 34h1M24 34h1M44 34h1M11 35h1M17 35h1M23 35h1M34 35h1M42 35h1M48 35h1M59 35h2M12 36h1M16 36h1M23 36h1M34 36h1M42 36h1M13 37h2M16 37h1M24 37h1M41 37h1M51 37h1M61 37h1M15 38h1M24 38h1M51 38h1M61 38h1M61 39h1M27 40h1M42 40h1M1 41h1M16 41h1M27 41h1M36 41h1M43 41h1M51 41h1M16 42h1M27 42h1M36 42h1M43 42h1M51 42h1M0 43h1M17 43h1M43 43h1M51 43h1M62 43h1M0 44h1M17 44h1M44 44h1M54 44h1M20 45h1M44 45h1M55 45h1M60 45h1M20 46h1M25 46h2M44 46h1M55 46h1M61 46h1M3 47h1M8 47h1M16 47h1M28 47h2M42 47h2M55 47h1M59 47h1M2 48h1M8 48h1M16 48h1M21 48h1M27 48h1M1 49h1M15 49h1M21 49h1M26 49h1M1 50h1M26 50h1M16 52h1M31 52h1M6 53h2M19 53h1M30 53h1M9 54h1M16 54h1M19 54h1M29 54h1M62 54h1M3 55h1M10 55h1M18 55h1M28 55h1M45 55h1M53 55h1M3 56h1M10 56h1M18 56h1M28 56h1M45 56h1M10 57h1M18 57h1M34 57h1M44 57h1M54 57h1M11 58h1M21 58h1M34 58h1M45 58h1M54 58h1M11 59h1M22 59h1M34 59h1M45 59h1M54 59h1M11 60h1M22 60h1M35 60h1M55 60h1M2 61h1M19 61h1M33 61h2M46 61h1M52 61h1M57 61h1M47 62h1M51 62h1M57 62h1M5 63h1M48 63h2M51 63h1M56 63h1" />
<path stroke="#242424" d="M21 0h1M59 2h1M33 12h1M60 14h1M46 16h1M36 26h1M2 28h1M49 30h1M3 40h1M63 49h1M56 51h1M47 52h1M13 54h1" />
<path stroke="#262625" d="M34 0h1M54 3h1M34 7h1M44 7h1M21 17h1M41 17h1M59 18h1M37 21h1M47 21h1M24 31h1M44 31h1M57 31h1M1 32h1M4 35h1M14 35h1M40 43h1M45 44h1M48 47h1M7 57h1M35 57h1M55 57h1M12 58h1M39 61h1M49 61h1" />
<path stroke="#29292b" d="M48 0h2M16 14h1M19 28h1M30 54h1" />
<path stroke="#252525" d="M51 0h1M53 2h1M29 6h1M34 9h1M10 10h1M6 12h1M24 13h1M49 13h1M18 14h1M20 16h1M37 23h1M13 24h1M9 26h1M27 27h1M52 27h1M21 28h1M23 30h1M4 37h1M43 38h1M12 46h1M48 49h1M5 50h1M24 50h1M20 52h1M38 53h1M32 54h1M34 56h1M39 63h1" />
<path stroke="#1d1e21" d="M4 1h1M43 7h1M52 15h1M46 21h1M55 29h1M13 35h1M46 40h1M48 61h1" />
<path stroke="#151519" d="M32 1h1M52 4h1M52 7h1M19 18h1M39 18h1M57 19h1M55 21h1M22 32h1M42 32h1M60 33h1M22 35h1M15 41h1M43 45h1M33 58h1M53 58h1M10 59h1" />
<path stroke="#1d1d1d" d="M19 2h1M19 8h1M22 22h1M2 42h1M33 48h1M24 62h1" />
<path stroke="#262626" d="M28 3h1M7 5h1M35 5h1M61 5h1M47 6h1M59 8h1M15 12h1M55 12h1M35 19h1M55 19h1M12 20h1M15 20h1M1 22h1M61 23h1M18 26h1M38 33h1M15 34h1M18 34h1M38 36h1M49 37h1M25 40h1M61 42h1M11 43h1M18 45h1M34 46h1M12 48h1M60 49h1M29 52h1M63 56h1M49 59h1M1 60h1M26 60h1M29 60h1M3 63h1" />
<path stroke="#111316" d="M40 3h1M60 6h1M61 17h1M27 20h1M47 20h1M62 26h1M62 29h1M30 34h1M50 34h1M30 37h1M23 43h1M41 60h1" />
<path stroke="#16171a" d="M42 3h1M1 6h1M43 13h1M63 17h1M29 20h1M49 20h1M56 23h1M46 27h1M32 34h1M52 34h1M32 37h1M25 43h1M6 49h1M61 50h1M43 60h1" />
<path stroke="#141517" d="M44 3h1M3 6h1M60 13h1M30 16h1M31 20h1M51 20h1M58 23h1M2 27h1M33 30h1M34 34h1M54 34h1M34 37h1M27 43h1M8 49h1M56 50h1M13 53h1M44 56h1M45 60h1" />
<path stroke="#202020" d="M31 4h1M30 5h1M51 10h1M50 12h1M54 24h1M53 26h1M45 35h1M44 37h1M21 38h1M20 40h1M14 44h1M32 44h1M13 45h1M31 45h1M60 58h1M59 59h1M60 61h1M59 63h1" />
<path stroke="#1e1e20" d="M36 5h1M11 10h1M14 24h1M62 24h1M50 37h1M26 40h1M19 45h1M0 50h1M25 50h1M4 63h1" />
<path stroke="#1a1c1e" d="M27 7h1M30 21h1M58 35h1M41 47h1M32 61h1" />
<path stroke="#17181b" d="M10 9h1M59 13h1M13 23h1M1 27h1M5 49h1M24 49h1M12 53h1" />
<path stroke="#3d3c33" d="M8 10h1M11 24h1M22 50h1" />
<path stroke="#232323" d="M30 10h1M41 14h1M33 24h1M44 28h1M0 38h1M44 50h1M55 54h1" />
<path stroke="#1e1e1f" d="M5 12h1M19 13h1M8 26h1M22 27h1M19 52h1M33 53h1" />
<path stroke="#1e1e1e" d="M31 12h1M34 26h1M1 40h1M45 52h1" />
<path stroke="#121212" d="M44 12h1M47 26h1M14 40h1" />
<path stroke="#1a1a1d" d="M2 13h1M5 27h1M16 53h1" />
<path stroke="#212121" d="M20 13h1M23 27h1M34 53h1" />
<path stroke="#0c0e11" d="M24 14h1M27 28h1M38 54h1" />
<path stroke="#0c0e10" d="M11 15h1M14 29h1M33 41h1M0 55h1M25 55h1" />
<path stroke="#0e1013" d="M27 15h1M39 16h1M30 29h1M42 30h1M41 55h1M53 56h1" />
<path stroke="#101012" d="M29 16h1M32 30h1M43 56h1" />
</svg>