<svg xmlns="http://www.w3.org/2000/svg" viewBox="0 -0.5 24 24" shape-rendering="crispEdges">
<metadata>Made with Pixels to Svg https://codepen.io/shshaw/pen/XbxvNj</metadata>
<path stroke="#000000" d="M0 0h24M0 1h1M23 1h1M0 2h1M23 2h1M0 3h1M23 3h1M0 4h1M4 4h16M23 4h1M0 5h1M4 5h1M19 5h1M23 5h1M0 6h1M4 6h1M19 6h1M23 6h1M0 7h1M4 7h1M19 7h1M23 7h1M0 8h1M4 8h1M19 8h1M23 8h1M0 9h1M4 9h1M19 9h1M23 9h1M0 10h1M4 10h1M19 10h1M23 10h1M0 11h1M4 11h1M19 11h1M23 11h1M0 12h1M4 12h1M19 12h1M23 12h1M0 13h1M4 13h1M19 13h1M23 13h1M0 14h1M4 14h1M19 14h1M23 14h1M0 15h1M4 15h1M19 15h1M23 15h1M0 16h1M4 16h1M19 16h1M23 16h1M0 17h1M4 17h1M19 17h1M23 17h1M0 18h1M4 18h1M19 18h1M23 18h1M0 19h1M4 19h16M23 19h1M0 20h1M23 20h1M0 21h1M23 21h1M0 22h1M23 22h1M0 23h24" />
<path stroke="#404040" d="M1 1h1M22 1h1M2 2h2M5 2h17M2 3h2M20 3h2M2 4h1M21 4h1M2 5h1M21 5h1M2 6h1M21 6h1M2 7h1M2 8h1M21 8h1M2 9h1M21 9h1M2 10h1M21 10h1M2 11h1M21 11h1M2 12h1M21 12h1M2 13h1M21 13h1M2 14h1M21 14h1M2 15h1M21 15h1M2 16h1M21 16h1M2 17h1M21 17h1M2 18h1M21 18h1M2 19h1M21 19h1M2 20h2M21 20h1M2 21h17M20 21h2M1 22h1M22 22h1" />
<path stroke="#84806a" d="M2 1h20M1 2h1M1 3h1M20 4h1M1 5h1M20 5h1M1 6h1M20 6h1M1 7h1M20 7h1M1 8h1M20 8h1M1 9h1M20 9h1M1 10h1M20 10h1M1 11h1M20 11h1M1 12h1M20 12h1M1 13h1M20 13h1M1 14h1M20 14h1M1 15h1M20 15h1M1 16h1M20 16h1M1 17h1M20 17h1M1 18h1M20 18h1M1 19h1M20 19h1M1 20h1M4 20h17M1 21h1" />
<path stroke="#23252d" d="M4 2h1" />
<path stroke="#2c2f35" d="M22 2h1M4 3h16M22 3h1M3 4h1M22 4h1M3 5h1M22 5h1M3 6h1M22 6h1M3 7h1M22 7h1M3 8h1M22 8h1M3 9h1M22 9h1M3 10h1M22 10h1M3 11h1M22 11h1M3 12h1M22 12h1M3 13h1M22 13h1M3 14h1M22 14h1M3 15h1M22 15h1M3 16h1M22 16h1M3 17h1M22 17h1M3 18h1M22 18h1M3 19h1M22 20h1M22 21h1M2 22h20" />
<path stroke="#42464b" d="M1 4h1" />
<path stroke="#39382e" d="M5 5h1M11 5h1M6 6h1M10 6h1M7 7h2M10 7h1M9 8h1M14 10h1M14 11h1M17 13h1M17 14h1" />
<path stroke="#1c1c1c" d="M6 5h1M9 5h1M12 5h7M7 6h2M11 6h8M5 7h1M11 7h6M18 7h1M5 8h2M10 8h9M5 9h14M5 10h3M9 10h3M15 10h4M5 11h2M8 11h5M15 11h4M5 12h12M18 12h1M5 13h9M15 13h1M18 13h1M5 14h11M18 14h1M5 15h6M12 15h3M17 15h2M5 16h8M14 16h5M5 17h7M13 17h6M5 18h10M16 18h3" />
<path stroke="#1d1e21" d="M7 5h1" />
<path stroke="#262625" d="M8 5h1" />
<path stroke="#131517" d="M10 5h1M5 6h1M9 6h1M6 7h1M9 7h1M7 8h2M13 11h1M17 12h1M16 13h1M16 14h1M15 15h2" />
<path stroke="#111316" d="M17 7h1" />
<path stroke="#555454" d="M21 7h1" />
<path stroke="#121212" d="M8 10h1" />
<path stroke="#262626" d="M12 10h1M15 18h1" />
<path stroke="#1e1e20" d="M13 10h1" />
<path stroke="#16171a" d="M7 11h1" />
<path stroke="#0c0e10" d="M14 13h1" />
<path stroke="#1a1c1e" d="M11 15h1" />
<path stroke="#202020" d="M13 16h1M12 17h1" />
<path stroke="#424448" d="M22 19h1" />
<path stroke="#575756" d="M19 21h1" />
</svg>