<svg xmlns="http://www.w3.org/2000/svg" viewBox="0 -0.5 224 38" shape-rendering="crispEdges"><path stroke="#000" d="M2 2h30m18 0h18m4 0h26m4 0h8m4 0h30m2 0h18m2 0h56M2 3h30m18 0h18m4 0h26m4 0h8m4 0h30m2 0h18m2 0h56M2 4h2m28 0h6m4 0h8m18 0h4m26 0h4m8 0h4m30 0h2m18 0h2m54 0h2M2 5h2m28 0h6m4 0h8m18 0h4m26 0h4m8 0h4m30 0h2m18 0h2m54 0h2M2 6h2m34 0h4m178 0h2M2 7h2m34 0h4m178 0h2M2 8h2m216 0h2M2 9h2m216 0h2M2 10h2m216 0h2M2 11h2m216 0h2M2 12h2m216 0h2M2 13h2m216 0h2M2 14h2m216 0h2M2 15h2m216 0h2M2 16h2m216 0h2M2 17h2m216 0h2M2 18h2m216 0h2M2 19h2m216 0h2M2 20h2m216 0h2M2 21h2m216 0h2M2 22h2m216 0h2M2 23h2m216 0h2M2 24h2m216 0h2M2 25h2m216 0h2M2 26h2m216 0h2M2 27h2m216 0h2M2 28h2m216 0h2M2 29h2m216 0h2M2 30h2m216 0h2M2 31h2m216 0h2M2 32h2m22 0h4m26 0h14m24 0h2m24 0h22m20 0h6m16 0h4m32 0h2M2 33h2m22 0h4m26 0h14m24 0h2m24 0h22m20 0h6m16 0h4m32 0h2M2 34h24m4 0h26m14 0h24m2 0h24m22 0h20m6 0h16m4 0h34M2 35h24m4 0h26m14 0h24m2 0h24m22 0h20m6 0h16m4 0h34"/><path stroke="#404040" d="M4 4h2m46 0h2m28 0h2m36 0h2m30 0h2m56 0h2m6 0h2M4 5h2m46 0h2m28 0h2m36 0h2m30 0h2m56 0h2m6 0h2M6 6h20m2 0h4m18 0h20m4 0h22m6 0h8m4 0h10m4 0h16m4 0h14m4 0h24m4 0h6m2 0h12m2 0h2M6 7h20m2 0h4m18 0h20m4 0h22m6 0h8m4 0h10m4 0h16m4 0h14m4 0h24m4 0h6m2 0h12m2 0h2M6 8h6m6 0h10m6 0h4m4 0h2m2 0h28m4 0h20m4 0h8m4 0h12m2 0h18m4 0h12m4 0h6m2 0h12m6 0h26M6 9h6m6 0h10m6 0h4m4 0h2m2 0h28m4 0h20m4 0h8m4 0h12m2 0h18m4 0h12m4 0h6m2 0h12m6 0h26M4 10h6m8 0h8m4 0h26m2 0h42m4 0h4m4 0h12m4 0h14m2 0h4m2 0h12m4 0h6m4 0h4m2 0h2m4 0h30M4 11h6m8 0h8m4 0h26m2 0h42m4 0h4m4 0h12m4 0h14m2 0h4m2 0h12m4 0h6m4 0h4m2 0h2m4 0h30M6 12h8m4 0h6m4 0h18m2 0h2m4 0h18m2 0h16m2 0h2m2 0h6m10 0h12m6 0h18m2 0h10m4 0h8m6 0h4m4 0h20m6 0h6M6 13h8m4 0h6m4 0h18m2 0h2m4 0h18m2 0h16m2 0h2m2 0h6m10 0h12m6 0h18m2 0h10m4 0h8m6 0h4m4 0h20m6 0h6M6 14h8m4 0h8m2 0h10m2 0h2m2 0h6m6 0h22m2 0h24m6 0h14m6 0h18m2 0h22m4 0h4m2 0h2m2 0h2m2 0h18m4 0h6M6 15h8m4 0h8m2 0h10m2 0h2m2 0h6m6 0h22m2 0h24m6 0h14m6 0h18m2 0h22m4 0h4m2 0h2m2 0h2m2 0h18m4 0h6M6 16h10m2 0h4m4 0h12m2 0h8m4 0h14m2 0h8m2 0h34m2 0h8m2 0h44m2 0h20m2 0h6m2 0h10m2 0h6M6 17h10m2 0h4m4 0h12m2 0h8m4 0h14m2 0h8m2 0h34m2 0h8m2 0h44m2 0h20m2 0h6m2 0h10m2 0h6M6 18h28m4 0h8m4 0h22m2 0h22m2 0h36m2 0h8m4 0h14m4 0h16m2 0h6m6 0h4m2 0h10m2 0h4M6 19h28m4 0h8m4 0h22m2 0h22m2 0h36m2 0h8m4 0h14m4 0h16m2 0h6m6 0h4m2 0h10m2 0h4M6 20h28m4 0h8m4 0h22m2 0h22m2 0h36m2 0h8m4 0h14m4 0h16m2 0h6m6 0h4m2 0h10m2 0h4M6 21h28m4 0h8m4 0h22m2 0h22m2 0h36m2 0h8m4 0h14m4 0h16m2 0h6m6 0h4m2 0h10m2 0h4M8 22h2m2 0h20m4 0h16m2 0h30m8 0h24m2 0h14m4 0h8m6 0h12m2 0h4m4 0h12m2 0h4m4 0h18M8 23h2m2 0h20m4 0h16m2 0h30m8 0h24m2 0h14m4 0h8m6 0h12m2 0h4m4 0h12m2 0h4m4 0h18M6 24h8m2 0h14m4 0h62m2 0h6m2 0h10m2 0h8m4 0h18m4 0h10m4 0h2m4 0h16m6 0h16m2 0h2M6 25h8m2 0h14m4 0h62m2 0h6m2 0h10m2 0h8m4 0h18m4 0h10m4 0h2m4 0h16m6 0h16m2 0h2M6 26h22m4 0h38m2 0h4m6 0h4m2 0h6m4 0h14m2 0h16m2 0h16m6 0h6m4 0h2m4 0h16m4 0h16m2 0h4m2 0h6M6 27h22m4 0h38m2 0h4m6 0h4m2 0h6m4 0h14m2 0h16m2 0h16m6 0h6m4 0h2m4 0h16m4 0h16m2 0h4m2 0h6M6 28h14m2 0h6m4 0h46m4 0h12m2 0h2m2 0h24m2 0h24m4 0h12m4 0h16m4 0h28M6 29h14m2 0h6m4 0h46m4 0h12m2 0h2m2 0h24m2 0h24m4 0h12m4 0h16m4 0h28M6 30h20m6 0h20m2 0h2m14 0h8m4 0h12m6 0h20m22 0h2m2 0h6m2 0h8m8 0h6m2 0h6m6 0h8m2 0h18M6 31h20m6 0h20m2 0h2m14 0h8m4 0h12m6 0h20m22 0h2m2 0h6m2 0h8m8 0h6m2 0h6m6 0h8m2 0h18M30 32h2m38 0h2m70 0h2m16 0h2m56 0h2M30 33h2m38 0h2m70 0h2m16 0h2m56 0h2"/><path stroke="#89825b" d="M6 4h26m18 0h2m2 0h14m4 0h10m2 0h14m4 0h8m4 0h6m2 0h22m2 0h6m2 0h10m2 0h32m2 0h10m2 0h6M6 5h26m18 0h2m2 0h14m4 0h10m2 0h14m4 0h8m4 0h6m2 0h22m2 0h6m2 0h10m2 0h32m2 0h10m2 0h6M4 6h2m26 0h6m4 0h8m20 0h4m22 0h6m8 0h4m10 0h4m16 0h4m16 0h2m24 0h4M4 7h2m26 0h6m4 0h8m20 0h4m22 0h6m8 0h4m10 0h4m16 0h4m16 0h2m24 0h4M4 8h2m24 0h4m4 0h4m32 0h4m22 0h2m10 0h2m12 0h2m20 0h2m14 0h2m22 0h4M4 9h2m24 0h4m4 0h4m32 0h4m22 0h2m10 0h2m12 0h2m20 0h2m14 0h2m22 0h4M16 10h2m10 0h2m72 0h2m6 0h2m14 0h2m20 0h2m14 0h2m8 0h2m10 0h2M16 11h2m10 0h2m72 0h2m6 0h2m14 0h2m20 0h2m14 0h2m8 0h2m10 0h2M4 12h2m10 0h2m8 0h2m24 0h2m50 0h4m2 0h2m16 0h2m32 0h2m10 0h2m8 0h2m24 0h2M4 13h2m10 0h2m8 0h2m24 0h2m50 0h4m2 0h2m16 0h2m32 0h2m10 0h2m8 0h2m24 0h2M4 14h2m20 0h2m24 0h2m54 0h2m18 0h2m54 0h2m24 0h2M4 15h2m20 0h2m24 0h2m54 0h2m18 0h2m54 0h2m24 0h2M4 16h2m44 0h2M4 17h2m44 0h2M4 18h2m30 0h2m96 0h2m28 0h2m28 0h2M4 19h2m30 0h2m96 0h2m28 0h2m28 0h2M4 20h2m30 0h2m96 0h2m28 0h2m28 0h2M4 21h2m30 0h2m96 0h2m28 0h2m28 0h2M4 22h2m28 0h2m98 0h2m8 0h4m22 0h2m20 0h2m18 0h2M4 23h2m28 0h2m98 0h2m8 0h4m22 0h2m20 0h2m18 0h2M4 24h2m26 0h2m116 0h2m12 0h2m4 0h2m18 0h2m22 0h4M4 25h2m26 0h2m116 0h2m12 0h2m4 0h2m18 0h2m22 0h4M4 26h2m24 0h2m48 0h2m14 0h2m54 0h2m14 0h2m18 0h2M4 27h2m24 0h2m48 0h2m14 0h2m54 0h2m14 0h2m18 0h2M4 28h2m24 0h2m48 0h2m70 0h2m14 0h2m18 0h2M4 29h2m24 0h2m48 0h2m70 0h2m14 0h2m18 0h2M4 30h2m74 0h2m70 0h2m14 0h2m18 0h2M4 31h2m74 0h2m70 0h2m14 0h2m18 0h2"/><path stroke="#474747" d="M198 4h2m-2 1h2m-76 9h2m-2 1h2M4 32h2m-2 1h2"/><path stroke="#333" d="M26 6h2m-2 1h2"/><path stroke="#2b303b" d="M162 6h2m54 0h2m-58 1h2m54 0h2M12 8h4m12 0h2m68 0h2m10 0h2m34 0h2m14 0h2m8 0h2m12 0h2m30 0h2M12 9h4m12 0h2m68 0h2m10 0h2m34 0h2m14 0h2m8 0h2m12 0h2m30 0h2M14 10h2m10 0h2m72 0h2m6 0h2m14 0h2m36 0h2m8 0h2m10 0h2m32 0h2M14 11h2m10 0h2m72 0h2m6 0h2m14 0h2m36 0h2m8 0h2m10 0h2m32 0h2M14 12h2m8 0h2m24 0h2m50 0h2m4 0h2m14 0h4m20 0h2m10 0h2m10 0h2m8 0h2m24 0h2m8 0h2M14 13h2m8 0h2m24 0h2m50 0h2m4 0h2m14 0h4m20 0h2m10 0h2m10 0h2m8 0h2m24 0h2m8 0h2M14 14h4m32 0h2m52 0h4m18 0h2m44 0h4m32 0h2m8 0h2M14 15h4m32 0h2m52 0h4m18 0h2m44 0h4m32 0h2m8 0h2M16 16h2m30 0h2m160 0h2m6 0h2M16 17h2m30 0h2m160 0h2m6 0h2M34 18h2m60 0h2m46 0h4m14 0h2m28 0h2m18 0h2m4 0h2M34 19h2m60 0h2m46 0h4m14 0h2m28 0h2m18 0h2m4 0h2M34 20h2m60 0h2m46 0h4m14 0h2m28 0h2m18 0h2m4 0h2M34 21h2m60 0h2m46 0h4m14 0h2m28 0h2m18 0h2m4 0h2M32 22h2m98 0h2m14 0h2m12 0h2m4 0h2m20 0h2m22 0h6M32 23h2m98 0h2m14 0h2m12 0h2m4 0h2m20 0h2m22 0h6M30 24h2m64 0h2m50 0h2m12 0h2m4 0h2m18 0h2m28 0h2M30 25h2m64 0h2m50 0h2m12 0h2m4 0h2m18 0h2m28 0h2M28 26h2m48 0h2m14 0h2m52 0h4m14 0h2m18 0h2M28 27h2m48 0h2m14 0h2m52 0h4m14 0h2m18 0h2M28 28h2m48 0h2m14 0h2m54 0h2m14 0h2m18 0h2m30 0h2M28 29h2m48 0h2m14 0h2m54 0h2m14 0h2m18 0h2m30 0h2M26 30h6m24 0h14m8 0h2m14 0h4m22 0h22m20 0h6m16 0h4m30 0h2M26 31h6m24 0h14m8 0h2m14 0h4m22 0h22m20 0h6m16 0h4m30 0h2M6 32h20m6 0h24m16 0h22m2 0h4m2 0h18m24 0h16m8 0h16m6 0h28M6 33h20m6 0h24m16 0h22m2 0h4m2 0h18m24 0h16m8 0h16m6 0h28"/><path stroke="#303030" d="M200 6h2m-2 1h2m-18 15h2m-2 1h2m-24 3h2m-2 1h2"/><path stroke="#3e3e3e" d="M214 6h2m-2 1h2M22 16h2m14 0h2m-18 1h2m14 0h2m158 13h2m-2 1h2"/><path stroke="#383838" d="M16 8h2m-2 1h2m58 7h2m-2 1h2m-32 1h2m-2 1h2m-2 1h2m-2 1h2"/><path stroke="#2c2c2c" d="M44 8h2m-2 1h2m134 1h2m-2 1h2M48 18h2m-2 1h2m-2 1h2m-2 1h2"/><path stroke="#4d4d4d" d="M10 10h2m-2 1h2m104 11h2m-2 1h2"/><path stroke="#444" d="M12 10h2m-2 1h2m32 1h2m-2 1h2"/><path stroke="#3f3f3f" d="M56 10h2m-2 1h2"/><path stroke="#313131" d="M142 10h2m-2 1h2"/><path stroke="#2f2f2f" d="M72 12h2m-2 1h2m4 1h2m100 0h2M78 15h2m100 0h2"/><path stroke="#4a4a4a" d="M90 12h2m-2 1h2m90 5h2m-2 1h2m-2 1h2m-2 1h2m-68 3h2m-2 1h2"/><path stroke="#343434" d="M94 12h2m-2 1h2m34 13h2m-2 1h2"/><path stroke="#353535" d="M176 12h2m-2 1h2"/><path stroke="#393939" d="M206 12h2m-2 1h2"/><path stroke="#2e2e2e" d="M38 14h2m-2 1h2"/><path stroke="#434343" d="M42 14h2m-2 1h2m54 13h2m-2 1h2"/><path stroke="#454545" d="M54 14h2m-2 1h2m70 9h2m-2 1h2M20 28h2m-2 1h2"/><path stroke="#363636" d="M148 14h2m-2 1h2m48 1h2m-2 1h2M86 26h2m-2 1h2"/><path stroke="#414141" d="M188 14h2m-2 1h2m-86 9h2m-2 1h2m100 1h2m-2 1h2"/><path stroke="#373737" d="M24 16h2m-2 1h2m46 1h2m-2 1h2m-2 1h2m-2 1h2"/><path stroke="#424242" d="M66 16h2m-2 1h2"/><path stroke="#232323" d="M112 16h2m-2 1h2"/><path stroke="#555" d="M122 16h2m-2 1h2"/><path stroke="#202020" d="M168 16h2m-2 1h2"/><path stroke="#464646" d="M190 16h2m-2 1h2M88 22h2m-2 1h2"/><path stroke="#323232" d="M190 18h2m-2 1h2m-2 1h2m-2 1h2"/><path stroke="#505050" d="M200 18h2m-2 1h2m-2 1h2m-2 1h2"/><path stroke="#6a6a6a" d="M6 22h2m-2 1h2"/><path stroke="#2a2a2a" d="M10 22h2m-2 1h2"/><path stroke="#272727" d="M52 22h2m-2 1h2"/><path stroke="#282828" d="M84 22h2m-2 1h2"/><path stroke="#5f5f5f" d="M86 22h2m-2 1h2"/><path stroke="#525252" d="M90 22h2m-2 1h2"/><path stroke="#262626" d="M14 24h2m-2 1h2"/><path stroke="#1d1d1d" d="M128 24h2m-2 1h2"/><path stroke="#1c1c1c" d="M192 24h2m-2 1h2"/><path stroke="#4b4b4b" d="M210 24h2m-2 1h2"/><path stroke="#4f4f4f" d="M70 26h2m-2 1h2"/><path stroke="#030303" d="M76 26h2m-2 1h2"/><path stroke="#3b3b3b" d="M112 26h2m-2 1h2"/><path stroke="#515151" d="M160 26h2m50 0h2m-54 1h2m50 0h2"/><path stroke="#1b1b1b" d="M124 28h2m-2 1h2"/><path stroke="#2d2d2d" d="M52 30h2m-2 1h2"/><path stroke="#484848" d="M98 30h2m-2 1h2"/><path stroke="#3d3d3d" d="M144 30h2m-2 1h2"/><path stroke="#3a3a3a" d="M176 30h2m-2 1h2"/><path stroke="#4e4e4e" d="M100 32h2m-2 1h2"/><path stroke="#242424" d="M188 32h2m-2 1h2"/></svg>