<svg xmlns="http://www.w3.org/2000/svg" viewBox="0 -0.5 122 116" shape-rendering="crispEdges">
<metadata>Made with Pixels to Svg https://codepen.io/shshaw/pen/XbxvNj</metadata>
<path stroke="#000000" d="M0 0h1M121 0h1M0 1h1M121 1h1M0 2h1M121 2h1M0 3h1M121 3h1M0 4h1M121 4h1M0 5h1M121 5h1M0 6h1M121 6h1M0 7h1M121 7h1M0 8h1M121 8h1M0 9h1M121 9h1M0 10h1M121 10h1M0 11h1M121 11h1M0 12h1M50 12h1M121 12h1M0 13h1M84 13h1M121 13h1M0 14h1M121 14h1M0 15h1M121 15h1M0 16h1M121 16h1M0 17h1M121 17h1M0 18h1M121 18h1M0 19h1M121 19h1M0 20h1M42 20h1M121 20h1M0 21h1M121 21h1M0 22h1M121 22h1M0 23h1M121 23h1M0 24h1M121 24h1M0 25h1M121 25h1M0 26h1M121 26h1M0 27h1M8 27h1M121 27h1M0 28h1M121 28h1M0 29h1M121 29h1M0 30h1M107 30h1M121 30h1M0 31h1M4 31h1M121 31h1M0 32h1M121 32h1M0 33h1M121 33h1M0 34h1M101 34h1M121 34h1M0 35h1M121 35h1M0 36h1M121 36h1M0 37h1M121 37h1M0 38h1M48 38h1M121 38h1M0 39h1M121 39h1M0 40h1M121 40h1M0 41h1M121 41h1M0 42h1M121 42h1M0 43h1M121 43h1M0 44h1M121 44h1M0 45h1M121 45h1M0 46h1M3 46h1M121 46h1M0 47h1M121 47h1M0 48h1M121 48h1M0 49h1M121 49h1M0 50h1M119 50h1M121 50h1M0 51h1M121 51h1M0 52h1M121 52h1M0 53h1M121 53h1M0 54h1M103 54h1M121 54h1M0 55h1M121 55h1M0 56h1M121 56h1M0 57h1M116 57h1M121 57h1M0 58h1M121 58h1M0 59h1M121 59h1M0 60h1M121 60h1M0 61h1M79 61h1M121 61h1M0 62h1M121 62h1M0 63h1M33 63h1M121 63h1M0 64h1M121 64h1M0 65h1M121 65h1M0 66h1M121 66h1M0 67h1M121 67h1M0 68h1M121 68h1M0 69h1M121 69h1M0 70h1M121 70h1M0 71h1M121 71h1M0 72h1M121 72h1M0 73h1M121 73h1M0 74h1M121 74h1M0 75h1M121 75h1M0 76h1M121 76h1M0 77h1M121 77h1M0 78h1M121 78h1M0 79h1M121 79h1M0 80h1M121 80h1M0 81h1M121 81h1M0 82h1M121 82h1M0 83h1M121 83h1M0 84h1M121 84h1M0 85h1M121 85h1M0 86h1M121 86h1M0 87h1M121 87h1M0 88h1M121 88h1M0 89h1M121 89h1M0 90h1M60 90h1M121 90h1M0 91h1M121 91h1M0 92h1M121 92h1M0 93h1M48 93h1M121 93h1M0 94h1M121 94h1M0 95h1M121 95h1M0 96h1M121 96h1M0 97h1M72 97h1M121 97h1M0 98h1M121 98h1M0 99h1M121 99h1M0 100h1M121 100h1M0 101h1M97 101h1M121 101h1M0 102h1M121 102h1M0 103h1M121 103h1M0 104h1M121 104h1M0 105h1M121 105h1M0 106h1M121 106h1M0 107h1M121 107h1M0 108h1M121 108h1M0 109h1M121 109h1M0 110h1M121 110h1M0 111h1M121 111h1M0 112h1M121 112h1M0 113h3M119 113h3M2 114h1M119 114h1M2 115h118" />
<path stroke="#3e3c32" d="M1 0h1M31 0h1M37 0h1M77 0h1M83 0h1M106 0h1M116 0h1M1 1h1M31 1h1M37 1h1M77 1h1M83 1h1M106 1h1M116 1h1M1 2h1M31 2h1M36 2h1M77 2h1M82 2h1M106 2h1M117 2h1M119 2h1M1 3h1M30 3h1M76 3h1M106 3h1M117 3h1M1 4h1M8 4h1M35 4h1M40 4h1M45 4h1M54 4h1M81 4h1M86 4h1M101 4h1M105 4h1M117 4h1M1 5h1M8 5h1M39 5h1M45 5h1M54 5h1M85 5h1M101 5h1M118 5h1M1 6h1M8 6h1M38 6h1M54 6h1M84 6h1M119 6h1M1 7h1M8 7h1M17 7h1M38 7h1M54 7h1M63 7h1M84 7h1M1 8h1M8 8h1M17 8h1M28 8h1M54 8h1M63 8h1M74 8h1M1 9h1M18 9h1M29 9h1M64 9h1M75 9h1M1 10h1M18 10h1M29 10h1M43 10h2M64 10h1M75 10h1M99 10h2M1 11h1M46 11h1M102 11h1M1 12h1M40 12h1M86 12h1M103 12h1M107 12h1M115 12h1M1 13h1M9 13h1M40 13h1M55 13h1M86 13h1M103 13h1M107 13h1M115 13h1M1 14h1M10 14h1M20 14h1M56 14h1M66 14h1M103 14h1M106 14h1M116 14h1M1 15h1M10 15h1M21 15h1M56 15h1M67 15h1M104 15h1M107 15h1M115 15h2M1 16h1M10 16h1M21 16h1M56 16h1M67 16h1M104 16h1M107 16h1M116 16h1M1 17h1M11 17h1M27 17h1M57 17h1M73 17h1M104 17h1M117 17h1M1 18h1M11 18h1M57 18h1M1 19h1M11 19h1M57 19h1M95 19h1M1 20h1M95 20h1M114 20h1M1 21h1M42 21h1M88 21h1M1 22h1M12 22h1M21 22h1M27 22h1M42 22h1M67 22h1M73 22h1M88 22h1M1 23h1M21 23h1M42 23h1M67 23h1M88 23h1M105 23h1M1 24h1M13 24h1M21 24h1M23 24h1M43 24h1M67 24h1M69 24h1M99 24h1M109 24h1M1 25h1M13 25h1M21 25h1M24 25h1M43 25h1M67 25h1M70 25h1M99 25h1M1 26h1M13 26h1M24 26h1M70 26h1M102 26h1M112 26h1M1 27h1M14 27h1M46 27h1M102 27h1M112 27h1M1 28h1M12 28h1M18 28h1M37 28h1M47 28h1M64 28h1M83 28h1M1 29h1M12 29h1M48 29h1M1 30h1M11 30h1M21 30h1M49 30h2M67 30h1M1 31h1M21 31h1M26 31h1M67 31h1M72 31h1M112 31h1M1 32h1M112 32h1M1 33h1M12 33h1M58 33h1M112 33h1M1 34h1M5 34h1M13 34h1M21 34h1M51 34h1M59 34h1M67 34h1M113 34h1M1 35h1M13 35h1M21 35h1M40 35h1M59 35h1M67 35h1M86 35h1M104 35h2M1 36h1M14 36h1M24 36h1M32 36h1M40 36h1M60 36h1M70 36h1M78 36h1M86 36h1M1 37h1M14 37h1M25 37h1M29 37h1M32 37h1M39 37h1M60 37h1M71 37h1M75 37h1M78 37h1M85 37h1M106 37h1M1 38h1M14 38h1M25 38h1M29 38h1M33 38h1M60 38h1M71 38h1M75 38h1M79 38h1M106 38h1M1 39h1M12 39h2M25 39h1M28 39h1M33 39h1M58 39h2M71 39h1M74 39h1M79 39h1M107 39h1M1 40h1M26 40h1M33 40h1M43 40h1M72 40h1M79 40h1M99 40h1M107 40h1M1 41h1M34 41h1M43 41h1M80 41h1M99 41h1M1 42h1M34 42h1M80 42h1M110 42h1M1 43h1M34 43h1M80 43h1M110 43h1M1 44h1M34 44h1M80 44h1M1 45h1M34 45h1M41 45h1M80 45h1M87 45h1M115 45h1M1 46h1M27 46h1M40 46h1M42 46h1M73 46h1M86 46h1M88 46h1M116 46h1M1 47h1M31 47h1M37 47h1M77 47h1M83 47h1M106 47h1M116 47h1M1 48h1M31 48h1M36 48h1M77 48h1M82 48h1M106 48h1M117 48h1M119 48h1M1 49h1M33 49h1M39 49h1M76 49h1M106 49h1M117 49h1M1 50h1M33 50h1M38 50h1M54 50h1M81 50h1M86 50h1M101 50h1M105 50h1M117 50h1M1 51h1M32 51h1M54 51h1M85 51h1M101 51h1M118 51h1M1 52h1M10 52h1M37 52h1M42 52h1M54 52h1M84 52h1M94 52h1M119 52h1M1 53h1M10 53h1M41 53h1M54 53h1M63 53h1M84 53h1M94 53h1M1 54h1M10 54h1M40 54h1M54 54h1M63 54h1M74 54h1M94 54h1M1 55h1M10 55h1M19 55h1M40 55h1M64 55h1M75 55h1M94 55h1M1 56h1M10 56h1M19 56h1M30 56h1M64 56h1M75 56h1M93 56h2M99 56h2M1 57h1M20 57h1M31 57h1M102 57h1M1 58h1M20 58h1M31 58h1M86 58h1M103 58h1M107 58h1M115 58h1M1 59h1M55 59h1M86 59h1M103 59h1M107 59h1M115 59h1M1 60h1M42 60h1M56 60h1M66 60h1M103 60h1M106 60h1M116 60h1M1 61h1M11 61h1M42 61h1M56 61h1M67 61h1M104 61h1M107 61h1M115 61h2M1 62h1M12 62h1M22 62h1M56 62h1M67 62h1M104 62h1M107 62h1M116 62h1M1 63h1M12 63h1M23 63h1M57 63h1M73 63h1M104 63h1M117 63h1M1 64h1M12 64h1M23 64h1M57 64h1M1 65h1M13 65h1M29 65h1M57 65h1M1 66h1M13 66h1M114 66h1M1 67h1M13 67h1M83 67h1M98 67h1M1 68h1M58 68h1M67 68h1M73 68h1M83 68h1M98 68h1M1 69h1M44 69h1M67 69h1M84 69h1M98 69h1M105 69h1M1 70h1M14 70h1M23 70h1M29 70h1M44 70h1M59 70h1M67 70h1M69 70h1M85 70h1M99 70h1M109 70h1M1 71h1M23 71h1M44 71h1M59 71h1M67 71h1M70 71h1M86 71h1M99 71h1M1 72h1M15 72h1M23 72h1M25 72h1M47 72h1M59 72h1M70 72h1M86 72h1M102 72h1M112 72h1M1 73h1M15 73h1M23 73h1M26 73h1M47 73h1M60 73h1M102 73h1M112 73h1M1 74h1M15 74h1M26 74h1M45 74h1M47 74h1M58 74h1M64 74h1M93 74h1M1 75h2M16 75h1M45 75h1M48 75h1M58 75h1M1 76h1M3 76h1M14 76h1M20 76h1M39 76h1M45 76h1M49 76h2M57 76h1M67 76h1M1 77h1M4 77h1M14 77h1M46 77h1M67 77h1M72 77h1M112 77h1M1 78h1M5 78h2M13 78h1M23 78h1M112 78h1M1 79h1M23 79h1M28 79h1M58 79h1M112 79h1M1 80h1M51 80h1M59 80h1M67 80h1M113 80h1M1 81h1M14 81h1M59 81h1M67 81h1M86 81h1M93 81h1M104 81h2M1 82h1M7 82h1M15 82h1M23 82h1M60 82h1M70 82h1M78 82h1M86 82h1M1 83h1M15 83h1M23 83h1M42 83h1M60 83h1M71 83h1M75 83h1M78 83h1M85 83h1M106 83h1M1 84h1M16 84h1M26 84h1M34 84h1M42 84h1M60 84h1M71 84h1M75 84h1M79 84h1M106 84h1M1 85h1M16 85h1M27 85h1M31 85h1M34 85h1M41 85h1M58 85h2M71 85h1M74 85h1M79 85h1M107 85h1M1 86h1M16 86h1M27 86h1M31 86h1M35 86h1M72 86h1M79 86h1M99 86h1M107 86h1M115 86h1M1 87h1M14 87h2M27 87h1M30 87h1M35 87h1M80 87h1M99 87h1M115 87h1M1 88h1M28 88h1M35 88h1M80 88h1M110 88h1M115 88h1M1 89h1M36 89h1M80 89h1M110 89h1M116 89h1M1 90h1M36 90h1M80 90h1M115 90h1M1 91h1M36 91h1M80 91h1M115 91h1M1 92h1M36 92h1M73 92h1M86 92h1M116 92h1M1 93h1M36 93h1M43 93h1M61 93h1M69 93h1M87 93h1M100 93h1M112 93h1M116 93h1M1 94h1M29 94h1M42 94h1M44 94h1M61 94h1M101 94h1M112 94h1M1 95h1M17 95h1M25 95h1M43 95h1M60 95h1M70 95h1M101 95h1M112 95h1M119 95h1M1 96h1M17 96h1M47 96h1M61 96h1M70 96h1M101 96h1M111 96h1M119 96h1M1 97h1M16 97h1M26 97h1M47 97h1M61 97h1M70 97h1M76 97h1M91 97h1M102 97h1M119 97h1M1 98h1M3 98h1M17 98h1M26 98h1M45 98h1M56 98h1M67 98h1M102 98h1M108 98h1M114 98h1M1 99h1M3 99h1M17 99h1M26 99h1M32 99h1M45 99h1M56 99h1M67 99h1M77 99h1M87 99h1M102 99h1M108 99h1M113 99h1M1 100h1M12 100h1M23 100h1M57 100h1M77 100h1M113 100h1M1 101h1M12 101h1M23 101h1M33 101h1M43 101h1M60 101h1M66 101h1M72 101h1M77 101h1M117 101h2M1 102h1M13 102h1M33 102h1M61 102h1M65 102h1M72 102h1M78 102h1M108 102h1M1 103h1M22 103h1M28 103h1M33 103h1M62 103h2M65 103h1M76 103h1M82 103h1M101 103h2M108 103h1M113 103h1M119 103h1M1 104h1M21 104h1M28 104h1M34 104h1M64 104h1M76 104h1M104 104h1M107 104h1M113 104h1M118 104h1M1 105h1M21 105h1M32 105h1M38 105h1M75 105h1M85 105h1M118 105h1M1 106h1M1 107h1M1 108h1M20 108h1M32 108h1M85 108h1M1 109h1M31 109h1M41 109h1M108 109h1M1 110h1M41 110h1M76 110h1M88 110h1M111 110h1M1 111h1M58 111h1M79 111h1M88 111h1M108 111h1M111 111h1M32 112h1M44 112h1M76 112h1M79 112h1M88 112h1M110 112h1M14 113h1M35 113h1M44 113h1M56 113h1M77 113h1M86 113h1M106 113h1M109 113h1" />
<path stroke="#1e1e1e" d="M2 0h28M32 0h4M38 0h38M78 0h4M84 0h21M107 0h8M117 0h3M2 1h28M32 1h4M38 1h38M78 1h4M84 1h18M103 1h2M107 1h8M117 1h3M2 2h8M11 2h1M13 2h5M19 2h2M22 2h1M24 2h6M32 2h3M37 2h19M57 2h1M59 2h5M65 2h4M70 2h6M78 2h3M83 2h2M86 2h20M107 2h5M113 2h3M2 3h16M19 3h3M23 3h6M31 3h33M65 3h3M69 3h6M77 3h28M107 3h4M112 3h5M2 4h5M9 4h26M36 4h3M41 4h3M46 4h7M55 4h26M82 4h3M87 4h13M102 4h3M106 4h10M118 4h2M2 5h5M9 5h29M40 5h5M46 5h7M55 5h29M86 5h15M102 5h15M119 5h1M2 6h5M9 6h25M35 6h2M39 6h14M55 6h25M81 6h2M85 6h33M2 7h5M9 7h7M18 7h9M28 7h6M36 7h2M39 7h2M42 7h6M49 7h4M55 7h7M64 7h9M74 7h6M81 7h3M85 7h34M2 8h5M9 8h7M18 8h9M29 8h5M35 8h18M55 8h7M64 8h7M72 8h1M75 8h5M81 8h38M2 9h5M8 9h9M19 9h10M30 9h13M45 9h8M54 9h9M65 9h9M76 9h23M101 9h14M116 9h4M2 10h15M19 10h9M30 10h13M46 10h17M65 10h9M76 10h23M102 10h18M2 11h38M41 11h2M44 11h1M47 11h39M87 11h14M103 11h12M116 11h4M2 12h37M41 12h4M47 12h3M51 12h34M87 12h14M104 12h2M108 12h6M116 12h4M2 13h6M10 13h4M15 13h3M19 13h20M41 13h5M47 13h7M56 13h28M87 13h15M104 13h3M108 13h6M116 13h4M4 14h4M11 14h8M21 14h18M40 14h8M50 14h4M57 14h8M67 14h18M86 14h17M104 14h1M107 14h8M117 14h3M2 15h7M11 15h9M22 15h33M57 15h9M68 15h35M105 15h1M108 15h7M117 15h3M2 16h7M11 16h10M22 16h33M57 16h10M68 16h14M83 16h21M105 16h2M108 16h7M117 16h3M2 17h6M12 17h15M28 17h27M58 17h15M74 17h29M105 17h10M118 17h2M2 18h8M12 18h44M58 18h62M2 19h8M13 19h43M59 19h35M96 19h18M115 19h5M2 20h40M43 20h47M91 20h3M96 20h17M115 20h5M2 21h10M13 21h28M43 21h44M89 21h25M115 21h5M2 22h9M13 22h6M22 22h5M28 22h6M35 22h7M43 22h22M68 22h5M74 22h6M81 22h7M89 22h31M2 23h9M12 23h8M22 23h19M43 23h23M68 23h17M86 23h1M89 23h16M106 23h14M2 24h10M14 24h5M24 24h17M44 24h22M70 24h17M89 24h10M100 24h8M110 24h10M2 25h11M14 25h6M22 25h1M25 25h18M44 25h22M68 25h1M71 25h28M100 25h20M2 26h10M14 26h10M25 26h45M71 26h31M103 26h9M113 26h7M2 27h6M9 27h3M15 27h30M47 27h54M103 27h8M113 27h7M2 28h9M13 28h4M19 28h18M40 28h7M48 28h15M65 28h18M86 28h4M91 28h29M2 29h9M13 29h34M49 29h71M2 30h8M12 30h9M22 30h4M27 30h21M51 30h16M68 30h4M73 30h34M108 30h12M2 31h2M5 31h15M22 31h1M24 31h2M27 31h22M51 31h14M68 31h4M73 31h19M93 31h18M113 31h7M2 32h93M96 32h16M113 32h7M2 33h9M13 33h44M59 33h45M105 33h6M113 33h7M2 34h3M6 34h5M14 34h6M22 34h29M52 34h5M61 34h5M68 34h33M102 34h9M114 34h6M2 35h11M14 35h4M22 35h17M41 35h11M53 35h6M60 35h4M68 35h17M87 35h16M106 35h14M2 36h11M15 36h8M25 36h7M34 36h6M41 36h18M61 36h8M71 36h7M80 36h6M87 36h16M104 36h16M2 37h12M15 37h9M26 37h2M30 37h2M34 37h4M40 37h20M61 37h9M72 37h2M76 37h2M80 37h4M86 37h18M105 37h1M107 37h13M2 38h11M15 38h10M26 38h2M30 38h3M35 38h13M49 38h10M61 38h10M72 38h2M76 38h3M81 38h14M96 38h3M100 38h5M107 38h13M2 39h10M14 39h10M26 39h1M29 39h4M35 39h23M60 39h10M72 39h1M75 39h4M81 39h24M108 39h12M2 40h10M13 40h12M27 40h6M35 40h7M44 40h27M73 40h6M81 40h7M89 40h10M100 40h6M108 40h2M111 40h9M2 41h2M5 41h21M27 41h7M36 41h7M44 41h6M51 41h18M70 41h2M73 41h7M82 41h17M100 41h20M2 42h32M36 42h34M71 42h9M82 42h28M111 42h3M116 42h4M2 43h32M36 43h44M82 43h27M111 43h9M2 44h21M24 44h10M36 44h5M42 44h27M70 44h10M82 44h5M88 44h24M113 44h7M2 45h32M36 45h5M43 45h8M52 45h28M82 45h5M89 45h26M116 45h4M2 46h1M4 46h19M24 46h3M29 46h10M41 46h1M44 46h25M70 46h3M75 46h10M87 46h1M89 46h10M100 46h15M117 46h3M2 47h28M32 47h4M38 47h24M63 47h13M78 47h4M84 47h21M107 47h8M117 47h3M2 48h8M11 48h1M13 48h5M19 48h4M24 48h6M32 48h3M37 48h19M57 48h1M59 48h5M65 48h4M70 48h6M78 48h3M83 48h23M107 48h5M113 48h3M2 49h30M34 49h4M40 49h24M65 49h3M69 49h6M77 49h28M107 49h4M112 49h5M2 50h10M13 50h1M15 50h5M21 50h4M26 50h6M34 50h3M39 50h14M55 50h26M82 50h3M87 50h13M102 50h3M106 50h10M118 50h1M2 51h18M21 51h3M25 51h6M33 51h20M55 51h29M86 51h15M102 51h15M119 51h1M2 52h7M11 52h8M20 52h17M38 52h3M43 52h10M56 52h8M65 52h15M81 52h2M85 52h9M96 52h22M2 53h7M11 53h1M13 53h27M42 53h11M55 53h7M64 53h9M74 53h6M81 53h3M85 53h8M95 53h24M2 54h7M11 54h25M37 54h2M41 54h12M55 54h5M61 54h1M64 54h9M75 54h5M81 54h12M95 54h8M104 54h16M2 55h7M11 55h7M20 55h9M30 55h6M37 55h3M41 55h12M54 55h9M65 55h9M76 55h17M95 55h4M101 55h14M116 55h4M2 56h7M12 56h6M20 56h10M31 56h5M37 56h26M65 56h9M76 56h11M88 56h4M95 56h4M102 56h18M2 57h7M10 57h9M21 57h9M32 57h54M87 57h14M103 57h3M107 57h8M117 57h3M2 58h10M13 58h6M21 58h9M32 58h53M87 58h14M105 58h1M108 58h6M116 58h4M2 59h40M43 59h11M56 59h29M87 59h15M104 59h3M108 59h6M116 59h4M3 60h38M43 60h5M50 60h4M57 60h8M67 60h18M86 60h17M104 60h1M107 60h8M117 60h3M2 61h8M12 61h29M43 61h12M57 61h9M68 61h11M80 61h23M105 61h1M108 61h7M117 61h3M2 62h2M6 62h4M13 62h5M19 62h2M23 62h18M42 62h4M47 62h8M57 62h1M59 62h8M68 62h36M105 62h2M108 62h7M117 62h3M2 63h3M6 63h5M13 63h9M24 63h9M34 63h21M58 63h15M74 63h29M105 63h10M118 63h2M2 64h9M13 64h10M24 64h32M58 64h56M115 64h4M2 65h9M14 65h15M30 65h21M52 65h4M59 65h9M69 65h51M2 66h10M14 66h97M112 66h1M115 66h5M2 67h10M15 67h25M41 67h17M59 67h3M63 67h19M84 67h13M99 67h15M115 67h5M2 68h30M33 68h19M53 68h3M59 68h6M68 68h5M74 68h8M84 68h6M91 68h7M99 68h21M2 69h12M15 69h28M45 69h12M58 69h8M68 69h15M85 69h8M94 69h3M99 69h6M106 69h14M2 70h11M15 70h6M24 70h5M30 70h6M37 70h7M45 70h13M60 70h6M70 70h14M86 70h7M94 70h3M100 70h8M110 70h10M2 71h11M14 71h8M24 71h12M37 71h6M45 71h14M60 71h6M68 71h1M71 71h14M87 71h12M100 71h20M2 72h7M10 72h4M16 72h6M26 72h17M45 72h2M48 72h2M51 72h7M60 72h10M71 72h14M87 72h15M103 72h9M113 72h7M2 73h13M16 73h6M24 73h1M27 73h20M48 73h10M61 73h40M103 73h8M113 73h7M2 74h12M16 74h10M27 74h18M46 74h1M48 74h9M59 74h4M65 74h28M96 74h6M103 74h17M3 75h11M17 75h28M46 75h1M49 75h8M59 75h3M63 75h57M5 76h8M15 76h4M21 76h8M30 76h9M42 76h3M46 76h2M51 76h5M58 76h9M68 76h4M73 76h47M2 77h1M5 77h8M15 77h30M47 77h2M51 77h15M68 77h4M73 77h38M113 77h7M2 78h2M7 78h5M14 78h9M24 78h4M29 78h17M47 78h65M113 78h7M2 79h3M7 79h15M24 79h4M29 79h28M59 79h15M75 79h29M105 79h6M113 79h7M2 80h49M52 80h5M60 80h6M68 80h43M114 80h6M2 81h11M15 81h44M60 81h4M68 81h17M87 81h5M94 81h9M106 81h14M2 82h5M8 82h5M16 82h6M24 82h35M61 82h8M71 82h7M80 82h6M87 82h16M104 82h16M2 83h13M16 83h4M24 83h17M43 83h17M61 83h9M72 83h2M76 83h2M80 83h4M86 83h18M105 83h1M107 83h13M2 84h13M17 84h8M27 84h7M36 84h6M43 84h1M45 84h14M61 84h10M72 84h2M76 84h3M81 84h24M107 84h13M2 85h14M17 85h9M28 85h2M32 85h2M36 85h4M42 85h16M60 85h10M72 85h1M75 85h4M81 85h24M108 85h12M2 86h13M17 86h10M29 86h1M32 86h3M37 86h34M73 86h6M81 86h7M89 86h10M100 86h6M108 86h7M116 86h4M2 87h5M8 87h6M16 87h10M28 87h1M31 87h4M37 87h13M51 87h21M73 87h7M82 87h8M91 87h8M100 87h15M116 87h1M118 87h2M2 88h25M29 88h6M37 88h7M45 88h35M82 88h28M111 88h4M116 88h4M2 89h4M7 89h21M29 89h7M38 89h42M82 89h27M111 89h4M117 89h3M2 90h33M38 90h3M42 90h18M61 90h8M70 90h10M82 90h33M116 90h4M2 91h26M29 91h7M38 91h21M60 91h20M82 91h21M104 91h11M116 91h4M2 92h23M26 92h10M38 92h5M45 92h24M70 92h3M75 92h10M87 92h28M117 92h3M2 93h34M38 93h4M45 93h3M49 93h11M62 93h6M70 93h16M88 93h12M101 93h10M113 93h2M117 93h3M2 94h23M26 94h3M31 94h4M36 94h5M43 94h1M45 94h16M62 94h2M65 94h3M69 94h18M88 94h12M102 94h9M114 94h6M2 95h14M18 95h6M26 95h16M44 95h15M61 95h8M71 95h29M102 95h9M113 95h5M2 96h13M16 96h1M18 96h6M25 96h18M44 96h3M48 96h12M62 96h8M71 96h5M77 96h24M102 96h8M112 96h6M2 97h13M17 97h8M27 97h20M48 97h13M62 97h7M71 97h1M73 97h2M77 97h13M92 97h6M99 97h2M103 97h4M108 97h6M115 97h4M2 98h1M4 98h12M18 98h8M27 98h5M33 98h12M46 98h10M57 98h9M68 98h7M76 98h26M103 98h4M109 98h4M115 98h5M2 99h1M4 99h13M18 99h7M27 99h4M33 99h12M46 99h9M57 99h10M68 99h8M78 99h1M80 99h6M88 99h13M103 99h4M109 99h3M114 99h6M2 100h4M7 100h4M13 100h9M24 100h6M32 100h23M58 100h19M79 100h8M88 100h12M101 100h6M109 100h4M114 100h3M119 100h1M2 101h9M13 101h10M24 101h8M34 101h8M44 101h15M61 101h4M67 101h5M73 101h3M78 101h1M80 101h17M98 101h19M2 102h9M14 102h19M34 102h9M44 102h16M62 102h2M66 102h5M73 102h1M75 102h1M79 102h22M103 102h4M109 102h3M113 102h6M2 103h19M23 103h5M29 103h3M34 103h16M51 103h10M66 103h5M73 103h2M77 103h4M83 103h18M104 103h3M109 103h3M114 103h4M2 104h18M22 104h5M29 104h3M35 104h27M65 104h7M73 104h2M77 104h26M105 104h1M108 104h4M114 104h3M119 104h1M2 105h4M7 105h13M22 105h5M29 105h2M33 105h4M39 105h35M76 105h9M86 105h17M105 105h7M114 105h4M119 105h1M2 106h118M2 107h118M2 108h18M21 108h7M29 108h2M33 108h25M59 108h20M80 108h4M86 108h18M105 108h15M2 109h28M32 109h9M42 109h32M75 109h32M109 109h11M2 110h4M7 110h7M15 110h25M42 110h16M59 110h16M77 110h10M89 110h16M106 110h1M108 110h2M112 110h8M2 111h55M59 111h16M76 111h3M80 111h8M89 111h18M109 111h1M112 111h8M1 112h1M4 112h10M15 112h16M33 112h9M45 112h12M58 112h17M77 112h2M80 112h7M89 112h20M111 112h7M4 113h9M15 113h16M32 113h3M36 113h8M45 113h10M57 113h16M74 113h3M78 113h8M87 113h18M107 113h1M110 113h8" />
<path stroke="#151619" d="M30 0h1M36 0h1M76 0h1M82 0h1M105 0h1M115 0h1M30 1h1M36 1h1M76 1h1M82 1h1M105 1h1M115 1h1M18 2h1M30 2h1M35 2h1M64 2h1M76 2h1M81 2h1M116 2h1M29 3h1M75 3h1M105 3h1M7 4h1M39 4h1M44 4h1M53 4h1M85 4h1M100 4h1M116 4h1M7 5h1M38 5h1M53 5h1M84 5h1M117 5h1M7 6h1M34 6h1M37 6h1M53 6h1M80 6h1M83 6h1M118 6h1M7 7h1M16 7h1M27 7h1M34 7h1M53 7h1M62 7h1M73 7h1M80 7h1M119 7h1M7 8h1M16 8h1M27 8h1M34 8h1M53 8h1M62 8h1M73 8h1M80 8h1M7 9h1M17 9h1M43 9h2M53 9h1M63 9h1M74 9h1M99 9h2M115 9h1M17 10h1M28 10h1M45 10h1M63 10h1M74 10h1M101 10h1M40 11h1M45 11h1M86 11h1M101 11h1M115 11h1M39 12h1M45 12h2M85 12h1M101 12h2M106 12h1M114 12h1M8 13h1M39 13h1M46 13h1M54 13h1M85 13h1M102 13h1M114 13h1M2 14h2M8 14h2M19 14h1M39 14h1M48 14h2M54 14h2M65 14h1M85 14h1M105 14h1M115 14h1M9 15h1M20 15h1M55 15h1M66 15h1M103 15h1M106 15h1M9 16h1M55 16h1M115 16h1M9 17h2M55 17h2M103 17h1M115 17h2M10 18h1M56 18h1M10 19h1M12 19h1M56 19h1M58 19h1M94 19h1M94 20h1M113 20h1M12 21h1M41 21h1M87 21h1M114 21h1M11 22h1M19 22h2M34 22h1M65 22h2M80 22h1M11 23h1M20 23h1M41 23h1M66 23h1M87 23h1M12 24h1M20 24h1M22 24h1M41 24h2M66 24h1M68 24h1M87 24h2M108 24h1M20 25h1M23 25h1M66 25h1M69 25h1M12 26h1M12 27h2M45 27h1M101 27h1M111 27h1M11 28h1M17 28h1M38 28h2M63 28h1M84 28h2M11 29h1M47 29h1M10 30h1M26 30h1M48 30h1M72 30h1M20 31h1M49 31h2M66 31h1M111 31h1M11 33h1M57 33h1M104 33h1M111 33h1M11 34h2M20 34h1M57 34h2M66 34h1M111 34h2M18 35h3M39 35h1M64 35h3M85 35h1M103 35h1M13 36h1M23 36h1M33 36h1M59 36h1M69 36h1M79 36h1M103 36h1M24 37h1M28 37h1M33 37h1M38 37h1M70 37h1M74 37h1M79 37h1M84 37h1M104 37h1M13 38h1M28 38h1M34 38h1M59 38h1M74 38h1M80 38h1M105 38h1M24 39h1M27 39h1M34 39h1M70 39h1M73 39h1M80 39h1M105 39h2M25 40h1M34 40h1M42 40h1M71 40h1M80 40h1M88 40h1M106 40h1M4 41h1M26 41h1M35 41h1M50 41h1M72 41h1M81 41h1M35 42h1M81 42h1M35 43h1M81 43h1M109 43h1M23 44h1M35 44h1M41 44h1M69 44h1M81 44h1M87 44h1M35 45h1M42 45h1M81 45h1M88 45h1M23 46h1M28 46h1M39 46h1M43 46h1M69 46h1M74 46h1M85 46h1M99 46h1M115 46h1M30 47h1M36 47h1M76 47h1M82 47h1M105 47h1M115 47h1M18 48h1M30 48h1M35 48h1M64 48h1M76 48h1M81 48h1M116 48h1M32 49h1M38 49h1M75 49h1M105 49h1M20 50h1M32 50h1M37 50h1M53 50h1M85 50h1M100 50h1M116 50h1M31 51h1M53 51h1M84 51h1M117 51h1M9 52h1M41 52h1M53 52h1M80 52h1M83 52h1M95 52h1M118 52h1M9 53h1M40 53h1M53 53h1M62 53h1M73 53h1M80 53h1M93 53h1M119 53h1M9 54h1M36 54h1M39 54h1M53 54h1M62 54h1M73 54h1M80 54h1M93 54h1M9 55h1M18 55h1M29 55h1M36 55h1M53 55h1M63 55h1M74 55h1M93 55h1M99 55h2M115 55h1M9 56h1M18 56h1M36 56h1M63 56h1M74 56h1M92 56h1M101 56h1M9 57h1M19 57h1M30 57h1M86 57h1M101 57h1M115 57h1M19 58h1M30 58h1M85 58h1M101 58h2M106 58h1M114 58h1M42 59h1M54 59h1M85 59h1M102 59h1M114 59h1M2 60h1M41 60h1M48 60h2M54 60h2M65 60h1M85 60h1M105 60h1M115 60h1M10 61h1M41 61h1M55 61h1M66 61h1M103 61h1M106 61h1M4 62h2M10 62h2M21 62h1M41 62h1M46 62h1M55 62h1M115 62h1M11 63h1M22 63h1M55 63h2M103 63h1M115 63h2M11 64h1M56 64h1M11 65h2M56 65h1M58 65h1M12 66h1M113 66h1M12 67h1M14 67h1M58 67h1M82 67h1M97 67h1M114 67h1M57 68h1M65 68h2M82 68h1M90 68h1M14 69h1M43 69h1M57 69h1M66 69h1M83 69h1M97 69h1M13 70h1M21 70h2M36 70h1M58 70h1M66 70h1M68 70h1M84 70h1M97 70h2M108 70h1M13 71h1M22 71h1M43 71h1M66 71h1M69 71h1M85 71h1M14 72h1M22 72h1M24 72h1M43 72h2M58 72h1M85 72h1M22 73h1M25 73h1M58 73h2M101 73h1M111 73h1M14 74h1M57 74h1M63 74h1M94 74h2M14 75h2M47 75h1M57 75h1M2 76h1M13 76h1M19 76h1M40 76h2M48 76h1M56 76h1M72 76h1M3 77h1M13 77h1M45 77h1M49 77h2M66 77h1M111 77h1M4 78h1M12 78h1M28 78h1M46 78h1M5 79h2M22 79h1M57 79h1M104 79h1M111 79h1M57 80h2M66 80h1M111 80h2M13 81h1M64 81h3M85 81h1M92 81h1M103 81h1M13 82h2M22 82h1M59 82h1M69 82h1M79 82h1M103 82h1M20 83h3M41 83h1M70 83h1M74 83h1M79 83h1M84 83h1M104 83h1M15 84h1M25 84h1M35 84h1M59 84h1M74 84h1M80 84h1M105 84h1M26 85h1M30 85h1M35 85h1M40 85h1M70 85h1M73 85h1M80 85h1M105 85h2M15 86h1M30 86h1M36 86h1M71 86h1M80 86h1M88 86h1M106 86h1M26 87h1M29 87h1M36 87h1M50 87h1M72 87h1M81 87h1M27 88h1M36 88h1M44 88h1M81 88h1M6 89h1M28 89h1M37 89h1M81 89h1M109 89h1M115 89h1M37 90h1M69 90h1M81 90h1M37 91h1M81 91h1M25 92h1M37 92h1M43 92h1M69 92h1M74 92h1M85 92h1M115 92h1M37 93h1M44 93h1M60 93h1M68 93h1M86 93h1M111 93h1M115 93h1M25 94h1M30 94h1M41 94h1M68 94h1M87 94h1M100 94h1M111 94h1M16 95h1M24 95h1M42 95h1M59 95h1M69 95h1M100 95h1M111 95h1M24 96h1M43 96h1M60 96h1M76 96h1M110 96h1M118 96h1M15 97h1M25 97h1M69 97h1M75 97h1M90 97h1M101 97h1M107 97h1M114 97h1M16 98h1M32 98h1M66 98h1M75 98h1M107 98h1M113 98h1M25 99h1M31 99h1M55 99h1M76 99h1M86 99h1M101 99h1M107 99h1M112 99h1M22 100h1M31 100h1M55 100h2M87 100h1M107 100h2M117 100h2M11 101h1M32 101h1M42 101h1M59 101h1M65 101h1M76 101h1M119 101h1M11 102h2M43 102h1M60 102h1M64 102h1M71 102h1M76 102h2M101 102h2M107 102h1M112 102h1M119 102h1M21 103h1M32 103h1M50 103h1M61 103h1M64 103h1M71 103h2M75 103h1M81 103h1M103 103h1M107 103h1M112 103h1M118 103h1M20 104h1M27 104h1M32 104h2M62 104h2M72 104h1M75 104h1M103 104h1M106 104h1M112 104h1M117 104h1M6 105h1M20 105h1M27 105h2M31 105h1M37 105h1M74 105h1M103 105h2M112 105h2M28 108h1M31 108h1M58 108h1M84 108h1M104 108h1M30 109h1M107 109h1M14 110h1M40 110h1M58 110h1M75 110h1M87 110h1M107 110h1M110 110h1M57 111h1M75 111h1M107 111h1M110 111h1M14 112h1M31 112h1M43 112h1M57 112h1M75 112h1M87 112h1M109 112h1M13 113h1M31 113h1M55 113h1M73 113h1M105 113h1M108 113h1" />
<path stroke="#18191a" d="M120 0h1M120 1h1M120 2h1M118 3h1M120 3h1M120 4h1M120 5h1M120 6h1M120 7h1M120 8h1M120 9h1M120 10h1M120 11h1M120 12h1M120 13h1M120 14h1M120 15h1M120 16h1M120 17h1M120 18h1M120 19h1M120 20h1M120 21h1M120 22h1M120 23h1M120 24h1M120 25h1M120 26h1M120 27h1M120 28h1M120 29h1M120 30h1M120 31h1M120 32h1M120 33h1M120 34h1M120 35h1M120 36h1M120 37h1M120 38h1M120 39h1M120 40h1M120 41h1M120 42h1M120 43h1M120 44h1M120 45h1M120 46h1M120 47h1M120 48h1M118 49h1M120 49h1M120 50h1M120 51h1M120 52h1M120 53h1M120 54h1M120 55h1M120 56h1M120 57h1M120 58h1M120 59h1M120 60h1M120 61h1M120 62h1M120 63h1M120 64h1M120 65h1M120 66h1M120 67h1M120 68h1M120 69h1M120 70h1M120 71h1M120 72h1M120 73h1M120 74h1M120 75h1M120 76h1M120 77h1M120 78h1M120 79h1M120 80h1M120 81h1M120 82h1M120 83h1M120 84h1M120 85h1M120 86h1M120 87h1M120 88h1M120 89h1M120 90h1M120 91h1M120 92h1M120 93h1M120 94h1M120 95h1M120 96h1M120 97h1M120 98h1M120 99h1M120 100h1M120 101h1M120 102h1M120 103h1M120 104h1M120 105h1M120 106h1M120 107h1M120 108h1M120 109h1M120 110h1M120 111h1M2 112h2M118 112h3M3 113h1M118 113h1M3 114h116" />
<path stroke="#363636" d="M102 1h1" />
<path stroke="#212121" d="M10 2h1M56 2h1M70 42h1M10 48h1M56 48h1M12 50h1" />
<path stroke="#272727" d="M12 2h1M58 2h1M12 48h1M58 48h1M14 50h1M87 56h1M9 72h1M113 94h1M98 97h1" />
<path stroke="#191919" d="M21 2h1" />
<path stroke="#131313" d="M23 2h1M69 2h1M23 48h1M69 48h1M25 50h1" />
<path stroke="#353535" d="M85 2h1" />
<path stroke="#242424" d="M112 2h1M111 3h1M112 48h1M111 49h1M93 69h1" />
<path stroke="#212224" d="M118 2h1M118 48h1" />
<path stroke="#202122" d="M18 3h1M64 3h1M64 49h1M20 51h1" />
<path stroke="#191a1d" d="M22 3h1M68 3h1M68 49h1M24 51h1" />
<path stroke="#31312a" d="M119 3h1M119 49h1" />
<path stroke="#232323" d="M35 7h1" />
<path stroke="#292929" d="M41 7h1M52 35h1" />
<path stroke="#303030" d="M48 7h1M74 102h1" />
<path stroke="#2e2e2e" d="M71 8h1M11 56h1" />
<path stroke="#202020" d="M119 8h1M90 20h1M18 62h1" />
<path stroke="#616161" d="M43 11h1" />
<path stroke="#4d4d4d" d="M14 13h1M90 28h1" />
<path stroke="#4e4e4e" d="M18 13h1M93 70h1" />
<path stroke="#020202" d="M82 16h1M19 24h1M100 100h1" />
<path stroke="#0e0e0e" d="M8 17h1M119 64h1M40 67h1M79 108h1" />
<path stroke="#0a0a0a" d="M114 19h1M15 96h1" />
<path stroke="#2f2f2f" d="M85 23h1M4 76h1" />
<path stroke="#1b1b1b" d="M23 31h1M112 44h1M7 87h1M74 109h1" />
<path stroke="#1f1f1f" d="M65 31h1" />
<path stroke="#1d1d1d" d="M92 31h1M60 34h1" />
<path stroke="#545454" d="M95 32h1" />
<path stroke="#373737" d="M95 38h1M69 41h1" />
<path stroke="#111111" d="M99 38h1M58 62h1" />
<path stroke="#010101" d="M12 40h1M6 100h1" />
<path stroke="#030303" d="M110 40h1M104 58h1" />
<path stroke="#2b2b2b" d="M114 42h1M5 63h1" />
<path stroke="#1c1c1c" d="M115 42h1" />
<path stroke="#040404" d="M51 45h1" />
<path stroke="#0c0c0c" d="M62 47h1" />
<path stroke="#454545" d="M19 52h1M55 52h1M78 100h1" />
<path stroke="#2c2c2c" d="M64 52h1M68 65h1" />
<path stroke="#404040" d="M12 53h1" />
<path stroke="#282828" d="M60 54h1M6 110h1" />
<path stroke="#161616" d="M106 57h1M32 68h1M35 90h1" />
<path stroke="#313131" d="M12 58h1" />
<path stroke="#090909" d="M114 64h1" />
<path stroke="#101010" d="M51 65h1M52 68h1" />
<path stroke="#181818" d="M111 66h1M102 74h1" />
<path stroke="#070707" d="M62 67h1M35 94h1" />
<path stroke="#484848" d="M56 68h1" />
<path stroke="#505050" d="M36 71h1" />
<path stroke="#1a1a1a" d="M50 72h1M44 92h1" />
<path stroke="#121212" d="M62 75h1" />
<path stroke="#171717" d="M29 76h1" />
<path stroke="#3a3a3a" d="M74 79h1" />
<path stroke="#222222" d="M44 84h1" />
<path stroke="#2d2d2d" d="M28 86h1" />
<path stroke="#393939" d="M90 87h1" />
<path stroke="#2a2a2a" d="M117 87h1M105 110h1" />
<path stroke="#3c3c3c" d="M41 90h1" />
<path stroke="#3b3b3b" d="M28 91h1" />
<path stroke="#3e3e3e" d="M59 91h1" />
<path stroke="#444444" d="M103 91h1" />
<path stroke="#151515" d="M42 93h1" />
<path stroke="#262626" d="M64 94h1M79 99h1" />
<path stroke="#3d3d3d" d="M118 95h1" />
<path stroke="#535353" d="M11 100h1" />
<path stroke="#525252" d="M30 100h1" />
<path stroke="#080808" d="M79 101h1" />
<path stroke="#606060" d="M42 112h1" />
</svg>