<svg xmlns="http://www.w3.org/2000/svg" viewBox="0 -0.5 26 26" shape-rendering="crispEdges"><path stroke="#000" d="M4 10h4m10 0h4M4 11h4m10 0h4M2 12h2m4 0h2m6 0h2m4 0h2M2 13h2m4 0h2m6 0h2m4 0h2M2 14h2m4 0h2m6 0h2m4 0h2M2 15h2m4 0h2m6 0h2m4 0h2M4 16h4m10 0h4M4 17h4m10 0h4"/><path stroke="#edff93" d="M4 12h2m-2 1h2"/><path stroke="#4cff00" d="M6 12h2m-2 1h2m-4 1h2m-2 1h2"/><path stroke="#191919" d="M10 12h4m-4 1h4m-4 1h4m-4 1h4"/><path stroke="#ffeb93" d="M18 12h2m-2 1h2"/><path stroke="#ff7f00" d="M20 12h2m-2 1h2m-4 1h2m-2 1h2"/><path stroke="#2d9946" d="M6 14h2m-2 1h2"/><path stroke="#c96240" d="M20 14h2m-2 1h2"/></svg>