<svg xmlns="http://www.w3.org/2000/svg" viewBox="0 -0.5 112 18" shape-rendering="crispEdges"><path stroke="#000" d="M1 1h11m1 0h21m2 0h29m2 0h5m1 0h9m1 0h28M1 2h1m10 0h1m21 0h2m29 0h2m5 0h1m9 0h1m27 0h1M1 3h1m108 0h1M1 4h1m108 0h1M1 5h1m108 0h1M2 6h1m106 0h1M2 7h1m106 0h1M3 8h1m104 0h1M3 9h1m104 0h1M2 10h1m106 0h1M2 11h1m106 0h1M1 12h1m108 0h1M1 13h1m108 0h1M1 14h1m108 0h1M1 15h1m45 0h1m45 0h1m16 0h1M1 16h110"/><path stroke="#2c2c2c" d="M2 2h1m106 0h1M3 3h2m1 0h6m1 0h3m3 0h15m5 0h23m5 0h5m2 0h7m2 0h26M3 4h1m1 0h11m1 0h19m3 0h4m1 0h8m2 0h8m2 0h9m2 0h6m2 0h15m2 0h9M3 5h27m1 0h24m1 0h6m2 0h10m1 0h3m1 0h2m2 0h18m1 0h7M4 6h5m2 0h14m2 0h1m1 0h3m1 0h1m1 0h8m1 0h8m1 0h5m1 0h3m3 0h5m1 0h1m1 0h1m1 0h5m2 0h2m2 0h1m1 0h10m1 0h9M4 7h5m2 0h14m2 0h19m1 0h15m3 0h19m2 0h6m1 0h15M5 8h3m3 0h14m2 0h3m2 0h3m1 0h14m1 0h1m2 0h7m1 0h9m1 0h3m1 0h8m2 0h3m1 0h1m1 0h4m1 0h1m2 0h4m1 0h2M5 9h11m3 0h1m1 0h9m1 0h3m1 0h7m1 0h5m1 0h6m1 0h4m1 0h1m1 0h2m3 0h4m2 0h7m2 0h7m1 0h3m1 0h6m1 0h3M4 10h12m2 0h11m1 0h3m1 0h13m2 0h3m1 0h6m1 0h6m2 0h4m3 0h3m2 0h1m2 0h5m1 0h4m2 0h3m1 0h5M4 11h11m3 0h1m1 0h1m1 0h11m1 0h12m1 0h1m1 0h2m1 0h1m1 0h3m1 0h16m2 0h3m1 0h1m2 0h9m1 0h1m1 0h2m1 0h1m1 0h4m2 0h1M3 12h11m2 0h20m1 0h2m2 0h4m1 0h1m2 0h13m1 0h11m3 0h16m2 0h8m2 0h4M3 13h10m2 0h14m4 0h5m3 0h6m2 0h6m1 0h19m2 0h11m2 0h3m2 0h6m1 0h1m2 0h2m1 0h1M3 14h10m2 0h24m2 0h6m2 0h4m2 0h18m1 0h2m1 0h16m2 0h4m2 0h2m2 0h1m1 0h2M2 15h1m106 0h1"/><path stroke="#5a5849" d="M3 2h9m1 0h7m1 0h5m1 0h7m2 0h1m1 0h3m1 0h14m1 0h3m1 0h1m1 0h2m2 0h5m1 0h3m1 0h5m1 0h2m1 0h4m1 0h11m1 0h6M2 3h1m9 0h1m4 0h1m16 0h2m27 0h1m1 0h2m6 0h1m8 0h1M2 4h1m13 0h1m20 0h2m24 0h1m10 0h1m7 0h1M2 5h1m60 0h1m10 0h1m7 0h1M3 6h1m6 0h1m15 0h1m37 0h1m16 0h1m3 0h1M3 7h1m6 0h1m15 0h1m37 0h1m20 0h1M4 8h1m5 0h1M4 9h1m13 0h1m48 0h1m14 0h1M3 10h1m13 0h1m49 0h1m4 0h2m31 0h3M3 11h1m12 0h1m58 0h1m6 0h1m22 0h1m1 0h1M2 12h1m12 0h1m24 0h1m7 0h1m27 0h1m17 0h1m9 0h1M2 13h1m11 0h1m25 0h1m35 0h1m27 0h1M2 14h1m11 0h1m25 0h1m7 0h1m27 0h1m17 0h1m9 0h1m-92 1h1m26 0h1m7 0h1m45 0h1"/><path stroke="#222327" d="M20 2h1"/><path stroke="#1a1e20" d="M26 2h1m58 0h1"/><path stroke="#1e2025" d="M37 2h1m24 0h1M16 3h1m19 0h1m25 0h1m9 0h1m8 0h1m27 0h1M73 4h1m7 0h1m27 0h1M62 5h1m18 0h1m27 0h1M9 6h1m15 0h1m36 0h2m16 0h1m3 0h1m23 0h1M9 7h1m15 0h1m58 0h1m23 0h1M8 8h2m97 0h1M17 9h1m30 0h1m23 0h2m7 0h1m12 0h1m11 0h2m-92 1h1m49 0h1m7 0h1m6 0h1m22 0h1m3 0h1m-94 1h1m58 0h1m6 0h1m22 0h1m3 0h1m-95 1h1m24 0h1m7 0h1m26 0h2m17 0h1m9 0h1m-91 1h1m16 0h3m14 0h1m27 0h1m13 0h1m3 0h1m9 0h1m5 0h1m-97 1h1m25 0h1m7 0h1m45 0h1m9 0h1m5 0h1M3 15h10m1 0h26m1 0h6m2 0h1m1 0h20m1 0h8m1 0h12m2 0h1m1 0h12"/><path stroke="#212328" d="M41 2h1"/><path stroke="#131518" d="M56 2h1m45 0h1"/><path stroke="#1c1f24" d="M60 2h1m29 0h1"/><path stroke="#636153" d="M76 2h1"/><path stroke="#18191f" d="M5 3h1"/><path stroke="#191c20" d="M18 3h1"/><path stroke="#2d2f32" d="M37 3h1m67 6h1m3 3h1"/><path stroke="#646154" d="M38 3h1"/><path stroke="#3c3c3b" d="M64 3h1M43 4h1m9 0h1m45 0h1M73 14h1m32 0h1"/><path stroke="#393939" d="M4 4h1m37 5h1m36 2h1m-25 2h1m45 0h1"/><path stroke="#2a2c30" d="M36 4h1"/><path stroke="#303034" d="M52 4h1m45 0h1"/><path stroke="#202227" d="M62 4h1"/><path stroke="#2e2d30" d="M30 5h1"/><path stroke="#3d3c3b" d="M55 5h1m45 0h1M30 8h1"/><path stroke="#3d3d3c" d="M78 5h1M58 6h1m6 3h1"/><path stroke="#2f2e2f" d="M28 6h1m58 0h1"/><path stroke="#1b1819" d="M32 6h1"/><path stroke="#383835" d="M34 6h1"/><path stroke="#3b3b3a" d="M43 6h1"/><path stroke="#1b1d23" d="M52 6h1m45 0h1"/><path stroke="#1b1e23" d="M70 6h1"/><path stroke="#252529" d="M72 6h1"/><path stroke="#1f2025" d="M74 6h1"/><path stroke="#3d3e3e" d="M46 7h1m45 0h1"/><path stroke="#0d0a0b" d="M62 7h1"/><path stroke="#2a2929" d="M63 7h1"/><path stroke="#1f2325" d="M25 8h1m58 0h1"/><path stroke="#16151a" d="M26 8h1m58 0h1"/><path stroke="#29282a" d="M31 8h1m57 0h1"/><path stroke="#3b3b3f" d="M35 8h1"/><path stroke="#272525" d="M50 8h1m45 0h1"/><path stroke="#3d3d3d" d="M52 8h1m45 0h1M16 9h1"/><path stroke="#373936" d="M53 8h1m45 0h1"/><path stroke="#1c1c1f" d="M61 8h1m29 0h1"/><path stroke="#3a3a39" d="M71 8h1m-39 2h1"/><path stroke="#101115" d="M75 8h1"/><path stroke="#1d1e23" d="M104 8h1"/><path stroke="#232529" d="M20 9h1"/><path stroke="#2c2a2c" d="M30 9h1m22 2h1m45 0h1"/><path stroke="#252525" d="M34 9h1"/><path stroke="#383736" d="M55 9h1m45 0h1"/><path stroke="#302f2e" d="M60 9h1m29 0h1"/><path stroke="#40403e" d="M62 9h1"/><path stroke="#303133" d="M66 9h1"/><path stroke="#1f1f23" d="M29 10h1m58 0h1"/><path stroke="#1d1e1e" d="M47 10h1m45 0h1"/><path stroke="#313235" d="M48 10h1m45 0h1"/><path stroke="#23252a" d="M52 10h1m45 0h1"/><path stroke="#3c3b3b" d="M59 10h1"/><path stroke="#25262b" d="M78 10h1"/><path stroke="#1f2125" d="M79 10h1m-41 3h1"/><path stroke="#29292d" d="M82 10h1"/><path stroke="#404245" d="M17 11h1"/><path stroke="#3a3939" d="M19 11h1"/><path stroke="#3c3b3a" d="M21 11h1"/><path stroke="#13151a" d="M33 11h1"/><path stroke="#1e1c1e" d="M46 11h1m45 0h1"/><path stroke="#1e2024" d="M48 11h1m45 0h1"/><path stroke="#231f21" d="M51 11h1m45 0h1"/><path stroke="#2e3236" d="M57 11h1"/><path stroke="#16191e" d="M36 12h1"/><path stroke="#32312f" d="M45 12h1"/><path stroke="#2d3034" d="M62 12h1"/><path stroke="#3b3a39" d="M29 13h1m58 0h1"/><path stroke="#18181d" d="M38 13h1"/><path stroke="#181b1e" d="M48 13h1m45 0h1m-42 1h1m45 0h1"/><path stroke="#292c2e" d="M107 13h1"/><path stroke="#2c2d31" d="M54 14h1m45 0h1"/><path stroke="#2f3133" d="M50 15h1m20 0h1m24 0h1"/><path stroke="#16171c" d="M80 15h1"/></svg>