<svg xmlns="http://www.w3.org/2000/svg" viewBox="0 -0.5 16 16" shape-rendering="crispEdges"><path stroke="#000" d="M2 0h12M1 1h1m12 0h1M0 2h1m14 0h1M0 3h1m9 0h2m3 0h1M0 4h1m8 0h1m2 0h1m2 0h1M0 5h1m7 0h1m3 0h1m2 0h1M0 6h1m6 0h1m3 0h1m3 0h1M0 7h1m5 0h1m3 0h1m4 0h1M0 8h1m4 0h1m3 0h1m5 0h1M0 9h1m3 0h1m3 0h1m6 0h1M0 10h1m2 0h1m3 0h1m7 0h1M0 11h1m2 0h1m2 0h1m8 0h1M0 12h1m2 0h3m9 0h1M0 13h1m14 0h1M1 14h1m12 0h1M2 15h12"/><path stroke="#39372e" d="M2 1h1"/><path stroke="#535143" d="M3 1h11M1 2h1M1 3h1m5 0h1M6 4h1M1 5h1m2 0h1M1 6h1m1 0h1M1 7h1M1 8h1M1 9h1m10 0h1M1 10h1m9 0h1M1 11h1m8 0h1M1 12h1m7 0h1m3 0h1M1 13h1m3 0h1m6 0h1"/><path stroke="#282828" d="M2 2h3m2 0h7M2 3h4m2 0h2m2 0h2M3 4h2m2 0h2m4 0h1M2 5h1m2 0h3m5 0h1M4 6h3m5 0h2M2 7h4m6 0h2M2 8h3m5 0h1m1 0h2M2 9h1m6 0h2m2 0h1M2 10h1m5 0h1m3 0h2M2 11h1m4 0h2m2 0h3m-7 1h1m2 0h2M2 13h2m2 0h5m2 0h1m-3 1h1"/><path stroke="#1f1f1f" d="M5 2h1M2 4h1"/><path stroke="#262626" d="M6 2h1"/><path stroke="#1c1e21" d="M14 2h1M6 3h1m7 0h1M5 4h1m8 0h1M3 5h1m10 0h1M2 6h1m11 0h1m-1 1h1m-1 1h1m-4 1h1m2 0h1m-5 1h1m3 0h1m-6 1h1m4 0h1m-7 1h1m3 0h1m1 0h1M4 13h1m6 0h1m2 0h1M2 14h9m1 0h2"/><path stroke="#1e2023" d="M1 4h1"/><path stroke="#dd44c9" d="M10 4h2m-2 1h2"/><path stroke="gray" d="M9 5h1m0 1h1"/><path stroke="#fb0" d="M8 6h2M7 7h3M6 8h3M5 9h3m-3 1h2"/><path stroke="#1a1a1a" d="M11 7h1m-1 1h1"/><path stroke="#252525" d="M3 9h1"/><path stroke="#bc7e47" d="M4 10h1m-1 1h2"/><path stroke="#191919" d="M9 10h1"/><path stroke="#1e1e1e" d="M2 12h1"/><path stroke="#212121" d="M6 12h1"/></svg>