<svg xmlns="http://www.w3.org/2000/svg" viewBox="0 -0.5 26 26" shape-rendering="crispEdges"><path stroke="#000" d="M8 2h8M8 3h8M6 4h2m8 0h8M6 5h2m8 0h8M6 6h2m16 0h2M6 7h2m16 0h2M6 8h2m10 0h2m4 0h2M6 9h2m10 0h2m4 0h2M4 10h2m12 0h4m2 0h2M4 11h2m12 0h4m2 0h2M4 12h2m8 0h6m2 0h2M4 13h2m8 0h6m2 0h2M4 14h2m8 0h2m8 0h2M4 15h2m8 0h2m8 0h2M2 16h2m4 0h8m8 0h2M2 17h2m4 0h8m8 0h2M2 18h2m4 0h2m4 0h6m2 0h2M2 19h2m4 0h2m4 0h6m2 0h2M2 20h2m4 0h2m8 0h4M2 21h2m4 0h2m8 0h4M4 22h4m10 0h2M4 23h4m10 0h2"/><path stroke="gray" d="M8 4h2M8 5h2M8 6h2M8 7h2M8 8h2M8 9h2m-4 1h2m-2 1h2m-2 1h2m-2 1h2m-2 1h2m-2 1h2m-4 1h2m-2 1h2m-2 1h2m-2 1h2m-2 1h2m-2 1h2"/><path stroke="#3e4256" d="M10 4h2m-2 1h2m-2 1h2m-2 1h2m-2 1h2m-2 1h2m-4 1h2m-2 1h2m-2 1h2m-2 1h2m-2 1h2m-2 1h2m-4 1h2m-2 1h2m-2 1h2m-2 1h2m-2 1h2m-2 1h2"/><path stroke="#fff" d="M12 4h2m-2 1h2m-2 1h2m-2 1h2m-2 1h2m-2 1h2m-4 1h2m-2 1h2m-2 1h2m-2 1h2m-2 1h2m-2 1h2"/><path stroke="#d0e8e8" d="M14 4h2m-2 1h2m-2 1h2m6 0h2M14 7h2m6 0h2M14 8h2m6 0h2M14 9h2m6 0h2m-12 1h2m8 0h2m-12 1h2m8 0h2m-12 1h2m-2 1h2m-2 1h2m-2 1h2"/><path stroke="#b5c9c9" d="M16 6h2m2 0h2m-6 1h2m2 0h2m-6 1h2m2 0h2m-6 1h2m2 0h2m-8 1h4m-4 1h4"/><path stroke="#9dadad" d="M18 6h2m-2 1h2"/><path stroke="#d82020" d="M20 12h2m-2 1h2m-4 1h4m-4 1h4m-6 1h4m-4 1h4"/><path stroke="#ff8263" d="M16 14h2m-2 1h2"/><path stroke="#8e435c" d="M22 14h2m-2 1h2m-4 1h4m-4 1h4m-4 1h2m-2 1h2"/></svg>