<svg xmlns="http://www.w3.org/2000/svg" viewBox="0 -0.5 16 16" shape-rendering="crispEdges"><path stroke="#000" d="M2 0h12M1 1h1m12 0h1M0 2h1m14 0h1M0 3h1m2 0h10m2 0h1M0 4h1m2 0h1m8 0h1m2 0h1M0 5h1m2 0h1m8 0h1m2 0h1M0 6h1m2 0h1m8 0h1m2 0h1M0 7h1m2 0h1m8 0h1m2 0h1M0 8h1m2 0h1m8 0h1m2 0h1M0 9h1m2 0h1m8 0h1m2 0h1M0 10h1m2 0h1m8 0h1m2 0h1M0 11h1m2 0h1m8 0h1m2 0h1M0 12h1m2 0h10m2 0h1M0 13h1m14 0h1M1 14h1m12 0h1M2 15h12"/><path stroke="#39372e" d="M2 1h1"/><path stroke="#535143" d="M3 1h11M1 2h1M1 3h1m11 0h1m-1 1h1M1 5h1m11 0h1M1 6h1m11 0h1M1 7h1m11 0h1M1 8h1m11 0h1M1 9h1m11 0h1M1 10h1m11 0h1M1 11h1m11 0h1M1 12h1m11 0h1M1 13h1m1 0h10"/><path stroke="#282828" d="M2 2h1m10 0h1M2 13h1m10 0h1m-3 1h1"/><path stroke="#1c1e21" d="M3 2h10m1 0h1M2 3h1m11 0h1M2 4h1m11 0h1M2 5h1m11 0h1M2 6h1m11 0h1M2 7h1m11 0h1M2 8h1m11 0h1M2 9h1m11 0h1M2 10h1m11 0h1M2 11h1m11 0h1M2 12h1m11 0h1m-1 1h1M2 14h9m1 0h2"/><path stroke="#1e2023" d="M1 4h1"/></svg>