<svg xmlns="http://www.w3.org/2000/svg" viewBox="0 -0.5 15 15" shape-rendering="crispEdges">
<metadata>Made with Pixels to Svg https://codepen.io/shshaw/pen/XbxvNj</metadata>
<path stroke="#000000" d="M2 2h11M1 3h1M13 3h1M1 4h1M13 4h1M0 5h1M14 5h1M0 6h1M14 6h1M0 7h1M14 7h1M0 8h1M14 8h1M0 9h1M14 9h1M0 10h1M14 10h1M0 11h1M14 11h1M0 12h1M14 12h1M0 13h1M14 13h1M1 14h13" />
<path stroke="#84806a" d="M2 3h2M2 4h1M12 9h1M11 10h2" />
<path stroke="#57574f" d="M4 3h9M12 4h1M1 5h2M12 5h2M1 6h2M12 6h2M1 7h2M12 7h2M1 8h2M12 8h2M1 9h2M13 9h1M1 10h10M13 10h1M1 11h1M13 11h1M1 12h1M13 12h1M1 13h1M13 13h1" />
<path stroke="#2c2f35" d="M3 4h9M3 5h9M3 6h9M3 7h9M3 8h9M3 9h9M2 11h11M2 12h11M2 13h11" />
</svg>