<svg xmlns="http://www.w3.org/2000/svg" viewBox="0 -0.5 16 16" shape-rendering="crispEdges"><path stroke="#000" d="M3 1h10M2 2h1m10 0h1M1 3h1m6 0h2m4 0h1M1 4h1m5 0h1m2 0h1m3 0h1M1 5h1m4 0h1m3 0h1m2 0h1M1 6h1m3 0h1m3 0h1m3 0h1M1 7h1m2 0h1m3 0h1m4 0h1M1 8h1m2 0h1m3 0h1m4 0h1M1 9h1m3 0h1m3 0h1m3 0h1M1 10h1m4 0h1m3 0h1m2 0h1M1 11h1m5 0h1m2 0h1m3 0h1M1 12h1m6 0h2m4 0h1M2 13h1m10 0h1M3 14h10"/><path stroke="#7c7865" d="M3 2h1"/><path stroke="#84806a" d="M4 2h9M2 3h1m1 1h1m7 0h1M2 5h1M2 6h1M2 7h1m8 0h1M2 8h1m8 0h1M2 9h1m-1 1h1m-1 1h1m-1 1h1"/><path stroke="#404040" d="M3 3h5m3 0h1M5 4h2m4 0h1M4 5h2m5 0h1M4 6h1m5 0h2M9 7h1M9 8h1M4 9h1m5 0h2m-7 1h1m5 0h1m-8 1h3m4 0h2m-8 1h2m3 0h3"/><path stroke="#262626" d="M10 3h1"/><path stroke="#2c2f35" d="M12 3h2m-1 1h1M3 5h1m8 0h1M3 6h1m8 0h1m-3 1h1m1 0h1m-3 1h1m1 0h1m-1 1h1m-1 1h1m0 1h1m-1 1h1M3 13h10"/><path stroke="#42464b" d="M2 4h1"/><path stroke="#4f4f4f" d="M3 4h1"/><path stroke="#fff" d="M8 4h2M7 5h1m1 0h1M7 6h2M5 7h3M5 8h3M6 9h3m-2 1h3m-2 1h2"/><path stroke="#eee" d="M8 5h1"/><path stroke="#cbcbcb" d="M6 6h1"/><path stroke="#595959" d="M3 7h1"/><path stroke="#393939" d="M3 8h1"/><path stroke="#363636" d="M3 9h1"/><path stroke="#181818" d="M3 10h1"/><path stroke="#5a5a5a" d="M4 10h1"/><path stroke="#4c4c4c" d="M3 11h1"/><path stroke="#424242" d="M3 12h2"/><path stroke="#4d4d4d" d="M7 12h1"/></svg>