<svg xmlns="http://www.w3.org/2000/svg" viewBox="0 -0.5 112 88" shape-rendering="crispEdges"><path stroke="#000" d="M0 0h33m2 0h38m1 0h9m1 0h28M0 1h1m32 0h2m38 0h1m9 0h1m27 0h1M0 2h1m110 0h1M0 3h1m110 0h1M0 4h1m3 0h104m3 0h1M0 5h1m3 0h1m102 0h1m3 0h1M0 6h1m3 0h1m102 0h1m3 0h1M0 7h1m3 0h1m102 0h1m3 0h1M0 8h1m3 0h1m102 0h1m3 0h1M0 9h1m3 0h1m102 0h1m3 0h1M0 10h1m3 0h1m102 0h1m3 0h1M0 11h1m3 0h1m102 0h1m3 0h1M0 12h1m3 0h1m102 0h1m3 0h1M0 13h1m3 0h1m102 0h1m3 0h1M0 14h1m3 0h1m102 0h1m3 0h1M0 15h1m3 0h1m102 0h1m3 0h1M0 16h1m3 0h1m102 0h1m3 0h1M0 17h1m3 0h1m102 0h1m3 0h1M0 18h1m3 0h1m102 0h1m3 0h1M0 19h1m3 0h1m102 0h1m3 0h1M0 20h1m3 0h1m102 0h1m3 0h1M0 21h1m3 0h1m102 0h1m3 0h1M0 22h1m3 0h1m102 0h1m3 0h1M0 23h1m3 0h1m102 0h1m3 0h1M0 24h1m3 0h1m102 0h1m3 0h1M0 25h1m3 0h1m102 0h1m3 0h1M0 26h1m3 0h1m102 0h1m3 0h1M0 27h1m3 0h1m102 0h1m3 0h1M0 28h1m3 0h1m102 0h1m3 0h1M0 29h1m3 0h1m102 0h1m3 0h1M0 30h1m3 0h1m102 0h1m3 0h1M0 31h1m3 0h1m102 0h1m3 0h1M0 32h1m3 0h1m102 0h1m3 0h1M0 33h1m3 0h1m102 0h1m3 0h1M0 34h1m3 0h1m102 0h1m2 0h1M0 35h1m3 0h1m102 0h1m2 0h1M0 36h1m3 0h1m102 0h1m2 0h1M0 37h1m3 0h1m102 0h1m3 0h1M0 38h1m3 0h1m102 0h1m3 0h1M0 39h1m3 0h1m102 0h1m3 0h1M0 40h1m3 0h1m102 0h1m3 0h1M0 41h1m3 0h1m102 0h1m3 0h1M0 42h1m3 0h1m102 0h1m3 0h1M0 43h1m3 0h1m102 0h1m3 0h1M0 44h1m3 0h1m102 0h1m3 0h1M0 45h1m3 0h1m102 0h1m3 0h1M0 46h1m3 0h1m102 0h1m3 0h1M0 47h1m3 0h1m102 0h1m3 0h1M0 48h1m3 0h1m102 0h1m3 0h1M0 49h1m3 0h1m102 0h1m3 0h1M0 50h1m3 0h1m102 0h1m3 0h1M0 51h1m3 0h1m102 0h1m3 0h1M0 52h1m3 0h1m102 0h1m3 0h1M0 53h1m3 0h1m102 0h1m3 0h1M0 54h1m3 0h1m102 0h1m3 0h1M0 55h1m3 0h1m102 0h1m3 0h1M0 56h1m3 0h1m102 0h1m3 0h1M0 57h1m3 0h1m102 0h1m3 0h1M0 58h1m3 0h1m102 0h1m3 0h1M0 59h1m3 0h1m102 0h1m3 0h1M0 60h1m3 0h1m102 0h1m3 0h1M0 61h1m3 0h1m102 0h1m3 0h1M0 62h1m3 0h1m102 0h1m3 0h1M0 63h1m3 0h1m102 0h1m3 0h1M0 64h1m3 0h1m102 0h1m3 0h1M0 65h1m3 0h1m102 0h1m3 0h1M0 66h1m3 0h1m102 0h1m3 0h1M0 67h1m3 0h1m102 0h1m3 0h1M0 68h1m3 0h1m102 0h1m2 0h1M0 69h1m3 0h1m102 0h1m2 0h2M0 70h1m3 0h1m102 0h1m3 0h1M0 71h1m3 0h1m102 0h1m3 0h1M0 72h1m3 0h1m102 0h1m3 0h1M0 73h1m3 0h1m102 0h1m3 0h1M0 74h1m3 0h1m102 0h1m3 0h1M0 75h1m3 0h1m102 0h1m3 0h1M0 76h1m3 0h1m102 0h1m3 0h1M0 77h1m3 0h1m102 0h1m3 0h1M0 78h1m3 0h1m102 0h1m3 0h1M0 79h1m3 0h1m102 0h1m3 0h1M0 80h1m3 0h1m102 0h1m3 0h1M0 81h1m3 0h1m102 0h1m3 0h1M0 82h1m3 0h1m102 0h1m3 0h1M0 83h1m3 0h104m3 0h1M0 84h1m110 0h1M0 85h1m110 0h1M0 86h1m14 0h7m12 0h1m14 0h5m1 0h5m10 0h3m8 0h2m28 0h1M0 87h15m7 0h12m1 0h14m11 0h10m3 0h8m2 0h29"/><path stroke="#404040" d="M1 1h1m108 0h1M2 2h2m1 0h10m3 0h16m4 0h25m3 0h7m2 0h7m2 0h12m3 0h11M2 3h2m104 0h2M2 4h1m106 0h1M2 5h1m106 0h1M2 6h1m106 0h1M2 7h1M2 8h1m106 0h1M2 9h1m106 0h1M2 10h1m106 0h1M2 11h1m106 0h1M2 12h1m106 0h1M2 13h1m106 0h1M2 14h1m106 0h1M2 15h1m106 0h1m-1 1h1M2 17h1m-1 1h1m106 0h1M2 19h1m106 0h1M2 20h1m106 0h1M2 21h1m106 0h1M2 22h1m106 0h1M2 23h1m106 0h1M2 24h1m106 0h1M2 25h1m106 0h1M2 26h1m106 0h1M2 27h1m106 0h1M2 28h1m106 0h1M2 29h1m106 0h1M2 30h1m106 0h1M2 31h1m-1 1h1m106 0h1M2 33h1m106 0h1M2 34h1m-1 1h1m-1 1h1m-1 1h1m106 0h1M2 38h1m106 0h1M2 39h1m106 0h1M2 40h1m106 0h1M2 41h1m106 0h1M2 42h1m106 0h1M2 43h1m106 0h1M2 44h1m106 0h1M2 45h1m106 0h1m-1 1h1m-1 1h1M2 48h1m106 0h1m-1 1h1m-1 1h1M2 51h1m106 0h1M2 52h1m106 0h1M2 53h1m106 0h1M2 54h1m106 0h1M2 55h1m106 0h1M2 56h1m106 0h1M2 57h1m106 0h1M2 58h1m106 0h1M2 59h1m106 0h1M2 60h1m106 0h1M2 61h1m106 0h1M2 62h1m106 0h1M2 63h1m106 0h1M2 64h1m106 0h1M2 65h1m106 0h1M2 66h1m106 0h1M2 67h1m106 0h1M2 68h1m-1 1h1m-1 1h1m106 0h1M2 71h1m106 0h1M2 72h1m106 0h1M2 73h1m106 0h1M2 74h1m106 0h1M2 75h1m106 0h1M2 76h1m106 0h1M2 77h1m106 0h1M2 78h1m106 0h1M2 79h1m106 0h1M2 80h1m106 0h1M2 81h1m106 0h1M2 82h1m106 0h1M2 83h1m106 0h1M2 84h2m105 0h1M2 85h12m8 0h4m2 0h6m2 0h6m2 0h5m11 0h2m1 0h2m1 0h4m4 0h7m3 0h11m1 0h11m1 0h2M1 86h1m108 0h1"/><path stroke="#84806a" d="M2 1h17m1 0h5m1 0h7m2 0h1m1 0h3m1 0h16m1 0h3m1 0h1m1 0h9m1 0h3m1 0h5m1 0h16m1 0h5m1 0h3M1 2h1m14 0h1m47 0h1m9 0h1m8 0h1m13 0h1M1 3h1m106 1h1M1 5h1m106 0h1M1 6h1m106 0h1M1 7h1m106 0h1M1 8h1m106 0h1M1 9h1m106 0h1M1 10h1m106 0h1M1 11h1m106 0h1M1 12h1m106 0h1M1 13h1m106 0h1M1 14h1m106 0h1M1 15h1m106 0h1M1 16h1m106 0h1M1 17h1m106 0h1M1 18h1m106 0h1M1 19h1m106 0h1M1 20h1m106 0h1M1 21h1m106 0h1M1 22h1m106 0h1M1 23h1m106 0h1M1 24h1m106 0h1M1 25h1m106 0h1M1 26h1m106 0h1M1 27h1m106 0h1M1 28h1m106 0h1M1 29h1m106 0h1M1 30h1m106 0h1M1 31h1m106 0h1M1 32h1m106 0h1M1 33h1m106 0h1M1 34h1m106 0h1M1 35h1m106 0h1M1 36h1m106 0h1M1 37h1m106 0h1M1 38h1m106 0h1M1 39h1m106 0h1M1 40h1m106 0h1M1 41h1m106 0h1M1 42h1m106 0h1M1 43h1m106 0h1M1 44h1m106 0h1M1 45h1m106 0h1M1 46h1m1 0h1m104 0h1M1 47h2m105 0h1M1 48h1m106 0h1M1 49h2m105 0h1M1 50h1m106 0h1M1 51h1m106 0h1M1 52h1m106 0h1M1 53h1m106 0h1M1 54h1m106 0h1M1 55h1m106 0h1M1 56h1m106 0h1M1 57h1m106 0h1M1 58h1m106 0h1M1 59h1m106 0h1M1 60h1m106 0h1M1 61h1m106 0h1M1 62h1m106 0h1M1 63h1m106 0h1M1 64h1m106 0h1M1 65h1m106 0h1M1 66h1m106 0h1M1 67h1m106 0h1M1 68h1m106 0h1M1 69h1m106 0h1M1 70h1m106 0h1M1 71h1m106 0h1M1 72h1m106 0h1M1 73h1m106 0h1M1 74h1m106 0h1M1 75h1m106 0h1M1 76h1m106 0h1M1 77h1m106 0h1M1 78h1m106 0h1M1 79h1m106 0h1M1 80h1m106 0h1M1 81h1m106 0h1M1 82h1m106 0h1M1 83h1m106 0h1M1 84h1m2 0h105M1 85h1m25 0h1m7 0h1m29 0h1m7 0h1m9 0h1m-57 1h1m7 0h1"/><path stroke="#313339" d="M19 1h1m80 0h1"/><path stroke="#262b2f" d="M25 1h1m80 0h1"/><path stroke="#2c2f35" d="M36 1h1m26 0h1M15 2h1m18 0h2m27 0h1m9 0h1m8 0h1m13 0h1m13 0h1M4 3h104m2 0h1M3 4h1m106 0h1M3 5h1m106 0h1M3 6h1m106 0h1M3 7h1m106 0h1M3 8h1m106 0h1M3 9h1m106 0h1M3 10h1m106 0h1M3 11h1m106 0h1M3 12h1m106 0h1M3 13h1m106 0h1M3 14h1m106 0h1M3 15h1m106 0h1M3 16h1m106 0h1M3 17h1m105 0h2M3 18h1m-1 1h1m106 0h1M3 20h1m106 0h1M3 21h1m106 0h1M3 22h1m106 0h1M3 23h1m106 0h1M3 24h1m106 0h1M3 25h1m106 0h1M3 26h1m106 0h1M3 27h1m106 0h1M3 28h1m106 0h1M3 29h1m106 0h1M3 30h1m106 0h1M3 31h1m-1 1h1m106 0h1M3 33h1m106 0h1M3 34h1m105 0h1M3 35h1m105 0h1M3 36h1m105 0h1M3 37h1m106 0h1M3 38h1m106 0h1M3 39h1m106 0h1M3 40h1m106 0h1M3 41h1m106 0h1M3 42h1m106 0h1M3 43h1m106 0h1M3 44h1m106 0h1M3 45h1m106 0h1M2 46h1m107 0h1M3 47h1m106 0h1M3 48h1m106 0h1M3 49h1m106 0h1M2 50h2m106 0h1M3 51h1m106 0h1M3 52h1m106 0h1M3 53h1m106 0h1M3 54h1m106 0h1M3 55h1m106 0h1M3 56h1m106 0h1M3 57h1m106 0h1M3 58h1m106 0h1M3 59h1m106 0h1M3 60h1m106 0h1M3 61h1m106 0h1M3 62h1m106 0h1M3 63h1m106 0h1M3 64h1m106 0h1M3 65h1m106 0h1M3 66h1m106 0h1M3 67h1m106 0h1M3 68h1m105 0h1M3 69h1m105 0h1M3 70h1m106 0h1M3 71h1m106 0h1M3 72h1m106 0h1M3 73h1m106 0h1M3 74h1m106 0h1M3 75h1m106 0h1M3 76h1m106 0h1M3 77h1m106 0h1M3 78h1m106 0h1M3 79h1m106 0h1M3 80h1m106 0h1M3 81h1m106 0h1M3 82h1m106 0h1M3 83h1m106 1h1m-96 1h7m4 0h1m7 0h1m14 0h11m10 0h3m8 0h2m27 0h1M2 86h13m8 0h4m1 0h6m2 0h1m1 0h11m12 0h8m4 0h8m3 0h26"/><path stroke="#30333a" d="M40 1h1"/><path stroke="#1c1e24" d="M57 1h1"/><path stroke="#282c34" d="M61 1h1m21 85h1"/><path stroke="#908c78" d="M77 1h1"/><path stroke="#23252d" d="M4 2h1"/><path stroke="#25282f" d="M17 2h1m80 0h1"/><path stroke="#424449" d="M36 2h1"/><path stroke="#918d7a" d="M37 2h1"/><path stroke="#575756" d="M65 2h1m-4 83h1m32 0h1m11 0h1"/><path stroke="#42464b" d="M1 4h1"/><path stroke="#39382e" d="M5 5h1m5 0h1m5 0h1m10 0h1m7 0h1m5 0h1m16 0h1m13 0h2m11 0h1m5 0h1m5 0h1M6 6h1m3 0h1m6 0h1m10 0h1m7 0h1m50 0h1m3 0h1m6 0h1M7 7h2m1 0h1m7 0h1m16 0h1m9 0h1m42 0h2m1 0h1m7 0h1M9 8h1m8 0h1m26 0h1m4 0h2m38 0h1m8 0h1M53 9h1m-33 1h1m14 0h1m17 0h1m7 0h1m39 0h1m-82 1h1m4 0h2m26 0h1m5 0h2m40 0h1m-74 1h1m6 0h1m8 0h1m9 0h1m3 0h1m33 0h1m-64 1h1m14 0h1m10 0h1m37 0h1m-50 1h1m10 0h1m-43 1h1m8 0h1m5 0h1m16 0h1m18 0h1m12 0h1m8 0h1m5 0h1m10 0h1m-90 1h1m7 0h1m5 0h1m16 0h1m18 0h1m13 0h1m7 0h1m5 0h1m10 0h1m-90 1h1m7 0h1m4 0h1m20 0h1m15 0h1m13 0h1m7 0h1m4 0h1m11 0h1M5 18h1m16 0h1m26 0h1m4 0h2m10 0h1m19 0h1m16 0h1m6 0h1M6 19h1m7 0h1m11 0h2m12 0h2m11 0h1m5 0h1m5 0h1m12 0h1m11 0h2M6 20h1m7 0h1m4 0h1m5 0h1m28 0h1m3 0h1m6 0h1m12 0h1m4 0h1m5 0h1m-77 1h1m5 0h1m4 0h1m30 0h2m1 0h1m7 0h1m10 0h1m5 0h1m4 0h1m-65 1h1m32 0h1m8 0h1m21 0h1m-15 1h1m26 0h1m-88 1h1m14 0h1m45 0h1m2 0h1m14 0h1m8 0h1M5 25h1m11 0h1m10 0h1m46 0h1m5 0h1m10 0h1m9 0h1M7 26h1m6 0h1m2 0h1m9 0h1m40 0h1m9 0h1m2 0h1m9 0h1m11 0h1M8 27h1m7 0h1m9 0h1m16 0h1m7 0h1m17 0h1m10 0h1m9 0h1m13 0h1M8 28h1m7 0h1m9 0h1m16 0h1m25 0h1m10 0h1m9 0h1m13 0h1M8 29h1m7 0h1m15 0h1m9 0h1m9 0h1m9 0h1m6 0h1m10 0h1m15 0h1M9 30h1m9 0h1m12 0h1m10 0h1m8 0h1m10 0h1m6 0h1m12 0h1m12 0h1M9 31h1m10 0h1m11 0h1m10 0h1m8 0h1m10 0h1m6 0h1m13 0h1m11 0h1m12 0h2M9 32h1m10 0h1m12 0h1m19 0h1m16 0h1m4 0h1m8 0h1m12 0h1m4 0h2M9 33h1m7 0h1m11 0h2m12 0h2m11 0h1m5 0h1m7 0h1m10 0h1m11 0h2m9 0h1M9 34h1m7 0h1m4 0h1m5 0h1m28 0h1m3 0h1m8 0h1m10 0h1m4 0h1m5 0h1m10 0h1m-88 1h1m5 0h1m4 0h1m30 0h2m1 0h1m13 0h1m4 0h1m5 0h1m4 0h1m10 0h1m-76 1h1m32 0h1m14 0h1m15 0h1m10 0h1m-86 2h1m14 0h1m48 0h1m14 0h1M7 39h2m11 0h1m10 0h1m36 0h2m14 0h1m10 0h1m-86 1h1m6 0h1m2 0h1m9 0h1m40 0h1m9 0h1m2 0h1m9 0h1m-84 1h1m7 0h1m9 0h1m16 0h1m7 0h1m17 0h1m10 0h1m9 0h1m10 0h1m-94 1h1m7 0h1m9 0h1m16 0h1m25 0h1m10 0h1m9 0h1m10 0h1m-94 1h1m7 0h1m15 0h1m9 0h1m9 0h1m9 0h1m6 0h1m10 0h1m15 0h1m-88 1h1m9 0h1m12 0h1m10 0h1m8 0h1m10 0h1m9 0h1m9 0h1m12 0h1m-88 1h1m10 0h1m11 0h1m10 0h1m8 0h1m10 0h1m9 0h1m10 0h1m11 0h1m3 0h1m-92 1h1m10 0h1m12 0h1m19 0h1m19 0h1m10 0h1m-78 1h2m11 0h1m5 0h1m5 0h1m10 0h1m7 0h1m5 0h1m10 0h2m14 0h1m5 0h1m5 0h1m-76 1h1m3 0h1m6 0h1m10 0h1m7 0h1m33 0h1m3 0h1m6 0h1m-75 1h2m1 0h1m7 0h1m16 0h1m9 0h1m9 0h1m15 0h2m1 0h1m7 0h1m-74 1h1m8 0h1m26 0h1m9 0h1m17 0h1m8 0h1m-28 1h1m26 0h1m-62 1h1m14 0h1m-42 1h1m14 0h1m10 0h1m8 0h1m6 0h1m7 0h1m13 0h1m14 0h1m-65 1h1m10 0h1m8 0h1m6 0h1m7 0h1m28 0h1M6 55h1m5 0h1m16 0h1m25 0h1m7 0h1m10 0h1m1 0h1m16 0h1m7 0h1M6 56h1m5 0h1m16 0h1m26 0h1m9 0h1m9 0h1m16 0h1M6 57h1m4 0h1m20 0h1m23 0h1m10 0h1m4 0h1m23 0h1M5 58h1m26 0h1m4 0h2m17 0h1m10 0h1m5 0h1m22 0h1m3 0h1m-91 1h1m4 0h1m4 0h1m7 0h1m11 0h2m12 0h2m11 0h1m3 0h1m7 0h1m4 0h1m7 0h1m-79 1h1m5 0h1m7 0h1m4 0h1m5 0h1m38 0h1m5 0h1m7 0h1m4 0h1m-85 1h1m13 0h1m5 0h1m4 0h1m38 0h1m13 0h1m5 0h1m-85 1h1m24 0h1m38 0h1m28 0h1m-79 2h1m14 0h1m48 0h1m-75 1h2m11 0h1m10 0h1m39 0h2m11 0h1M5 66h1m15 0h1m6 0h1m2 0h1m9 0h1m32 0h1m10 0h1m6 0h1m2 0h1m5 0h1M6 67h1m8 0h1m6 0h1m7 0h1m9 0h1m16 0h1m7 0h1m13 0h1m6 0h1m7 0h1M6 68h1m8 0h1m6 0h1m7 0h1m9 0h1m16 0h1m21 0h1m6 0h1m7 0h1m9 0h1m-83 1h1m7 0h1m15 0h1m9 0h1m9 0h1m19 0h1m7 0h1m9 0h1m-82 1h1m9 0h1m12 0h1m10 0h1m8 0h1m20 0h1m9 0h1m-75 1h1m10 0h1m11 0h1m10 0h1m8 0h1m20 0h1m10 0h1M5 72h1m17 0h1m10 0h1m12 0h1m19 0h1m19 0h1m10 0h1M8 73h1m5 0h1m16 0h1m13 0h2m11 0h1m5 0h1m4 0h1m8 0h1m16 0h1m8 0h1M8 74h1m50 0h1m3 0h1m5 0h1M7 75h1m9 0h1m42 0h2m1 0h1m4 0h1m12 0h1m-57 1h1m10 0h1m8 0h1m10 0h1m7 0h1m5 0h1m-46 1h1m10 0h1m8 0h1m10 0h1m7 0h1m4 0h1m10 0h1m24 0h1m-92 1h2m10 0h1m19 0h1m16 0h1m15 0h1m25 0h1m-93 1h1m5 0h1m5 0h1m10 0h1m7 0h1m5 0h1m17 0h1m4 0h1m4 0h1m-65 1h1m3 0h1m6 0h1m10 0h1m7 0h1m27 0h1m4 0h1m16 0h1m-80 1h2m1 0h1m7 0h1m16 0h1m9 0h1m17 0h1m5 0h1m16 0h1m-78 1h1m8 0h1m26 0h1m4 0h2m11 0h1m11 0h1m9 0h1"/><path stroke="#1c1c1c" d="M6 5h1m2 0h1m2 0h4m2 0h9m2 0h6m2 0h2m1 0h1m2 0h16m1 0h12m3 0h4m1 0h5m2 0h1m2 0h1m2 0h4m2 0h8M7 6h2m2 0h5m2 0h10m1 0h3m1 0h2m2 0h27m1 0h21m2 0h2m2 0h5m2 0h8M5 7h1m5 0h5m3 0h5m1 0h1m1 0h1m1 0h5m2 0h2m1 0h4m3 0h4m2 0h27m1 0h7m5 0h5m3 0h5m1 0h1M5 8h2m3 0h5m1 0h1m2 0h18m1 0h6m2 0h4m3 0h3m2 0h17m1 0h12m3 0h5m1 0h1m2 0h7M5 9h47m2 0h3m1 0h49M5 10h3m1 0h5m1 0h4m3 0h4m2 0h7m2 0h3m1 0h11m3 0h4m4 0h13m1 0h1m1 0h5m1 0h4m1 0h5m1 0h4m3 0h4M5 11h2m1 0h5m1 0h6m2 0h4m3 0h3m2 0h1m2 0h16m2 0h4m3 0h2m2 0h3m1 0h14m1 0h3m1 0h5m1 0h6m2 0h4M6 12h6m1 0h15m2 0h3m1 0h1m2 0h7m3 0h7m2 0h3m3 0h1m1 0h12m1 0h15m2 0h3m1 0h1m1 0h7M5 13h11m1 0h11m3 0h6m1 0h6m2 0h9m2 0h23m1 0h11m3 0h12M5 14h5m1 0h20m1 0h12m2 0h10m1 0h8m1 0h5m1 0h23m1 0h11M6 15h7m2 0h7m2 0h4m2 0h10m1 0h3m3 0h5m1 0h1m1 0h1m1 0h7m3 0h10m2 0h7m2 0h4m2 0h9m2 0h2M5 16h9m2 0h6m2 0h4m2 0h13m1 0h2m1 0h17m2 0h12m2 0h6m2 0h4m2 0h9m2 0h2M5 17h10m1 0h3m1 0h2m2 0h3m2 0h13m1 0h4m3 0h4m2 0h8m2 0h7m1 0h5m1 0h3m1 0h2m2 0h3m2 0h7m1 0h2m2 0h2M6 18h5m1 0h1m1 0h1m1 0h5m2 0h18m1 0h6m2 0h4m3 0h2m1 0h4m3 0h5m1 0h2m1 0h1m1 0h1m1 0h5m2 0h15m2 0h3M7 19h6m2 0h3m1 0h6m3 0h11m3 0h4m1 0h5m2 0h1m2 0h1m2 0h4m2 0h11m2 0h3m1 0h6m3 0h15M5 20h1m1 0h3m1 0h2m2 0h3m2 0h4m2 0h5m1 0h21m2 0h2m2 0h5m2 0h5m1 0h5m2 0h3m2 0h4m2 0h5m1 0h11M5 21h1m1 0h5m2 0h4m2 0h2m3 0h21m1 0h7m5 0h5m3 0h9m2 0h4m2 0h2m3 0h18M5 22h13m3 0h1m3 0h17m1 0h12m3 0h5m1 0h1m2 0h6m1 0h8m3 0h1m3 0h11m1 0h3m2 0h1M5 23h68m2 0h25m2 0h3m1 0h1M6 24h7m2 0h2m2 0h8m3 0h13m1 0h1m1 0h5m1 0h4m1 0h5m1 0h4m1 0h5m3 0h1m2 0h2m2 0h8m3 0h6m3 0h4M7 25h3m2 0h1m2 0h1m2 0h9m2 0h2m2 0h3m1 0h14m1 0h3m1 0h5m1 0h9m2 0h1m2 0h1m2 0h1m2 0h9m2 0h2m2 0h4m2 0h4M5 26h1m2 0h3m1 0h1m2 0h1m2 0h8m3 0h1m1 0h5m1 0h14m1 0h1m1 0h6m1 0h7m1 0h3m1 0h2m1 0h1m2 0h1m2 0h8m3 0h1m1 0h7m2 0h3M5 27h1m3 0h6m2 0h6m1 0h1m2 0h12m1 0h2m2 0h6m2 0h12m1 0h3m2 0h9m2 0h6m1 0h1m2 0h12m2 0h2M5 28h2m2 0h6m2 0h8m2 0h5m1 0h8m3 0h6m2 0h6m1 0h9m2 0h9m2 0h8m2 0h5m1 0h7m1 0h2M6 29h2m1 0h4m4 0h7m2 0h5m3 0h7m2 0h8m3 0h7m2 0h6m1 0h3m1 0h1m1 0h1m4 0h7m2 0h5m3 0h2m1 0h1m1 0h1m1 0h2M5 30h3m3 0h7m2 0h11m2 0h9m2 0h7m2 0h9m2 0h5m3 0h10m2 0h11m2 0h10M5 31h3m2 0h9m2 0h10m2 0h10m1 0h3m1 0h3m2 0h10m1 0h3m1 0h1m2 0h4m1 0h7m2 0h10m2 0h5m2 0h3M5 32h3m2 0h10m1 0h3m1 0h2m1 0h3m3 0h5m1 0h1m1 0h1m1 0h7m3 0h5m1 0h1m1 0h1m1 0h5m2 0h4m1 0h8m1 0h3m1 0h2m1 0h3m3 0h4m3 0h2M5 33h3m2 0h6m2 0h3m1 0h6m3 0h11m3 0h4m1 0h5m2 0h1m2 0h1m2 0h4m1 0h1m2 0h9m2 0h3m1 0h6m3 0h8m2 0h2M5 34h4m1 0h3m1 0h2m2 0h3m2 0h4m2 0h5m1 0h21m2 0h2m2 0h5m1 0h2m1 0h4m1 0h1m1 0h2m2 0h3m2 0h4m2 0h5m1 0h3m2 0h3M5 35h1m2 0h1m1 0h5m2 0h4m2 0h2m3 0h21m1 0h7m5 0h5m2 0h1m1 0h2m3 0h3m2 0h4m2 0h2m3 0h8m3 0h3M5 36h1m1 0h14m3 0h1m3 0h17m1 0h12m3 0h5m1 0h7m2 0h9m3 0h1m3 0h9m2 0h3M5 37h102M5 38h2m2 0h7m2 0h2m2 0h8m3 0h13m1 0h1m1 0h5m1 0h4m1 0h5m1 0h2m2 0h4m1 0h5m2 0h2m2 0h8m3 0h4m1 0h1m1 0h3M5 39h2m3 0h3m2 0h1m2 0h1m2 0h9m2 0h2m2 0h3m1 0h14m1 0h3m1 0h5m1 0h3m3 0h6m2 0h1m2 0h1m2 0h9m2 0h2m2 0h7M5 40h4m2 0h3m1 0h1m2 0h1m2 0h8m3 0h1m1 0h5m1 0h14m1 0h1m1 0h6m1 0h6m2 0h6m1 0h1m2 0h1m2 0h8m3 0h1m1 0h6m1 0h2M5 41h4m3 0h6m2 0h6m1 0h1m2 0h12m1 0h2m2 0h6m2 0h12m1 0h2m3 0h1m1 0h7m2 0h6m1 0h1m2 0h7m1 0h1m2 0h2M5 42h5m2 0h6m2 0h8m2 0h5m1 0h8m3 0h6m2 0h6m1 0h9m2 0h9m2 0h8m2 0h5m1 0h4m1 0h2M5 43h3m1 0h2m1 0h4m4 0h7m2 0h5m3 0h7m2 0h8m3 0h7m2 0h3m1 0h2m1 0h7m4 0h7m2 0h5m2 0h7M5 44h6m3 0h7m2 0h11m2 0h9m2 0h7m2 0h9m2 0h5m1 0h3m2 0h7m2 0h11m2 0h3m1 0h3M5 45h6m2 0h9m2 0h10m2 0h10m1 0h3m1 0h3m2 0h10m1 0h5m1 0h3m1 0h9m2 0h10m2 0h3m1 0h3M5 46h6m2 0h10m1 0h3m1 0h2m1 0h3m3 0h5m1 0h1m1 0h1m1 0h7m3 0h5m1 0h1m1 0h1m1 0h5m1 0h3m1 0h10m1 0h3m1 0h2m1 0h3m2 0h7M5 47h4m3 0h4m1 0h5m2 0h1m2 0h1m2 0h4m2 0h9m2 0h6m2 0h2m1 0h1m2 0h9m3 0h7m1 0h5m2 0h1m2 0h1m2 0h4m2 0h7M5 48h18m2 0h2m2 0h5m2 0h10m1 0h3m1 0h2m2 0h32m2 0h2m2 0h5m2 0h7M5 49h11m1 0h7m5 0h5m3 0h5m1 0h1m1 0h1m1 0h5m2 0h2m1 0h4m3 0h9m1 0h6m1 0h7m5 0h5m3 0h6M5 50h7m1 0h12m3 0h5m1 0h1m2 0h18m1 0h6m2 0h9m1 0h2m1 0h12m3 0h5m1 0h1m2 0h6M5 51h68m1 0h26m1 0h6M5 52h8m1 0h1m1 0h5m1 0h4m1 0h5m1 0h4m3 0h4m2 0h7m2 0h3m1 0h18m1 0h1m1 0h5m1 0h4m1 0h5m1 0h10M5 53h6m3 0h6m1 0h6m2 0h9m2 0h5m1 0h1m2 0h4m3 0h6m2 0h8m1 0h3m2 0h6m1 0h6m2 0h10m1 0h2M5 54h9m1 0h12m2 0h10m1 0h7m2 0h5m2 0h6m2 0h9m1 0h4m1 0h12m2 0h7m1 0h2m1 0h2M7 55h4m2 0h10m1 0h3m3 0h5m1 0h1m1 0h1m1 0h6m2 0h4m1 0h2m1 0h4m4 0h8m1 0h1m1 0h1m1 0h10m1 0h3m3 0h5m1 0h1m1 0h5M7 56h4m2 0h13m1 0h2m1 0h14m1 0h10m3 0h7m2 0h5m1 0h3m1 0h13m1 0h2m1 0h13M7 57h3m2 0h13m1 0h4m3 0h4m2 0h4m1 0h11m2 0h9m2 0h3m2 0h16m1 0h4m3 0h9M6 58h18m1 0h6m2 0h4m3 0h6m1 0h8m2 0h10m1 0h5m1 0h14m1 0h6m2 0h3m1 0h4m1 0h1M5 59h5m1 0h3m2 0h3m2 0h6m2 0h3m1 0h6m3 0h11m3 0h4m1 0h5m2 0h3m1 0h1m1 0h4m2 0h3m2 0h6m2 0h3m1 0h3m1 0h3m1 0h2M5 60h8m2 0h5m1 0h3m1 0h2m2 0h3m2 0h4m2 0h5m1 0h21m1 0h9m2 0h5m1 0h3m1 0h2m2 0h3m2 0h9M5 61h4m1 0h1m3 0h3m2 0h1m1 0h5m2 0h4m2 0h2m3 0h21m1 0h9m1 0h1m1 0h2m3 0h3m2 0h1m1 0h5m2 0h4m2 0h4m1 0h4M5 62h1m2 0h1m1 0h2m2 0h3m1 0h14m3 0h1m3 0h17m1 0h11m1 0h1m1 0h2m1 0h2m2 0h3m1 0h14m3 0h1m1 0h4M5 63h2m1 0h1m1 0h58m1 0h1m1 0h35M5 64h13m2 0h7m2 0h2m2 0h8m3 0h13m1 0h1m1 0h5m1 0h16m2 0h7m2 0h2m2 0h10M5 65h13m3 0h3m2 0h1m2 0h1m2 0h9m2 0h2m2 0h3m1 0h14m1 0h16m3 0h3m2 0h1m2 0h1m2 0h7m1 0h1m1 0h1M6 66h9m1 0h4m2 0h3m1 0h1m2 0h1m2 0h8m3 0h1m1 0h5m1 0h14m1 0h1m1 0h6m1 0h4m1 0h4m2 0h3m1 0h1m2 0h1m2 0h5m1 0h5M7 67h5m1 0h1m2 0h4m3 0h6m2 0h6m1 0h1m2 0h12m1 0h2m2 0h6m2 0h10m1 0h1m2 0h4m3 0h6m2 0h12M5 68h1m1 0h7m2 0h5m2 0h6m2 0h8m2 0h5m1 0h8m3 0h6m2 0h9m1 0h2m2 0h5m2 0h6m2 0h7m3 0h2M5 69h1m1 0h6m2 0h4m1 0h2m1 0h4m4 0h7m2 0h5m3 0h7m2 0h8m3 0h9m2 0h4m1 0h2m1 0h4m4 0h8m2 0h2M5 70h6m1 0h10m3 0h7m2 0h11m2 0h9m2 0h7m2 0h5m2 0h12m3 0h7m2 0h2m1 0h6M6 71h4m1 0h11m2 0h9m2 0h10m2 0h10m1 0h3m1 0h3m2 0h4m1 0h14m2 0h9m2 0h8M7 72h6m1 0h8m2 0h10m1 0h3m1 0h2m1 0h3m3 0h5m1 0h1m1 0h1m1 0h7m3 0h9m1 0h8m2 0h10m1 0h8M5 73h2m2 0h2m1 0h1m2 0h16m1 0h12m3 0h4m1 0h5m2 0h1m2 0h1m2 0h3m2 0h2m1 0h4m2 0h16m1 0h7m3 0h1M5 74h2m2 0h27m1 0h21m2 0h2m2 0h4m2 0h37M5 75h1m2 0h2m1 0h4m3 0h4m2 0h27m1 0h7m5 0h4m1 0h2m1 0h7m3 0h4m2 0h19M5 76h19m2 0h9m2 0h7m2 0h9m2 0h6m2 0h4m2 0h34m1 0h1M5 77h9m2 0h8m2 0h10m1 0h3m1 0h3m2 0h10m1 0h3m1 0h2m2 0h3m2 0h8m3 0h13m1 0h1m1 0h5m1 0h1m2 0h1M5 78h9m3 0h2m1 0h4m3 0h5m1 0h1m1 0h1m1 0h7m3 0h5m1 0h1m1 0h1m1 0h5m2 0h14m2 0h2m2 0h3m1 0h16m2 0h1M5 79h6m3 0h1m2 0h1m2 0h4m2 0h9m2 0h6m2 0h2m1 0h1m2 0h17m1 0h3m2 0h3m3 0h1m1 0h5m1 0h15m2 0h2M5 80h8m2 0h2m2 0h5m2 0h10m1 0h3m1 0h2m2 0h26m2 0h3m2 0h12m1 0h2m2 0h6m1 0h5M5 81h9m5 0h5m3 0h5m1 0h1m1 0h1m1 0h5m2 0h2m1 0h4m3 0h4m2 0h7m1 0h1m3 0h3m3 0h5m1 0h8m3 0h5m1 0h6M5 82h10m3 0h5m1 0h1m2 0h18m1 0h6m2 0h4m3 0h3m2 0h1m1 0h2m2 0h3m2 0h5m3 0h7m2 0h9m1 0h3"/><path stroke="#1d1e21" d="M7 5h1m80 0h1m-49 5h1m-25 3h1m63 0h1m-26 6h1m8 8h1m-7 6h1m8 8h1m-43 6h1m63 0h1m-32 5h1m1 21h1m-46 6h1"/><path stroke="#262625" d="M8 5h1m70 0h1m9 0h1m-44 7h1M5 15h1m60 0h1m-21 4h1m9 0h1M5 29h1m27 0h1m19 0h1m43 0h1m-88 1h1m60 0h1m-23 3h1m9 0h1M8 43h1m27 0h1m19 0h1m12 0h1m-57 1h1m63 0h1m-62 3h1m9 0h1m53 0h1m9 0h1m-39 8h1m4 1h1m2 3h1M19 69h1m27 0h1m19 0h1m15 0h1m-60 1h1m63 0h1m-38 3h1m9 0h1m43 0h1m-90 6h1m67 3h1"/><path stroke="#131517" d="M10 5h1m16 0h1m7 0h1m5 0h1m43 0h1m5 0h1M5 6h1m3 0h1m6 0h1m18 0h1m50 0h1m3 0h1m6 0h1M6 7h1m2 0h1m6 0h2m16 0h1m15 0h2m35 0h1m2 0h1m6 0h2M7 8h2m8 0h1m26 0h1m7 0h1m35 0h2m8 0h1M52 9h1m-27 1h2m7 0h1m16 0h2m6 0h2m22 0h1m-65 1h1m7 0h1m6 0h1m17 0h1m5 0h1m41 0h1m-74 1h1m6 0h1m8 0h1m9 0h1m37 0h1m6 0h1m-72 1h2m7 0h1m17 0h1m36 0h2m-50 1h1m-32 1h1m8 0h1m5 0h1m15 0h2m18 0h1m12 0h1m8 0h1m5 0h1m10 0h1m-90 1h1m7 0h1m5 0h1m49 0h1m7 0h1m5 0h1m10 0h1m-82 1h1m4 0h1m26 0h2m8 0h1m21 0h1m4 0h1m11 0h1m-83 1h1m26 0h1m7 0h1m7 0h2m9 0h1m9 0h1m16 0h1M5 19h1m7 0h1m4 0h1m6 0h1m26 0h1m5 0h1m18 0h1m4 0h1m6 0h1m-77 1h1m4 0h1m5 0h1m28 0h1m3 0h1m6 0h1m12 0h1m4 0h1m5 0h1m-77 1h1m5 0h1m4 0h1m30 0h1m2 0h1m6 0h2m10 0h1m5 0h1m4 0h1m-70 1h2m35 0h2m8 0h1m7 0h1m8 0h2m16 0h1m-28 1h1m26 0h1M5 24h1m7 0h1m14 0h1m22 0h1m21 0h2m2 0h1m14 0h1m7 0h2M6 25h1m6 0h1m2 0h1m10 0h1m46 0h1m2 0h1m2 0h1m10 0h1m9 0h1M6 26h1m6 0h1m2 0h1m9 0h1m24 0h1m23 0h1m1 0h1m2 0h1m9 0h1m11 0h1M6 27h2m7 0h1m9 0h1m16 0h1m7 0h1m17 0h1m10 0h1m9 0h1m13 0h1M7 28h1m7 0h1m9 0h1m24 0h1m17 0h1m10 0h1m9 0h1m-77 1h3m8 0h2m5 0h1m9 0h1m9 0h1m9 0h1m15 0h3m8 0h2m5 0h1M8 30h1m9 0h1m23 0h1m19 0h1m6 0h1m12 0h1m-64 1h1m11 0h1m19 0h1m23 0h1m7 0h1m11 0h1m6 0h2M8 32h1m22 0h2m18 0h2m16 0h1m25 0h2m7 0h1M8 33h1m7 0h1m4 0h1m6 0h1m26 0h1m5 0h1m7 0h1m10 0h1m4 0h1m6 0h1m10 0h1m-88 1h1m4 0h1m5 0h1m28 0h1m3 0h1m6 0h1m7 0h1m4 0h1m4 0h1m5 0h1m10 0h1m-88 1h1m5 0h1m4 0h1m30 0h1m2 0h1m6 0h1m6 0h1m4 0h1m5 0h1m4 0h1m10 0h1m-81 1h2m35 0h2m25 0h2M7 38h2m7 0h1m14 0h1m22 0h1m13 0h2m10 0h1m14 0h1M9 39h1m6 0h1m2 0h1m10 0h1m39 0h1m9 0h1m2 0h1m10 0h1M9 40h1m6 0h1m2 0h1m9 0h1m24 0h1m15 0h1m9 0h1m2 0h1m9 0h1m10 0h1M9 41h2m7 0h1m9 0h1m16 0h1m7 0h1m16 0h2m10 0h1m9 0h1m-83 1h1m7 0h1m9 0h1m24 0h1m17 0h1m10 0h1m9 0h1m-77 1h3m8 0h2m5 0h1m9 0h1m9 0h1m9 0h1m15 0h3m8 0h2m5 0h1m-88 1h1m9 0h1m23 0h1m19 0h1m6 0h1m12 0h1m17 0h1m-82 1h1m11 0h1m19 0h1m31 0h1m11 0h1m-88 1h1m22 0h2m18 0h2m16 0h1m25 0h2m-78 1h1m5 0h1m16 0h1m7 0h1m5 0h1m26 0h1m5 0h1m-70 1h1m3 0h1m6 0h1m18 0h1m33 0h1m3 0h1m6 0h1m-75 1h1m2 0h1m6 0h2m16 0h1m35 0h1m2 0h1m6 0h2m-75 1h2m8 0h1m26 0h1m26 0h2m8 0h1m-79 2h1m22 0h2m7 0h1m31 0h1m-75 1h2m7 0h1m17 0h1m8 0h1m5 0h2m7 0h1m9 0h1m3 0h1m7 0h1m18 0h1m-77 1h1m19 0h1m6 0h1m7 0h1m28 0h1m11 0h1M5 55h1m5 0h1m15 0h2m17 0h2m12 0h3m9 0h1m18 0h2M5 56h1m5 0h1m43 0h1m9 0h1m6 0h1M5 57h1m4 0h1m26 0h2m27 0h1m4 0h1m-41 1h1m7 0h1m15 0h1m39 0h1m-82 1h1m4 0h1m7 0h1m4 0h1m6 0h1m26 0h1m6 0h1m4 0h1m4 0h1m7 0h1m4 0h1m3 0h1m-88 1h1m13 0h1m4 0h1m5 0h1m28 0h1m9 0h1m13 0h1m4 0h1M9 61h1m2 0h1m13 0h1m5 0h1m4 0h1m32 0h1m5 0h1m13 0h1m5 0h1M9 62h1m22 0h2m36 0h1m25 0h2m7 0h1M9 63h1m60 0h1m35 0h1m-89 1h2m7 0h1m14 0h1m22 0h1m16 0h2m7 0h1m-72 1h1m6 0h1m2 0h1m10 0h1m42 0h1m6 0h1m2 0h1m-80 1h1m4 0h1m6 0h1m2 0h1m9 0h1m24 0h1m13 0h1m4 0h1m6 0h1m2 0h1M5 67h1m8 0h1m5 0h2m7 0h1m9 0h1m16 0h1m7 0h1m13 0h1m5 0h2m7 0h1m-80 1h1m6 0h1m7 0h1m9 0h1m24 0h1m13 0h1m6 0h1m7 0h1m-81 1h2m12 0h3m8 0h2m5 0h1m9 0h1m9 0h1m11 0h2m12 0h3m9 0h1m-82 1h1m9 0h1m23 0h1m16 0h1m12 0h1m9 0h1m3 0h1M5 71h1m27 0h1m11 0h1m19 0h1m31 0h1M6 72h1m15 0h1m22 0h2m18 0h2m19 0h1M7 73h1m5 0h1m43 0h1m5 0h1m4 0h1m8 0h1m25 0h1M7 74h1m50 0h1m3 0h1m5 0h1M6 75h1m15 0h2m35 0h1m2 0h1m23 0h2m-53 1h1m19 0h1m7 0h1m5 0h1m35 0h1m-92 1h2m8 0h1m19 0h1m18 0h1m4 0h1m10 0h1m24 0h1m-89 1h1m7 0h2m18 0h2m16 0h1m15 0h1m25 0h1m-93 1h1m5 0h1m16 0h1m7 0h1m5 0h1m22 0h1m4 0h1m25 0h2m-92 1h1m3 0h1m6 0h1m18 0h1m27 0h1m4 0h1m16 0h1m-80 1h1m2 0h1m6 0h2m16 0h1m15 0h2m7 0h1m2 0h1m5 0h1m-62 1h2m8 0h1m26 0h1m7 0h1m6 0h1m8 0h1m5 0h1m9 0h1"/><path stroke="#151519" d="M16 5h1m80 0h1m-54 8h1m19 3h1m-1 3h1M31 30h1m19 0h1m43 0h1M8 31h1m60 0h1m-3 2h1M34 44h1m19 0h1m43 0h1m-88 1h1m60 0h1m-39 2h1m63 0h1m-72 6h1m63 0h1m-37 4h1M45 70h1m19 0h1m-44 1h1m63 0h1m-63 5h1m19 0h1m-21 3h1"/><path stroke="#202020" d="M39 5h1m-2 2h1M15 8h1m80 0h1m-83 2h1m80 0h1m-53 6h1m-2 1h1m20 5h1m-2 2h1m3 12h1m-2 2h1m-9 9h1m-2 2h1m-24 1h1m63 0h1m-66 2h1m63 0h1m-71 4h1m17 0h1m45 0h1m-66 1h1m17 0h1m45 0h1m16 0h1M11 70h1m60 0h1m-63 1h1m60 0h1m-61 2h1m60 0h1m-63 2h1m60 0h1m-25 4h1m53 1h1m-56 1h1m53 0h1m-78 1h1"/><path stroke="#1a1c1e" d="M72 5h1M39 19h1m2 14h1M9 47h1m60 0h1M53 59h1M44 73h1m-34 6h1"/><path stroke="#262626" d="M32 6h1m10 1h1m-25 3h1m39 0h1m40 0h1m-61 5h1m-22 2h1m27 0h1m25 0h1m9 0h1m16 0h1m-42 1h1m-50 2h1m60 0h1m-45 4h1m39 0h1m23 0h1m-45 7h1m19 0h1m-44 1h1m2 0h1m60 0h1m2 0h1m-79 2h1m63 0h1m-5 1h1m26 0h1m-71 3h1m63 0h1m-45 7h1m-24 1h1m2 0h1m60 0h1m2 0h1m-45 2h1m10 1h1m-25 3h1m35 2h1m26 0h1m-78 1h1m63 0h1m-58 2h1m63 0h1m-49 1h1m-23 2h1m63 0h1m-78 1h1m60 0h1m-32 3h1m33 4h1m26 0h1m-42 3h1m-49 1h1m24 0h1m2 0h1m35 0h1m-63 3h1m63 0h1m-40 2h1m19 0h1m17 0h1m-60 1h1m20 2h1m10 1h1m17 0h1m33 1h1"/><path stroke="#1d1d1d" d="M64 6h1m-34 8h1m63 0h1m-65 6h1m63 0h1M34 34h1m63 0h1M14 54h1m63 0h1m-34 6h1M36 74h1"/><path stroke="#111316" d="M24 7h1m80 0h1m-54 8h1m-42 3h1m60 0h1m0 11h1m26 0h1m-62 3h1m19 0h1m14 6h1m26 0h1m-28 3h1m26 0h1m-60 5h1m19 0h1m-21 3h1m-8 6h1m63 0h1m3 10h1m-51 7h1m-22 6h1m19 0h1m-21 3h1"/><path stroke="#16171a" d="M26 7h1M7 11h1m80 0h1m-35 4h1m-42 3h1m63 0h1m-23 7h1m19 4h1m26 0h1m-62 3h1m19 0h1M7 35h1m60 0h1m34 3h1m-46 1h1m44 2h1m-60 5h1m19 0h1m-21 3h1m-8 6h1m-20 6h1m63 0h1m-10 1h1m26 0h1m4 3h1m-51 7h1m-22 6h1m19 0h1m-21 3h1"/><path stroke="#141517" d="M28 7h1m28 1h1m-25 3h1m22 4h1m-42 3h1m63 0h1M6 21h1m98 1h1m-95 3h1m60 0h1m-31 3h1m61 1h1m-62 3h1m19 0h1M9 35h1m60 0h1m-57 4h1m63 0h1m-34 3h1m0 4h1m19 0h1m-21 3h1m-8 6h1m-20 6h1m63 0h1M7 62h1m60 0h1m-44 3h1m63 0h1m-34 3h1M6 69h1m50 3h1m-22 6h1m19 0h1m-21 3h1m56 0h1m-29 1h1"/><path stroke="#1e1e20" d="M44 7h1m-25 3h1m80 0h1m-54 7h1m-26 5h1m63 0h1M26 36h1m47 0h1m15 0h1m10 0h1M62 49h1m-25 3h1m-8 5h1m63 0h1m-84 5h1m24 0h1m38 0h1m26 6h1m-88 7h1m63 0h1m-29 6h1m17 1h1"/><path stroke="#252525" d="M79 7h1M37 8h1m-25 3h1m55 0h1m24 0h1m-32 1h1m1 2h1m-25 4h1m4 3h1m-25 1h1m63 0h1m-69 2h1m63 0h1m-47 1h1m24 0h1m-32 1h1m63 0h1m-63 2h1m63 0h1m-48 7h1M6 36h1m18 0h1m63 0h1m16 0h1m-86 2h1m63 0h1m-47 1h1m24 0h1m-32 1h1m63 0h1m-63 2h1m63 0h1m-84 7h1m63 0h1m-26 1h1m50 3h1m-83 5h1m63 0h1m16 0h1m-46 3h1m-44 1h1m18 0h1m44 0h1m-50 2h1m63 0h1m-47 1h1m-7 1h1m1 2h1m4 7h1m35 3h1m-7 1h1m1 2h1m-39 1h1m29 0h1"/><path stroke="#555454" d="M109 7h1"/><path stroke="#17181b" d="M56 8h1m-25 3h1M22 21h1m63 0h1m17 1h1m-95 3h1m60 0h1M6 35h1m18 0h1m63 0h1m16 0h1m-94 4h1m63 0h1M17 61h1m18 0h1m44 0h1M6 62h1m17 3h1m63 0h1M75 81h1m-12 1h1"/><path stroke="#232323" d="M75 8h1M5 12h1m36 10h1m10 4h1m-9 10h1m10 4h1M12 50h1m63 0h1M56 62h1m10 4h1"/><path stroke="#242424" d="M57 9h1m20 1h1m-46 2h1m63 0h1m-88 2h1m60 0h1m33 9h1m-61 1h1m-35 2h1m60 0h1m-15 2h1M48 38h1m-35 2h1m63 0h1m-18 2h1M15 52h1m63 0h1m-5 9h1m26 0h1M7 63h1m60 0h1m-10 1h1m-35 2h1m63 0h1m6 11h1"/><path stroke="#121212" d="M8 10h1m80 0h1M56 24h1m2 14h1M26 52h1m63 0h1"/><path stroke="#1e1e1e" d="M76 10h1M43 24h1m2 14h1M13 52h1m63 0h1M57 64h1m36 13h1"/><path stroke="#1a1a1d" d="M36 11h1M14 25h1m63 0h1M17 39h1m63 0h1M28 65h1m63 0h1"/><path stroke="#1e1e1f" d="M64 11h1M17 24h1m63 0h1m-51 1h1m63 0h1M20 38h1m63 0h1m-51 1h1m63 0h1M31 64h1m63 0h1m-51 1h1m36 13h1"/><path stroke="#212121" d="M65 11h1M32 25h1m63 0h1M35 39h1m63 0h1M46 65h1m36 13h1"/><path stroke="#1e2022" d="M84 11h1m-73 1h1m63 0h1M51 25h1m8 1h1m-7 13h1m8 1h1m40 19h1m-40 6h1"/><path stroke="#29292b" d="M60 12h2M28 26h1m63 0h1M31 40h1m63 0h1M42 66h1m36 13h1"/><path stroke="#33363c" d="M2 16h1"/><path stroke="#3d3c33" d="M20 22h1m63 0h1M23 36h1m63 0h1M34 62h1m63 0h1"/><path stroke="#0c0e11" d="M36 26h1m2 14h1m66 14h1M50 66h1m36 13h1"/><path stroke="#0c0e10" d="M23 27h1m63 0h1M26 41h1m63 0h1M45 53h1M12 67h1m24 0h1m38 0h1m25 10h1"/><path stroke="#0e1013" d="M39 27h1m11 1h1M42 41h1m11 1h1m-2 25h1m11 1h1m24 12h1"/><path stroke="#101012" d="M41 28h1m2 14h1m10 26h1m36 13h1"/><path stroke="#424448" d="M110 83h1"/><path stroke="#25282d" d="M14 85h1"/><path stroke="#23272c" d="M42 85h1"/><path stroke="#3f4247" d="M43 85h1"/><path stroke="#474a4e" d="M22 86h1"/><path stroke="#44474b" d="M37 86h1m22 0h1"/><path stroke="#21201f" d="M54 86h1"/><path stroke="#202229" d="M69 86h1"/></svg>