<svg xmlns="http://www.w3.org/2000/svg" viewBox="0 -0.5 26 26" shape-rendering="crispEdges"><path stroke="#000" d="M8 2h10m2 0h4M8 3h10m2 0h4M6 4h2m10 0h2m2 0h2M6 5h2m10 0h2m2 0h2M4 6h2m6 0h2m2 0h2m2 0h2M4 7h2m6 0h2m2 0h2m2 0h2M2 8h2m6 0h2m2 0h2m2 0h2m2 0h2M2 9h2m6 0h2m2 0h2m2 0h2m2 0h2M2 10h2m4 0h2m6 0h2m4 0h2M2 11h2m4 0h2m6 0h2m4 0h2M2 12h2m4 0h2m8 0h2m2 0h2M2 13h2m4 0h2m8 0h2m2 0h2M2 14h2m4 0h2m6 0h2m4 0h2M2 15h2m4 0h2m6 0h2m4 0h2M2 16h2m6 0h6m6 0h2M2 17h2m6 0h6m6 0h2M4 18h2m14 0h2M4 19h2m14 0h2M6 20h2m10 0h2M6 21h2m10 0h2M8 22h10M8 23h10"/><path stroke="#4eaf2d" d="M8 4h2m4 0h4M8 5h2m4 0h4M6 6h4M6 7h4M4 8h4M4 9h4m-4 1h2m-2 1h2m-2 1h2m-2 1h2m-2 3h2m-2 1h2"/><path stroke="#292f7e" d="M10 4h4m-4 1h4m-4 1h2m-2 1h2M8 8h2M8 9h2m-4 1h2m-2 1h2m-2 1h2m-2 1h2m-4 1h2m-2 1h2"/><path stroke="#351500" d="M20 4h2m-2 1h2m-4 1h2m-2 1h2m-4 1h2m-2 1h2"/><path stroke="#287f2b" d="M14 6h2m-2 1h2M6 16h2m-2 1h2m-2 1h2m-2 1h2"/><path stroke="#5b574d" d="M12 8h2m-2 1h2m-4 1h4m-4 1h4m-4 1h2m-2 1h2"/><path stroke="#16592d" d="M20 8h2m-2 1h2m-4 1h4m-4 1h4m-10 7h4m-4 1h4"/><path stroke="#404040" d="M14 10h2m-2 1h2m-4 1h4m-4 1h4m-6 1h4m-4 1h4"/><path stroke="#191b29" d="M16 12h2m-2 1h2m-4 1h2m-2 1h2"/><path stroke="#000054" d="M20 12h2m-2 1h2m-4 1h4m-4 1h4m-6 1h6m-6 1h6m-6 1h4m-4 1h4M8 20h10M8 21h10"/><path stroke="#05117f" d="M6 14h2m-2 1h2m0 1h2m-2 1h2m-2 1h4m-4 1h4"/></svg>