<svg xmlns="http://www.w3.org/2000/svg" viewBox="0 -0.5 16 16" shape-rendering="crispEdges"><path stroke="#000" d="M3 0h3m2 0h3m1 0h1M2 1h1m3 0h2m3 0h1m1 0h1M1 2h1m12 0h1M1 3h1m12 0h1M1 4h1m12 0h1M1 5h1m12 0h1M1 6h1m2 0h8m2 0h1M1 7h1m2 0h1m6 0h1m2 0h1M1 8h1m2 0h1m6 0h1m2 0h1M1 9h1m2 0h8m2 0h1M1 10h1m12 0h1M1 11h1m12 0h1M2 12h1m10 0h1M3 13h1m5 0h4m-9 1h5"/><path stroke="#84806a" d="M3 1h3m2 0h3m1 0h1M2 2h1m3 0h2m3 0h1M2 3h1M2 5h1m1 0h1m4 0h1M2 6h2M2 7h1M2 8h1M2 9h1m-1 1h1m8 0h1M2 11h1m2 0h1m-1 1h1"/><path stroke="#404040" d="M3 2h2m4 0h2m1 0h1M3 3h3m2 0h5M3 4h1m1 0h8M5 5h3m2 0h3m-1 1h1M3 7h1m8 0h1M3 8h1m8 0h1m-1 1h1M3 10h1m1 0h4m3 0h1M3 11h1m2 0h7m-7 1h3"/><path stroke="#444" d="M5 2h1"/><path stroke="#232323" d="M8 2h1"/><path stroke="#2c2f35" d="M13 2h1m-1 1h1m-1 1h1M3 5h1m4 0h1m4 0h1m-1 1h1m-1 1h1m-1 1h1m-1 1h1m-4 1h1m2 0h1M4 11h1m8 0h1M3 12h2m4 0h4m-9 1h5"/><path stroke="#525252" d="M6 3h1"/><path stroke="#474747" d="M7 3h1"/><path stroke="#42464b" d="M2 4h1"/><path stroke="#363636" d="M4 4h1"/><path stroke="#fff" d="M5 7h6M5 8h6"/><path stroke="#515151" d="M3 9h1"/><path stroke="#4c4c4c" d="M4 10h1"/><path stroke="#373737" d="M9 10h1"/></svg>