<svg xmlns="http://www.w3.org/2000/svg" viewBox="0 -0.5 22 22" shape-rendering="crispEdges">
<metadata>Made with Pixels to Svg https://codepen.io/shshaw/pen/XbxvNj</metadata>
<path stroke="#000000" d="M0 0h4M18 0h4M0 1h1M3 1h16M21 1h1M0 2h1M21 2h1M0 3h2M20 3h2M1 4h1M20 4h1M1 5h1M20 5h1M1 6h1M20 6h1M1 7h1M20 7h1M1 8h1M20 8h1M1 9h1M20 9h1M1 10h1M20 10h1M1 11h1M20 11h1M1 12h1M20 12h1M1 13h1M20 13h1M1 14h1M20 14h1M1 15h1M20 15h1M1 16h1M20 16h1M1 17h1M20 17h1M1 18h1M20 18h1M1 19h1M20 19h1M1 20h1M20 20h1M1 21h20" />
<path stroke="#3e3c32" d="M1 1h2M19 1h1M1 2h1M3 2h12M16 2h3M2 3h1M2 4h1M8 5h1M2 6h1M8 6h1M15 6h1M2 7h1M13 7h1M2 8h1M2 9h1M2 10h1M2 11h1M2 12h2M8 12h1M2 13h1M8 13h1M2 14h1M2 15h1M2 16h1M2 17h1M2 18h1M2 19h1" />
<path stroke="#1e1e1e" d="M20 1h1M2 2h1M19 2h1M3 3h2M6 3h13M3 4h1M5 4h1M8 4h11M3 5h4M9 5h10M3 6h4M9 6h5M16 6h3M3 7h8M14 7h5M3 8h12M16 8h3M3 9h16M3 10h16M3 11h16M4 12h3M9 12h8M3 13h5M9 13h10M3 14h12M16 14h3M3 15h16M3 16h16M3 17h16M3 18h14M18 18h1M3 19h13M17 19h2M2 20h1M19 20h1" />
<path stroke="#121416" d="M15 2h1" />
<path stroke="#151619" d="M20 2h1M19 3h1M6 4h2M19 4h1M7 5h1M19 5h1M7 6h1M14 6h1M19 6h1M11 7h2M15 8h1M7 12h1M15 14h1M19 18h1M19 19h1M3 20h16" />
<path stroke="#101115" d="M5 3h1" />
<path stroke="#272727" d="M4 4h1" />
<path stroke="#202124" d="M2 5h1" />
<path stroke="#18191a" d="M19 7h1M19 8h1M19 9h1M19 10h1M19 11h1M19 14h1M19 15h1M19 16h1M19 17h1" />
<path stroke="#31312a" d="M17 12h2" />
<path stroke="#3b392f" d="M19 12h1" />
<path stroke="#202122" d="M19 13h1" />
<path stroke="#1d1f20" d="M17 18h1" />
<path stroke="#282828" d="M16 19h1" />
</svg>