<svg xmlns="http://www.w3.org/2000/svg" viewBox="0 -0.5 24 12" shape-rendering="crispEdges">
<metadata>Made with Pixels to Svg https://codepen.io/shshaw/pen/XbxvNj</metadata>
<path stroke="#000000" d="M4 0h16M4 1h1M19 1h1M2 2h3M19 2h3M2 3h1M7 3h2M11 3h2M15 3h2M21 3h1M2 4h1M7 4h1M9 4h2M13 4h2M16 4h1M21 4h1M0 5h3M7 5h1M9 5h1M14 5h1M16 5h1M21 5h3M7 6h1M16 6h1M7 7h1M16 7h1M7 8h1M16 8h1M7 9h10" />
<path stroke="#3e3c32" d="M5 1h13M5 2h1M9 2h1M17 2h1M3 3h2M9 3h1M19 3h1M3 4h1M3 5h1M0 6h4M21 6h3M17 8h1M22 9h1M22 10h1M4 11h1M10 11h1M22 11h1" />
<path stroke="#1e1e1e" d="M18 1h1M6 2h2M10 2h6M5 3h2M10 3h1M13 3h2M17 3h2M20 3h1M4 4h3M17 4h3M4 5h3M17 5h3M4 6h3M17 6h4M0 7h7M17 7h7M0 8h7M18 8h6M0 9h7M17 9h1M19 9h3M23 9h1M0 10h22M23 10h1M0 11h3M5 11h4M11 11h11M23 11h1" />
<path stroke="#151619" d="M8 2h1M16 2h1M18 2h1M20 4h1M20 5h1M18 9h1M3 11h1M9 11h1" />
<path stroke="#e5cd47" d="M8 4h1M11 4h2M15 4h1M8 7h1M15 7h1" />
<path stroke="#bca73c" d="M8 5h1M15 5h1M8 8h3M13 8h3" />
<path stroke="#e8a127" d="M10 5h4M8 6h1M10 6h1M13 6h1M15 6h1M9 7h6M11 8h2" />
<path stroke="#ce0000" d="M9 6h1" />
<path stroke="#ff7200" d="M11 6h1" />
<path stroke="#d64000" d="M12 6h1" />
<path stroke="#ff3200" d="M14 6h1" />
</svg>