<svg xmlns="http://www.w3.org/2000/svg" viewBox="0 -0.5 64 64" shape-rendering="crispEdges">
<metadata>Made with Pixels to Svg https://codepen.io/shshaw/pen/XbxvNj</metadata>
<path stroke="#1e1e1e" d="M0 0h29M31 0h4M37 0h11M50 0h8M60 0h4M0 1h9M10 1h1M12 1h5M18 1h4M23 1h6M31 1h3M36 1h13M50 1h5M56 1h3M63 1h1M0 2h17M18 2h3M22 2h6M30 2h18M50 2h4M55 2h5M63 2h1M0 3h6M8 3h26M35 3h3M40 3h3M45 3h3M49 3h10M61 3h3M0 4h6M8 4h29M39 4h5M45 4h15M62 4h2M0 5h6M8 5h25M34 5h2M38 5h23M0 6h6M8 6h7M17 6h9M27 6h6M34 6h3M38 6h24M0 7h6M8 7h7M17 7h8M28 7h5M34 7h30M0 8h6M7 8h9M18 8h7M29 8h13M44 8h14M59 8h5M0 9h16M18 9h7M26 9h1M29 9h13M45 9h19M0 10h39M40 10h4M46 10h12M59 10h5M0 11h38M40 11h4M47 11h2M51 11h6M59 11h5M0 12h7M9 12h29M40 12h5M47 12h3M51 12h6M59 12h5M0 13h1M3 13h4M10 13h8M20 13h18M39 13h7M47 13h1M50 13h8M60 13h4M0 14h8M10 14h9M21 14h25M48 14h1M51 14h7M60 14h4M0 15h8M10 15h10M21 15h26M48 15h2M51 15h7M60 15h4M0 16h8M11 16h15M27 16h19M48 16h10M61 16h3M0 17h9M11 17h53M0 18h9M12 18h52M0 19h56M58 19h6M0 20h11M12 20h28M42 20h15M58 20h6M0 21h10M12 21h6M21 21h5M27 21h6M34 21h7M42 21h22M0 22h10M11 22h8M21 22h19M42 22h6M49 22h15M0 23h11M13 23h6M23 23h17M43 23h8M53 23h11M0 24h12M13 24h6M21 24h1M24 24h18M43 24h21M1 25h10M13 25h10M24 25h21M46 25h9M56 25h8M1 26h10M14 26h30M46 26h8M56 26h8M1 27h9M12 27h4M18 27h18M39 27h25M2 28h8M12 28h52M0 29h1M4 29h5M11 29h9M21 29h4M26 29h38M0 30h2M4 30h15M21 30h4M26 30h28M56 30h8M0 31h55M56 31h8M0 32h10M12 32h35M48 32h6M56 32h8M0 33h4M5 33h5M13 33h6M21 33h33M57 33h7M0 34h12M13 34h4M21 34h17M40 34h6M49 34h15M0 35h12M14 35h8M24 35h7M33 35h6M40 35h6M47 35h17M0 36h13M14 36h9M25 36h2M29 36h2M33 36h4M39 36h8M48 36h1M50 36h14M0 37h12M14 37h10M25 37h2M29 37h3M34 37h14M50 37h14M0 38h11M13 38h10M25 38h1M28 38h4M34 38h14M51 38h13M0 39h24M26 39h6M34 39h7M43 39h6M51 39h7M59 39h5M0 40h3M4 40h21M26 40h7M35 40h7M43 40h15M59 40h5M0 41h33M35 41h18M54 41h4M59 41h5M0 42h33M35 42h17M54 42h4M60 42h4M0 43h22M23 43h10M35 43h5M41 43h17M59 43h5M0 44h33M35 44h5M42 44h16M59 44h5M0 45h22M23 45h3M28 45h10M40 45h1M43 45h15M60 45h4M0 46h13M15 46h6M23 46h16M41 46h1M44 46h10M56 46h2M60 46h4M0 47h14M15 47h6M22 47h18M41 47h1M45 47h9M56 47h8M0 48h12M14 48h8M24 48h19M45 48h9M56 48h6M63 48h1M1 49h12M15 49h8M24 49h5M30 49h14M45 49h8M55 49h6M63 49h1M1 50h13M15 50h7M24 50h4M30 50h14M46 50h4M51 50h6M58 50h4M63 50h1M0 51h9M10 51h9M21 51h7M29 51h16M46 51h4M52 51h4M58 51h6M0 52h8M10 52h10M21 52h8M31 52h8M41 52h3M46 52h4M52 52h3M57 52h7M0 53h8M11 53h19M31 53h9M41 53h9M52 53h4M57 53h3M62 53h2M0 54h12M14 54h4M20 54h5M26 54h3M31 54h29M63 54h1M0 55h13M15 55h2M19 55h5M26 55h3M32 55h12M46 55h4M52 55h3M56 55h6M0 56h3M4 56h10M19 56h5M26 56h2M30 56h4M36 56h8M47 56h3M52 56h3M57 56h4M63 56h1M0 57h15M18 57h7M26 57h2M30 57h16M48 57h1M51 57h4M57 57h3M62 57h2M0 58h27M29 58h9M39 58h7M48 58h7M57 58h4M62 58h2M0 59h11M12 59h25M39 59h8M48 59h16M0 60h50M52 60h12M0 61h11M12 61h16M30 61h10M42 61h8M51 61h2M55 61h9M0 62h10M12 62h16M29 62h3M33 62h8M42 62h8M52 62h1M55 62h8M0 63h10M11 63h17M30 63h2M33 63h7M42 63h10M54 63h8" />
<path stroke="#151619" d="M29 0h1M35 0h1M48 0h1M58 0h1M17 1h1M29 1h1M34 1h1M59 1h1M28 2h1M48 2h1M6 3h1M38 3h1M43 3h1M59 3h1M6 4h1M37 4h1M60 4h1M6 5h1M33 5h1M36 5h1M61 5h1M6 6h1M15 6h1M26 6h1M33 6h1M62 6h2M6 7h1M15 7h1M25 7h2M33 7h1M6 8h1M16 8h1M25 8h3M42 8h2M58 8h1M16 9h1M25 9h1M27 9h1M44 9h1M39 10h1M44 10h1M58 10h1M38 11h1M44 11h2M49 11h1M57 11h1M7 12h1M38 12h1M45 12h1M57 12h1M1 13h2M7 13h2M18 13h1M38 13h1M48 13h1M58 13h1M8 14h1M19 14h1M46 14h1M49 14h1M8 15h1M58 15h1M8 16h2M46 16h1M58 16h2M9 17h1M9 18h1M11 18h1M56 19h1M11 20h1M40 20h1M57 20h1M10 21h1M18 21h2M33 21h1M10 22h1M19 22h1M40 22h1M11 23h1M19 23h1M21 23h1M40 23h2M51 23h1M19 24h1M22 24h1M11 25h1M11 26h2M44 26h1M54 26h1M10 27h1M16 27h1M37 27h2M0 28h1M10 28h1M1 29h1M9 29h1M25 29h1M2 30h2M19 30h1M54 30h1M10 32h1M47 32h1M54 32h1M10 33h2M19 33h1M54 33h2M17 34h3M38 34h1M46 34h1M12 35h1M22 35h1M32 35h1M46 35h1M23 36h1M27 36h1M32 36h1M37 36h1M47 36h1M12 37h1M27 37h1M33 37h1M48 37h1M23 38h1M26 38h1M33 38h1M48 38h2M24 39h1M33 39h1M41 39h1M49 39h1M3 40h1M25 40h1M34 40h1M34 41h1M34 42h1M52 42h1M58 42h1M22 43h1M34 43h1M40 43h1M34 44h1M41 44h1M22 45h1M27 45h1M38 45h1M42 45h1M58 45h1M13 46h1M21 46h1M39 46h1M42 46h1M54 46h1M58 46h1M21 47h1M40 47h1M42 47h2M54 47h1M12 48h1M22 48h1M43 48h1M54 48h1M13 49h1M29 49h1M53 49h1M61 49h1M22 50h1M28 50h1M44 50h1M50 50h1M57 50h1M19 51h1M28 51h1M50 51h1M56 51h1M8 52h1M29 52h1M39 52h1M44 52h1M50 52h1M55 52h1M8 53h2M40 53h1M50 53h2M60 53h2M12 54h1M18 54h1M29 54h1M62 54h1M13 55h1M17 55h1M24 55h1M29 55h2M44 55h2M50 55h1M55 55h1M62 55h1M3 56h1M14 56h1M17 56h1M24 56h2M28 56h1M34 56h1M46 56h1M50 56h1M55 56h1M61 56h1M15 57h2M25 57h1M28 57h1M46 57h1M49 57h1M55 57h1M60 57h1M27 58h1M46 58h2M55 58h2M11 59h1M37 59h1M47 59h1M50 60h1M11 61h1M28 61h1M40 61h1M50 61h1M53 61h1M10 62h1M28 62h1M50 62h1M53 62h1M63 62h1M10 63h1M28 63h1M40 63h1M52 63h1M62 63h1" />
<path stroke="#3e3c32" d="M30 0h1M36 0h1M49 0h1M59 0h1M30 1h1M35 1h1M49 1h1M60 1h1M62 1h1M29 2h1M49 2h1M60 2h1M7 3h1M34 3h1M39 3h1M44 3h1M48 3h1M60 3h1M7 4h1M38 4h1M44 4h1M61 4h1M7 5h1M37 5h1M62 5h2M7 6h1M16 6h1M37 6h1M7 7h1M16 7h1M27 7h1M17 8h1M28 8h1M17 9h1M28 9h1M42 9h2M45 10h1M39 11h1M46 11h1M50 11h1M58 11h1M8 12h1M39 12h1M46 12h1M50 12h1M58 12h1M9 13h1M19 13h1M46 13h1M49 13h1M59 13h1M9 14h1M20 14h1M47 14h1M50 14h1M58 14h2M9 15h1M20 15h1M47 15h1M50 15h1M59 15h1M10 16h1M26 16h1M47 16h1M60 16h1M10 17h1M10 18h1M57 19h1M41 20h1M11 21h1M20 21h1M26 21h1M41 21h1M20 22h1M41 22h1M48 22h1M12 23h1M20 23h1M22 23h1M42 23h1M52 23h1M12 24h1M20 24h1M23 24h1M42 24h1M0 25h1M12 25h1M23 25h1M45 25h1M55 25h1M0 26h1M13 26h1M45 26h1M55 26h1M0 27h1M11 27h1M17 27h1M36 27h1M1 28h1M11 28h1M2 29h2M10 29h1M20 29h1M20 30h1M25 30h1M55 30h1M55 31h1M11 32h1M55 32h1M4 33h1M12 33h1M20 33h1M56 33h1M12 34h1M20 34h1M39 34h1M47 34h2M13 35h1M23 35h1M31 35h1M39 35h1M13 36h1M24 36h1M28 36h1M31 36h1M38 36h1M49 36h1M13 37h1M24 37h1M28 37h1M32 37h1M49 37h1M11 38h2M24 38h1M27 38h1M32 38h1M50 38h1M25 39h1M32 39h1M42 39h1M50 39h1M58 39h1M33 40h1M42 40h1M58 40h1M33 41h1M53 41h1M58 41h1M33 42h1M53 42h1M59 42h1M33 43h1M58 43h1M33 44h1M40 44h1M58 44h1M26 45h1M39 45h1M41 45h1M59 45h1M14 46h1M22 46h1M40 46h1M43 46h1M55 46h1M59 46h1M14 47h1M44 47h1M55 47h1M13 48h1M23 48h1M44 48h1M55 48h1M62 48h1M0 49h1M14 49h1M23 49h1M44 49h1M54 49h1M62 49h1M0 50h1M14 50h1M23 50h1M29 50h1M45 50h1M62 50h1M9 51h1M20 51h1M45 51h1M51 51h1M57 51h1M9 52h1M20 52h1M30 52h1M40 52h1M45 52h1M51 52h1M56 52h1M10 53h1M30 53h1M56 53h1M13 54h1M19 54h1M25 54h1M30 54h1M60 54h2M14 55h1M18 55h1M25 55h1M31 55h1M51 55h1M63 55h1M15 56h2M18 56h1M29 56h1M35 56h1M44 56h2M51 56h1M56 56h1M62 56h1M17 57h1M29 57h1M47 57h1M50 57h1M56 57h1M61 57h1M28 58h1M38 58h1M61 58h1M38 59h1M51 60h1M29 61h1M41 61h1M54 61h1M11 62h1M32 62h1M41 62h1M51 62h1M54 62h1M29 63h1M32 63h1M41 63h1M53 63h1M63 63h1" />
<path stroke="#212121" d="M9 1h1" />
<path stroke="#272727" d="M11 1h1" />
<path stroke="#131313" d="M22 1h1" />
<path stroke="#242424" d="M55 1h1M54 2h1" />
<path stroke="#212224" d="M61 1h1" />
<path stroke="#202122" d="M17 2h1" />
<path stroke="#191a1d" d="M21 2h1" />
<path stroke="#18191a" d="M61 2h1" />
<path stroke="#31312a" d="M62 2h1" />
</svg>