<svg xmlns="http://www.w3.org/2000/svg" viewBox="0 -0.5 16 16" shape-rendering="crispEdges"><path stroke="#000" d="M7 0h5M3 1h4m5 0h1M2 2h1m10 0h1M1 3h1m12 0h1M1 4h1m4 0h4m4 0h1M1 5h1m4 0h1m2 0h1m4 0h1M1 6h1m2 0h3m2 0h3m2 0h1M1 7h1m2 0h1m6 0h1m2 0h1M1 8h1m2 0h1m6 0h1m2 0h1M1 9h1m2 0h3m2 0h3m2 0h1M1 10h1m4 0h1m2 0h1m4 0h1M1 11h1m4 0h4m4 0h1M1 12h1m12 0h1M2 13h1m1 0h4m5 0h1M3 14h1m4 0h5"/><path stroke="#84806a" d="M7 1h5M4 2h3m5 0h1M2 3h1m1 0h1m4 0h1M4 4h1m5 0h1M2 5h1m7 0h1M2 6h1M2 7h1M2 8h1M2 9h1m-1 1h1m7 0h1m-9 1h1m-1 1h1"/><path stroke="#7c7865" d="M3 2h1"/><path stroke="#404040" d="M7 2h5M3 3h1m1 0h3m2 0h3M3 4h1m1 0h1m6 0h1M3 5h3m5 0h2M3 6h1m8 0h1M3 7h1m8 0h1M3 8h1m8 0h1M3 9h1m8 0h1m-9 1h2m5 0h2M3 11h3m4 0h2m-4 1h5"/><path stroke="#2c2f35" d="M8 3h1m4 0h1m-1 1h1m-1 1h1m-1 1h1m-1 1h1m-1 1h1m-1 1h1M3 10h1m9 0h1m-1 1h1M4 12h4m5 0h1M3 13h1m4 0h5"/><path stroke="#42464b" d="M2 4h1"/><path stroke="#474747" d="M11 4h1"/><path stroke="#fff" d="M7 5h2M7 6h2M5 7h6M5 8h6M7 9h2m-2 1h2"/><path stroke="#363636" d="M12 11h1"/><path stroke="#6f6f6f" d="M3 12h1"/></svg>