<svg xmlns="http://www.w3.org/2000/svg" viewBox="0 -0.5 128 24" shape-rendering="crispEdges">
<metadata>Made with Pixels to Svg https://codepen.io/shshaw/pen/XbxvNj</metadata>
<path stroke="#000000" d="M2 0h124M1 1h1M126 1h1M0 2h1M127 2h1M0 3h1M3 3h122M127 3h1M0 4h1M3 4h1M124 4h1M127 4h1M0 5h1M3 5h1M124 5h1M127 5h1M0 6h1M3 6h1M103 6h1M124 6h1M127 6h1M0 7h1M3 7h1M124 7h1M127 7h1M0 8h1M3 8h1M124 8h1M127 8h1M0 9h1M3 9h1M124 9h1M127 9h1M0 10h1M3 10h1M50 10h1M124 10h1M127 10h1M0 11h1M3 11h1M124 11h1M127 11h1M0 12h1M3 12h1M124 12h1M127 12h1M0 13h1M3 13h1M124 13h1M127 13h1M0 14h1M3 14h1M124 14h1M127 14h1M0 15h1M3 15h1M124 15h1M127 15h1M0 16h1M3 16h1M112 16h1M124 16h1M127 16h1M0 17h1M3 17h1M124 17h1M127 17h1M0 18h1M3 18h1M124 18h1M127 18h1M0 19h1M3 19h1M118 19h1M124 19h1M127 19h1M0 20h1M3 20h122M127 20h1M0 21h1M127 21h1M1 22h1M126 22h1M2 23h124" />
<path stroke="#535143" d="M2 1h1M1 4h1" />
<path stroke="#84806a" d="M3 1h3M123 1h3M1 2h1M1 3h1M125 3h1M125 4h1M1 5h1M125 5h1M1 6h1M125 6h1M1 7h1M125 7h1M1 8h1M125 8h1M1 9h1M125 9h1M1 10h1M125 10h1M1 11h1M125 11h1M1 12h1M125 12h1M1 13h1M125 13h1M1 14h1M125 14h1M1 15h1M125 15h1M1 16h1M125 16h1M1 17h1M125 17h1M1 18h1M125 18h1M1 19h1M125 19h1M1 20h1M125 20h1M1 21h1M3 21h3M123 21h2" />
<path stroke="#837f6a" d="M6 1h117M6 21h117" />
<path stroke="#404040" d="M2 2h1M125 2h1M10 15h1M2 21h1M125 21h1M123 22h1" />
<path stroke="#2c2f35" d="M3 2h122M126 2h1M2 3h1M126 3h1M2 4h1M126 4h1M2 5h1M126 5h1M2 6h1M126 6h1M2 7h1M126 7h1M2 8h1M126 8h1M2 9h1M126 9h1M2 10h1M126 10h1M2 11h1M126 11h1M2 12h1M126 12h1M2 13h1M126 13h1M2 14h1M126 14h1M2 15h1M126 15h1M2 16h1M126 16h1M2 17h1M126 17h1M2 18h1M126 18h1M2 19h1M126 19h1M2 20h1M126 20h1M126 21h1M2 22h121M124 22h2" />
<path stroke="#1e1e1e" d="M4 4h23M28 4h64M94 4h3M98 4h16M115 4h9M4 5h9M15 5h12M29 5h2M33 5h3M38 5h21M61 5h24M87 5h6M94 5h12M107 5h6M115 5h9M4 6h3M8 6h5M16 6h6M24 6h4M29 6h2M33 6h3M38 6h15M54 6h5M63 6h5M70 6h11M83 6h2M87 6h4M93 6h10M104 6h9M116 6h8M4 7h11M16 7h4M24 7h3M29 7h1M32 7h5M39 7h2M43 7h11M55 7h6M62 7h4M70 7h11M83 7h3M88 7h17M108 7h16M4 8h11M17 8h20M39 8h3M43 8h18M63 8h8M73 8h8M82 8h4M88 8h17M106 8h18M4 9h12M17 9h23M42 9h20M63 9h9M74 9h32M107 9h1M109 9h15M4 10h11M17 10h33M51 10h10M63 10h10M74 10h23M98 10h3M102 10h5M109 10h15M4 11h10M16 11h44M62 11h10M74 11h1M76 11h31M110 11h14M4 12h6M11 12h1M13 12h5M19 12h4M24 12h6M32 12h3M37 12h14M53 12h26M80 12h3M85 12h24M111 12h3M115 12h3M120 12h4M4 13h14M19 13h3M23 13h6M31 13h20M53 13h29M84 13h26M111 13h8M121 13h3M4 14h3M9 14h8M18 14h17M36 14h3M41 14h10M54 14h8M63 14h15M79 14h2M83 14h20M105 14h15M121 14h3M4 15h3M9 15h1M11 15h27M40 15h11M53 15h7M62 15h9M72 15h6M79 15h3M83 15h19M104 15h20M4 16h3M9 16h25M35 16h2M39 16h12M53 16h5M59 16h1M62 16h9M73 16h5M79 16h23M104 16h8M113 16h11M4 17h3M9 17h7M18 17h9M28 17h6M35 17h3M39 17h12M52 17h9M63 17h9M74 17h28M104 17h4M110 17h7M118 17h6M4 18h3M10 18h6M18 18h10M29 18h5M35 18h26M63 18h9M74 18h11M86 18h15M104 18h4M111 18h13M4 19h3M8 19h9M19 19h9M30 19h54M85 19h25M112 19h3M116 19h1M119 19h5" />
<path stroke="#3e3c32" d="M27 4h1M93 4h1M114 4h1M14 5h1M28 5h1M32 5h1M36 5h1M60 5h1M85 5h1M93 5h1M114 5h1M7 6h1M15 6h1M23 6h1M28 6h1M32 6h1M36 6h1M53 6h1M61 6h1M69 6h1M82 6h1M85 6h1M92 6h1M115 6h1M15 7h1M23 7h1M28 7h1M31 7h1M37 7h1M42 7h1M61 7h1M69 7h1M82 7h1M86 7h1M106 7h2M16 8h1M37 8h1M42 8h1M62 8h1M72 8h1M81 8h1M86 8h1M16 9h1M41 9h1M62 9h1M73 9h1M108 9h1M16 10h1M62 10h1M73 10h1M108 10h1M14 11h2M60 11h2M73 11h1M109 11h1M31 12h1M36 12h1M52 12h1M79 12h1M84 12h1M110 12h1M114 12h1M119 12h1M30 13h1M52 13h1M83 13h1M110 13h1M120 13h1M8 14h1M35 14h1M40 14h1M52 14h1M82 14h1M103 14h1M8 15h1M39 15h1M52 15h1M61 15h1M82 15h1M103 15h1M8 16h1M38 16h1M52 16h1M61 16h1M72 16h1M103 16h1M8 17h1M17 17h1M38 17h1M62 17h1M73 17h1M103 17h1M8 18h1M17 18h1M28 18h1M62 18h1M73 18h1M102 18h2M108 18h2M18 19h1M29 19h1M111 19h1" />
<path stroke="#151619" d="M92 4h1M13 5h1M27 5h1M31 5h1M37 5h1M59 5h1M86 5h1M106 5h1M113 5h1M13 6h2M22 6h1M31 6h1M37 6h1M59 6h2M68 6h1M81 6h1M86 6h1M91 6h1M113 6h2M20 7h3M27 7h1M30 7h1M38 7h1M41 7h1M66 7h3M81 7h1M87 7h1M105 7h1M15 8h1M38 8h1M61 8h1M71 8h1M87 8h1M105 8h1M40 9h1M72 9h1M106 9h1M15 10h1M61 10h1M107 10h1M72 11h1M75 11h1M107 11h2M18 12h1M30 12h1M35 12h1M51 12h1M83 12h1M109 12h1M118 12h1M29 13h1M51 13h1M82 13h1M119 13h1M7 14h1M39 14h1M51 14h1M78 14h1M81 14h1M104 14h1M120 14h1M7 15h1M38 15h1M51 15h1M60 15h1M71 15h1M78 15h1M102 15h1M7 16h1M34 16h1M37 16h1M51 16h1M60 16h1M71 16h1M78 16h1M102 16h1M7 17h1M16 17h1M27 17h1M34 17h1M51 17h1M61 17h1M72 17h1M102 17h1M108 17h2M117 17h1M7 18h1M16 18h1M34 18h1M61 18h1M72 18h1M101 18h1M110 18h1M7 19h1M17 19h1M28 19h1M84 19h1M110 19h1M117 19h1" />
<path stroke="#545454" d="M97 4h1" />
<path stroke="#1d1d1d" d="M62 6h1" />
<path stroke="#292929" d="M54 7h1" />
<path stroke="#373737" d="M97 10h1" />
<path stroke="#111111" d="M101 10h1" />
<path stroke="#212121" d="M10 12h1" />
<path stroke="#272727" d="M12 12h1M85 18h1" />
<path stroke="#131313" d="M23 12h1" />
<path stroke="#202122" d="M18 13h1" />
<path stroke="#191a1d" d="M22 13h1" />
<path stroke="#454545" d="M17 14h1M53 14h1" />
<path stroke="#2c2c2c" d="M62 14h1" />
<path stroke="#282828" d="M58 16h1" />
<path stroke="#2e2e2e" d="M9 18h1" />
<path stroke="#161616" d="M115 19h1" />
</svg>