<svg xmlns="http://www.w3.org/2000/svg" viewBox="0 -0.5 10 14" shape-rendering="crispEdges">
<metadata>Made with Pixels to Svg https://codepen.io/shshaw/pen/XbxvNj</metadata>
<path stroke="#000000" d="M0 0h10M0 1h1M9 1h1M0 2h1M9 2h1M0 3h1M9 3h1M0 4h1M9 4h1M0 5h1M9 5h1M0 6h1M9 6h1M0 7h1M9 7h1M0 8h1M9 8h1M0 9h1M9 9h1M0 10h1M9 10h1M0 11h1M9 11h1M0 12h1M9 12h1M0 13h10" />
<path stroke="#404040" d="M1 1h1M4 1h1M8 1h1M2 2h4M7 2h1M2 3h6M1 4h7M2 5h1M5 5h3M2 6h1M5 6h3M2 7h2M5 7h3M2 8h3M6 8h2M3 9h2M2 10h2M5 10h1M2 11h3M6 11h3M8 12h1" />
<path stroke="#84806a" d="M2 1h2M5 1h3M1 2h1M1 3h1M1 5h1M4 5h1M1 6h1M4 6h1M1 7h1M1 8h1M1 9h1M5 9h1M1 10h1M6 10h2M1 11h1" />
<path stroke="#3e3e3e" d="M6 2h1" />
<path stroke="#2c2f35" d="M8 2h1M8 3h1M8 4h1M3 5h1M8 5h1M3 6h1M8 6h1M4 7h1M8 7h1M5 8h1M8 8h1M6 9h3M8 10h1M2 12h6" />
<path stroke="#6a6a6a" d="M2 9h1" />
<path stroke="#4b4b4b" d="M4 10h1" />
<path stroke="#515151" d="M5 11h1" />
<path stroke="#474747" d="M1 12h1" />
</svg>