<svg xmlns="http://www.w3.org/2000/svg" viewBox="0 -0.5 10 10" shape-rendering="crispEdges">
<metadata>Made with Pixels to Svg https://codepen.io/shshaw/pen/XbxvNj</metadata>
<path stroke="#000000" d="M0 0h10M0 1h1M9 1h1M0 2h1M9 2h1M0 3h1M9 3h1M0 4h1M9 4h1M0 5h1M9 5h1M0 6h1M9 6h1M0 7h1M9 7h1M0 8h1M9 8h1M0 9h10" />
<path stroke="#404040" d="M1 1h1M8 1h1M2 2h6M2 3h2M6 3h2M2 4h2M6 4h2M2 5h1M5 5h3M2 6h6M2 7h4M7 7h1M8 8h1" />
<path stroke="#84806a" d="M2 1h6M1 2h1M1 3h1M5 3h1M1 4h1M5 4h1M1 5h1M4 5h1M1 6h1M1 7h1M6 7h1" />
<path stroke="#2c2f35" d="M8 2h1M4 3h1M8 3h1M4 4h1M8 4h1M3 5h1M8 5h1M8 6h1M8 7h1M2 8h6" />
<path stroke="#474747" d="M1 8h1" />
</svg>