<svg xmlns="http://www.w3.org/2000/svg" viewBox="0 -0.5 224 38" shape-rendering="crispEdges"><path stroke="#000" d="M0 0h8m208 0h8M0 1h8m208 0h8M0 2h2m4 0h132m4 0h24m2 0h50m4 0h2M0 3h2m4 0h132m4 0h24m2 0h50m4 0h2M0 4h2m136 0h4m24 0h2m54 0h2M0 5h2m136 0h4m24 0h2m54 0h2M0 6h4m216 0h4M0 7h4m216 0h4M2 8h2m216 0h2M2 9h2m216 0h2M2 10h2m216 0h2M2 11h2m216 0h2M2 12h2m216 0h2M2 13h2m216 0h2M2 14h2m216 0h2M2 15h2m216 0h2M2 16h2m216 0h2M2 17h2m216 0h2M2 18h2m216 0h2M2 19h2m216 0h2M2 20h2m216 0h2M2 21h2m216 0h2M2 22h2m216 0h2M2 23h2m216 0h2M2 24h2m216 0h2M2 25h2m216 0h2M2 26h2m216 0h2M2 27h2m216 0h2M2 28h2m216 0h2M2 29h2m216 0h2M0 30h4m216 0h4M0 31h4m216 0h4M0 32h2m52 0h2m40 0h4m26 0h14m24 0h6m8 0h10m34 0h2M0 33h2m52 0h2m40 0h4m26 0h14m24 0h6m8 0h10m34 0h2M0 34h2m4 0h48m2 0h40m4 0h26m14 0h24m6 0h8m10 0h30m4 0h2M0 35h2m4 0h48m2 0h40m4 0h26m14 0h24m6 0h8m10 0h30m4 0h2M0 36h8m208 0h8M0 37h8m208 0h8"/><path stroke="#89825b" d="M2 2h4m212 0h2M2 3h4m212 0h2M8 4h34m2 0h28m2 0h36m2 0h10m2 0h14m4 0h2m2 0h8m2 0h10m2 0h10m2 0h2m2 0h4m2 0h10m2 0h16M8 5h34m2 0h28m2 0h36m2 0h10m2 0h14m4 0h2m2 0h8m2 0h10m2 0h10m2 0h2m2 0h4m2 0h10m2 0h16M4 6h2m22 0h2m74 0h2m42 0h2m16 0h2m16 0h2M4 7h2m22 0h2m74 0h2m42 0h2m16 0h2m16 0h2M4 8h2m24 0h2m68 0h4m40 0h4m2 0h2m14 0h2m16 0h2M4 9h2m24 0h2m68 0h4m40 0h4m2 0h2m14 0h2m16 0h2M28 10h4m4 0h2m48 0h2m10 0h2m50 0h2m14 0h2m16 0h2M28 11h4m4 0h2m48 0h2m10 0h2m50 0h2m14 0h2m16 0h2M4 12h2m4 0h2m14 0h2m2 0h2m4 0h2m48 0h2m8 0h2m24 0h2m40 0h2m20 0h2m26 0h2M4 13h2m4 0h2m14 0h2m2 0h2m4 0h2m48 0h2m8 0h2m24 0h2m40 0h2m20 0h2m26 0h2M4 14h2m6 0h2m82 0h2m24 0h2m62 0h2m24 0h2M4 15h2m6 0h2m82 0h2m24 0h2m62 0h2m24 0h2M4 16h2m6 0h2m74 0h2m6 0h2m112 0h2M4 17h2m6 0h2m74 0h2m6 0h2m112 0h2M4 18h2m8 0h2m90 0h2m58 0h2m44 0h2M4 19h2m8 0h2m90 0h2m58 0h2m44 0h2M4 20h2m8 0h2m88 0h2m42 0h2m22 0h4m36 0h2M4 21h2m8 0h2m88 0h2m42 0h2m22 0h4m36 0h2M4 22h2m6 0h2m88 0h2m48 0h2m12 0h2m4 0h2m2 0h2m34 0h2m4 0h2M4 23h2m6 0h2m88 0h2m48 0h2m12 0h2m4 0h2m2 0h2m34 0h2m4 0h2M4 24h2m34 0h2m14 0h2m42 0h2m52 0h2m14 0h2m20 0h2M4 25h2m34 0h2m14 0h2m42 0h2m52 0h2m14 0h2m20 0h2M4 26h2m34 0h2m58 0h2m52 0h2m14 0h2m22 0h2M4 27h2m34 0h2m58 0h2m52 0h2m14 0h2m22 0h2M4 28h2m50 0h2m42 0h2m52 0h2m14 0h2m22 0h2M4 29h2m50 0h2m42 0h2m52 0h2m14 0h2m22 0h2M4 30h2m34 0h2m14 0h2m96 0h2m14 0h2m24 0h2M4 31h2m34 0h2m14 0h2m96 0h2m14 0h2m24 0h2M2 32h2m36 0h2m14 0h2m138 0h2M2 33h2m36 0h2m14 0h2m138 0h2M2 34h2m-2 1h2"/><path stroke="#2b323c" d="M220 2h2m-2 1h2M2 4h2M2 5h2m194 27h2m-2 1h2"/><path stroke="#404040" d="M4 4h2m212 0h2M4 5h2m212 0h2M6 6h10m2 0h8m4 0h50m2 0h20m6 0h32m10 0h14m4 0h14m6 0h20m2 0h8M6 7h10m2 0h8m4 0h50m2 0h20m6 0h32m10 0h14m4 0h14m6 0h20m2 0h8M6 8h20m6 0h2m2 0h10m2 0h16m4 0h14m4 0h12m6 0h38m10 0h12m4 0h14m4 0h28m2 0h2M6 9h20m6 0h2m2 0h10m2 0h16m4 0h14m4 0h12m6 0h38m10 0h12m4 0h14m4 0h28m2 0h2M6 10h12m2 0h6m6 0h4m2 0h32m2 0h12m4 0h8m4 0h50m2 0h6m2 0h4m4 0h14m4 0h10m2 0h20M6 11h12m2 0h6m6 0h4m2 0h32m2 0h12m4 0h8m4 0h50m2 0h6m2 0h4m4 0h14m4 0h10m2 0h20M6 12h2m4 0h12m8 0h4m2 0h8m2 0h16m2 0h10m2 0h6m4 0h4m6 0h22m4 0h26m2 0h10m4 0h16m6 0h22m6 0h2M6 13h2m4 0h12m8 0h4m2 0h8m2 0h16m2 0h10m2 0h6m4 0h4m6 0h22m4 0h26m2 0h10m4 0h16m6 0h22m6 0h2M6 14h4m4 0h8m2 0h10m4 0h46m6 0h2m6 0h22m4 0h62m2 0h22m4 0h4M6 15h4m4 0h8m2 0h10m4 0h46m6 0h2m6 0h22m4 0h62m2 0h22m4 0h4M6 16h4m4 0h2m2 0h18m2 0h44m2 0h2m4 0h4m4 0h22m4 0h6m2 0h20m2 0h16m2 0h22m2 0h12m4 0h4M6 17h4m4 0h2m2 0h18m2 0h44m2 0h2m4 0h4m4 0h22m4 0h6m2 0h20m2 0h16m2 0h22m2 0h12m4 0h4M8 18h4m4 0h28m2 0h10m2 0h26m2 0h16m6 0h2m2 0h36m2 0h14m4 0h4m4 0h12m2 0h20m6 0h2M8 19h4m4 0h28m2 0h10m2 0h26m2 0h16m6 0h2m2 0h36m2 0h14m4 0h4m4 0h12m2 0h20m6 0h2M6 20h6m4 0h40m2 0h6m2 0h12m2 0h22m4 0h30m2 0h10m4 0h6m4 0h2m4 0h2m8 0h32m4 0h2M6 21h6m4 0h40m2 0h6m2 0h12m2 0h22m4 0h30m2 0h10m4 0h6m4 0h2m4 0h2m8 0h32m4 0h2M6 22h4m4 0h42m2 0h16m2 0h24m6 0h2m2 0h2m2 0h22m2 0h12m4 0h6m2 0h2m4 0h2m4 0h2m2 0h32m4 0h4M6 23h4m4 0h42m2 0h16m2 0h24m6 0h2m2 0h2m2 0h22m2 0h12m4 0h6m2 0h2m4 0h2m4 0h2m2 0h32m4 0h4M8 24h22m4 0h4m4 0h12m4 0h36m2 0h2m4 0h40m2 0h6m6 0h12m4 0h10m2 0h6m4 0h24M8 25h22m4 0h4m4 0h12m4 0h36m2 0h2m4 0h40m2 0h6m6 0h12m4 0h10m2 0h6m4 0h24M8 26h2m2 0h2m2 0h22m4 0h12m4 0h40m4 0h26m2 0h16m2 0h4m4 0h12m4 0h4m2 0h14m4 0h22M8 27h2m2 0h2m2 0h22m4 0h12m4 0h40m4 0h26m2 0h16m2 0h4m4 0h12m4 0h4m2 0h14m4 0h22M8 28h4m4 0h22m2 0h14m4 0h12m2 0h6m2 0h18m4 0h50m4 0h12m4 0h4m2 0h14m4 0h22M8 29h4m4 0h22m2 0h14m4 0h12m2 0h6m2 0h18m4 0h50m4 0h12m4 0h4m2 0h14m4 0h22M6 30h32m4 0h12m4 0h8m4 0h26m4 0h24m16 0h8m2 0h4m2 0h8m8 0h2m2 0h2m10 0h6m4 0h20M6 31h32m4 0h12m4 0h8m4 0h26m4 0h24m16 0h8m2 0h4m2 0h8m8 0h2m2 0h2m10 0h6m4 0h20m0 1h2m-2 1h2"/><path stroke="#7f7857" d="M6 4h2M6 5h2"/><path stroke="#2f3440" d="M42 4h2m-2 1h2"/><path stroke="#1c1e28" d="M72 4h2m-2 1h2"/><path stroke="#2f333d" d="M110 4h2m-2 1h2"/><path stroke="#242d34" d="M122 4h2m-2 1h2"/><path stroke="#2b303b" d="M144 4h2m36 0h2m36 0h2m-78 1h2m36 0h2m36 0h2M26 6h2m74 0h2m36 0h4m20 0h2m16 0h2m34 0h2M26 7h2m74 0h2m36 0h4m20 0h2m16 0h2m34 0h2M28 8h2m52 0h4m12 0h2m48 0h2m14 0h2m52 0h2M28 9h2m52 0h4m12 0h2m48 0h2m14 0h2m52 0h2M26 10h2m56 0h2m10 0h2m66 0h2m16 0h2m34 0h2M26 11h2m56 0h2m10 0h2m66 0h2m16 0h2m34 0h2M8 12h2m14 0h2m2 0h2m54 0h2m8 0h2m24 0h2m28 0h2m10 0h2m18 0h4m24 0h4m4 0h2M8 13h2m14 0h2m2 0h2m54 0h2m8 0h2m24 0h2m28 0h2m10 0h2m18 0h4m24 0h4m4 0h2M10 14h2m24 0h2m46 0h4m32 0h2m88 0h2m6 0h2M10 15h2m24 0h2m46 0h4m32 0h2m88 0h2m6 0h2M10 16h2m24 0h2m48 0h2m6 0h2m112 0h2m8 0h2M10 17h2m24 0h2m48 0h2m6 0h2m112 0h2m8 0h2M12 18h2m42 0h2m46 0h2m42 0h2m14 0h2m8 0h2m42 0h2M12 19h2m42 0h2m46 0h2m42 0h2m14 0h2m8 0h2m42 0h2M12 20h2m88 0h2m46 0h2m12 0h2m4 0h2m4 0h2m32 0h2m4 0h4M12 21h2m88 0h2m46 0h2m12 0h2m4 0h2m4 0h2m32 0h2m4 0h4M10 22h2m88 0h2m48 0h2m12 0h2m4 0h2m38 0h2M10 23h2m88 0h2m48 0h2m12 0h2m4 0h2m38 0h2M38 24h2m14 0h2m42 0h2m50 0h4m14 0h2m20 0h2M38 25h2m14 0h2m42 0h2m50 0h4m14 0h2m20 0h2M54 26h2m42 0h2m52 0h2m14 0h2m22 0h2m24 0h2M54 27h2m42 0h2m52 0h2m14 0h2m22 0h2m24 0h2M54 28h2m42 0h2m52 0h2m14 0h2m22 0h2m24 0h2M54 29h2m42 0h2m52 0h2m14 0h2m22 0h2m24 0h2M38 30h2m14 0h2m40 0h4m26 0h14m24 0h6m8 0h10m6 0h2m22 0h2M38 31h2m14 0h2m40 0h4m26 0h14m24 0h6m8 0h10m6 0h2m22 0h2M6 32h34m2 0h12m4 0h2m2 0h34m6 0h24m16 0h20m8 0h8m10 0h8m4 0h18M6 33h34m2 0h12m4 0h2m2 0h34m6 0h24m16 0h20m8 0h8m10 0h8m4 0h18M4 34h2m212 0h4M4 35h2m212 0h4"/><path stroke="#958e6b" d="M154 4h2m-2 1h2"/><path stroke="#262d3b" d="M178 4h2m-2 1h2m-80 27h2m-2 1h2"/><path stroke="#7f7851" d="M188 4h2m-2 1h2"/><path stroke="#7c754e" d="M200 4h2m-2 1h2"/><path stroke="#4a4a4a" d="M16 6h2m-2 1h2"/><path stroke="#212533" d="M80 6h2m-2 1h2"/><path stroke="#242935" d="M106 6h2m-2 1h2"/><path stroke="#42454e" d="M144 6h2m-2 1h2m-64 9h2m-2 1h2"/><path stroke="#948d6c" d="M146 6h2m-2 1h2"/><path stroke="#585656" d="M186 6h2m-2 1h2M46 8h2m18 0h2M46 9h2m18 0h2m10 11h2m-2 1h2m68 9h2m24 0h2m-28 1h2m24 0h2"/><path stroke="#434343" d="M208 6h2m-2 1h2"/><path stroke="#464646" d="M26 8h2m-2 1h2m6 5h2m-2 1h2"/><path stroke="#313131" d="M34 8h2m-2 1h2"/><path stroke="#464651" d="M64 8h2m-2 1h2"/><path stroke="#3c414a" d="M142 8h2m-2 1h2"/><path stroke="#2d313f" d="M182 8h2m-2 1h2"/><path stroke="#353535" d="M214 8h2m-2 1h2"/><path stroke="#40474f" d="M4 10h2m-2 1h2"/><path stroke="#373737" d="M18 10h2m-2 1h2"/><path stroke="#585755" d="M70 10h2m-2 1h2m58 5h2m-2 1h2"/><path stroke="#595957" d="M158 10h2m-2 1h2m-84 1h2m-2 1h2"/><path stroke="#2c2c2c" d="M196 10h2m-2 1h2"/><path stroke="#575755" d="M46 12h2m-2 1h2m36 5h2m-2 1h2m26 3h2m-2 1h2"/><path stroke="#242a38" d="M64 12h2m-2 1h2"/><path stroke="#353743" d="M92 12h2m-2 1h2"/><path stroke="#2d2d2d" d="M22 14h2m-2 1h2"/><path stroke="#918c69" d="M88 14h2m-2 1h2"/><path stroke="#565454" d="M92 14h2m-2 1h2m122 1h2m-2 1h2m-82 3h2m-2 1h2m-30 1h2m-2 1h2m18 3h2m-2 1h2"/><path stroke="#44474e" d="M94 14h2m-2 1h2"/><path stroke="#2b2b2b" d="M16 16h2m-2 1h2"/><path stroke="#2a353c" d="M120 16h2m-2 1h2"/><path stroke="#201e2a" d="M122 16h2m-2 1h2"/><path stroke="#171a23" d="M152 16h2m-2 1h2"/><path stroke="#292b37" d="M170 16h2m-2 1h2"/><path stroke="#2f2f2f" d="M194 16h2m-2 1h2"/><path stroke="#373a41" d="M6 18h2m-2 1h2"/><path stroke="#555553" d="M44 18h2m-2 1h2m114 3h2m-2 1h2"/><path stroke="#5a5a58" d="M102 18h2m-2 1h2"/><path stroke="#313641" d="M110 18h2m-2 1h2"/><path stroke="#42454c" d="M172 18h2m-2 1h2m44 5h2m-2 1h2"/><path stroke="#393939" d="M188 18h2m-2 1h2"/><path stroke="#4e4e4e" d="M210 18h2m-2 1h2"/><path stroke="#3b3b3b" d="M214 18h2m-2 1h2"/><path stroke="#474a51" d="M56 20h2m-2 1h2"/><path stroke="#323743" d="M64 20h2m-2 1h2"/><path stroke="#343944" d="M158 20h2m-2 1h2"/><path stroke="#2c303a" d="M160 20h2m-2 1h2"/><path stroke="#3a3c46" d="M166 20h2m-2 1h2"/><path stroke="#2b3039" d="M56 22h2m-2 1h2"/><path stroke="#3f4b52" d="M74 22h2m-2 1h2m2 5h2m-2 1h2"/><path stroke="#5e6168" d="M104 22h2m-2 1h2"/><path stroke="#1b202c" d="M136 22h2m-2 1h2"/><path stroke="#5a5a5a" d="M6 24h2m-2 1h2"/><path stroke="#6d6d6d" d="M30 24h2m-2 1h2"/><path stroke="#444" d="M32 24h2m-2 1h2"/><path stroke="#19202a" d="M94 24h2m-2 1h2"/><path stroke="#1d2530" d="M142 24h2m-2 1h2"/><path stroke="#404751" d="M182 24h2m-2 1h2"/><path stroke="#424242" d="M6 26h2m2 0h2m-6 1h2m2 0h2m-6 1h2m-2 1h2"/><path stroke="#222" d="M14 26h2m-2 1h2m-2 1h2m-2 1h2"/><path stroke="#2e313a" d="M38 26h2m-2 1h2m-2 1h2m-2 1h2"/><path stroke="#21282f" d="M56 26h2m-2 1h2"/><path stroke="#24242f" d="M146 26h2m-2 1h2"/><path stroke="#3a4346" d="M176 26h2m-2 1h2m-2 1h2m-2 1h2"/><path stroke="#616161" d="M12 28h2m-2 1h2"/><path stroke="#525252" d="M70 28h2m-2 1h2"/><path stroke="#212830" d="M66 30h2m-2 1h2"/><path stroke="#3e434c" d="M68 30h2m-2 1h2"/><path stroke="#242932" d="M124 30h2m-2 1h2"/><path stroke="#43484f" d="M4 32h2m54 0h2m158 0h2M4 33h2m54 0h2m158 0h2"/><path stroke="#464b52" d="M140 32h2m-2 1h2"/><path stroke="#1e222e" d="M162 32h2m-2 1h2"/></svg>