<svg xmlns="http://www.w3.org/2000/svg" viewBox="0 -0.5 224 38" shape-rendering="crispEdges"><path stroke="#000" d="M0 0h8m208 0h8M0 1h8m208 0h8M0 2h2m4 0h132m4 0h24m2 0h50m4 0h2M0 3h2m4 0h132m4 0h24m2 0h50m4 0h2M0 4h2m136 0h4m24 0h2m54 0h2M0 5h2m136 0h4m24 0h2m54 0h2M0 6h4m216 0h4M0 7h4m216 0h4M2 8h2m216 0h2M2 9h2m216 0h2M2 10h2m216 0h2M2 11h2m216 0h2M2 12h2m216 0h2M2 13h2m216 0h2M2 14h2m216 0h2M2 15h2m216 0h2M2 16h2m216 0h2M2 17h2m216 0h2M2 18h2m216 0h2M2 19h2m216 0h2M2 20h2m216 0h2M2 21h2m216 0h2M2 22h2m216 0h2M2 23h2m216 0h2M2 24h2m216 0h2M2 25h2m216 0h2M2 26h2m216 0h2M2 27h2m216 0h2M2 28h2m216 0h2M2 29h2m216 0h2M2 30h2m216 0h2M2 31h2m216 0h2m-2 1h2m-2 1h2"/><path stroke="#89825b" d="M2 2h4m212 0h2M2 3h4m212 0h2M8 4h34m2 0h28m2 0h36m2 0h10m2 0h14m4 0h2m2 0h8m2 0h10m2 0h10m2 0h2m2 0h4m2 0h10m2 0h16M8 5h34m2 0h28m2 0h36m2 0h10m2 0h14m4 0h2m2 0h8m2 0h10m2 0h10m2 0h2m2 0h4m2 0h10m2 0h16M4 6h2m22 0h2m74 0h2m42 0h2m16 0h2m16 0h2M4 7h2m22 0h2m74 0h2m42 0h2m16 0h2m16 0h2M4 8h2m24 0h2m68 0h4m40 0h4m2 0h2m14 0h2m16 0h2M4 9h2m24 0h2m68 0h4m40 0h4m2 0h2m14 0h2m16 0h2M28 10h4m4 0h2m48 0h2m10 0h2m50 0h2m14 0h2m16 0h2M28 11h4m4 0h2m48 0h2m10 0h2m50 0h2m14 0h2m16 0h2M4 12h2m4 0h2m14 0h2m2 0h2m4 0h2m48 0h2m8 0h2m24 0h2m40 0h2m20 0h2m26 0h2M4 13h2m4 0h2m14 0h2m2 0h2m4 0h2m48 0h2m8 0h2m24 0h2m40 0h2m20 0h2m26 0h2M4 14h2m6 0h2m82 0h2m24 0h2m62 0h2m24 0h2M4 15h2m6 0h2m82 0h2m24 0h2m62 0h2m24 0h2M4 16h2m6 0h2m74 0h2m6 0h2m112 0h2M4 17h2m6 0h2m74 0h2m6 0h2m112 0h2M4 18h2m6 0h2m74 0h2m118 0h2M4 19h2m6 0h2m74 0h2m118 0h2M4 20h2m8 0h2m90 0h2m58 0h2m44 0h2M4 21h2m8 0h2m90 0h2m58 0h2m44 0h2M4 22h2m8 0h2m88 0h2m42 0h2m22 0h4m36 0h2M4 23h2m8 0h2m88 0h2m42 0h2m22 0h4m36 0h2M4 24h2m6 0h2m88 0h2m48 0h2m12 0h2m4 0h2m2 0h2m34 0h2M4 25h2m6 0h2m88 0h2m48 0h2m12 0h2m4 0h2m2 0h2m34 0h2M4 26h2m34 0h2m14 0h2m42 0h2m52 0h2m14 0h2m20 0h2M4 27h2m34 0h2m14 0h2m42 0h2m52 0h2m14 0h2m20 0h2M40 28h2m58 0h2m68 0h2m22 0h2M40 29h2m58 0h2m68 0h2m22 0h2M32 30h2m10 0h2m54 0h2m-70 1h2m10 0h2m54 0h2"/><path stroke="#2b323c" d="M220 2h2m-2 1h2M2 4h2M2 5h2"/><path stroke="#404040" d="M4 4h2m212 0h2M4 5h2m212 0h2M6 6h10m2 0h8m4 0h50m2 0h20m6 0h32m10 0h14m4 0h14m6 0h20m2 0h8M6 7h10m2 0h8m4 0h50m2 0h20m6 0h32m10 0h14m4 0h14m6 0h20m2 0h8M6 8h20m6 0h2m2 0h10m2 0h16m4 0h14m4 0h12m6 0h38m10 0h12m4 0h14m4 0h28m2 0h2M6 9h20m6 0h2m2 0h10m2 0h16m4 0h14m4 0h12m6 0h38m10 0h12m4 0h14m4 0h28m2 0h2M6 10h12m2 0h6m6 0h4m2 0h32m2 0h12m4 0h8m4 0h50m2 0h6m2 0h4m4 0h14m4 0h10m2 0h20M6 11h12m2 0h6m6 0h4m2 0h32m2 0h12m4 0h8m4 0h50m2 0h6m2 0h4m4 0h14m4 0h10m2 0h20M6 12h2m4 0h12m8 0h4m2 0h8m2 0h16m2 0h10m2 0h6m4 0h4m6 0h22m4 0h26m2 0h10m4 0h16m6 0h22m6 0h2M6 13h2m4 0h12m8 0h4m2 0h8m2 0h16m2 0h10m2 0h6m4 0h4m6 0h22m4 0h26m2 0h10m4 0h16m6 0h22m6 0h2M6 14h4m4 0h8m2 0h10m4 0h46m6 0h2m6 0h22m4 0h62m2 0h22m4 0h4M6 15h4m4 0h8m2 0h10m4 0h46m6 0h2m6 0h22m4 0h62m2 0h22m4 0h4M6 16h4m4 0h68m2 0h2m4 0h4m4 0h22m2 0h8m2 0h20m2 0h16m2 0h36m4 0h4M6 17h4m4 0h68m2 0h2m4 0h4m4 0h22m2 0h8m2 0h20m2 0h16m2 0h36m4 0h4M6 18h4m4 0h2m2 0h18m2 0h44m2 0h2m4 0h4m2 0h24m4 0h6m2 0h38m2 0h22m2 0h10m4 0h6M6 19h4m4 0h2m2 0h18m2 0h44m2 0h2m4 0h4m2 0h24m4 0h6m2 0h38m2 0h22m2 0h10m4 0h6M8 20h4m4 0h28m2 0h10m2 0h26m2 0h16m6 0h2m2 0h36m2 0h14m4 0h4m4 0h12m2 0h20m6 0h2M8 21h4m4 0h28m2 0h10m2 0h26m2 0h16m6 0h2m2 0h36m2 0h14m4 0h4m4 0h12m2 0h20m6 0h2M6 22h6m4 0h40m2 0h6m2 0h12m2 0h22m4 0h30m2 0h10m4 0h6m4 0h2m4 0h2m8 0h32m4 0h2M6 23h6m4 0h40m2 0h6m2 0h12m2 0h22m4 0h30m2 0h10m4 0h6m4 0h2m4 0h2m8 0h32m4 0h2M6 24h4m4 0h42m2 0h16m2 0h24m6 0h2m2 0h2m2 0h22m2 0h12m4 0h6m2 0h2m4 0h2m4 0h2m2 0h32m4 0h4M6 25h4m4 0h42m2 0h16m2 0h24m6 0h2m2 0h2m2 0h22m2 0h12m4 0h6m2 0h2m4 0h2m4 0h2m2 0h32m4 0h4M26 26h4m4 0h4m4 0h12m4 0h4m6 0h26m2 0h2m4 0h40m2 0h6m6 0h12m4 0h10m2 0h6m4 0h22M26 27h4m4 0h4m4 0h12m4 0h4m6 0h26m2 0h2m4 0h40m2 0h6m6 0h12m4 0h10m2 0h6m4 0h22M30 28h2m10 0h2m2 0h8m4 0h2m14 0h4m24 0h2m26 0h2m8 0h6m26 0h4M30 29h2m10 0h2m2 0h8m4 0h2m14 0h4m24 0h2m26 0h2m8 0h6m26 0h4"/><path stroke="#7f7857" d="M6 4h2M6 5h2"/><path stroke="#2f3440" d="M42 4h2m-2 1h2"/><path stroke="#1c1e28" d="M72 4h2m-2 1h2"/><path stroke="#2f333d" d="M110 4h2m-2 1h2"/><path stroke="#242d34" d="M122 4h2m-2 1h2"/><path stroke="#2b303b" d="M144 4h2m36 0h2m36 0h2m-78 1h2m36 0h2m36 0h2M26 6h2m74 0h2m36 0h4m20 0h2m16 0h2m34 0h2M26 7h2m74 0h2m36 0h4m20 0h2m16 0h2m34 0h2M28 8h2m52 0h4m12 0h2m48 0h2m14 0h2m52 0h2M28 9h2m52 0h4m12 0h2m48 0h2m14 0h2m52 0h2M26 10h2m56 0h2m10 0h2m66 0h2m16 0h2m34 0h2M26 11h2m56 0h2m10 0h2m66 0h2m16 0h2m34 0h2M8 12h2m14 0h2m2 0h2m54 0h2m8 0h2m24 0h2m28 0h2m10 0h2m18 0h4m24 0h4m4 0h2M8 13h2m14 0h2m2 0h2m54 0h2m8 0h2m24 0h2m28 0h2m10 0h2m18 0h4m24 0h4m4 0h2M10 14h2m24 0h2m46 0h4m32 0h2m88 0h2m6 0h2M10 15h2m24 0h2m46 0h4m32 0h2m88 0h2m6 0h2M10 16h2m74 0h2m6 0h2m112 0h2m8 0h2M10 17h2m74 0h2m6 0h2m112 0h2m8 0h2M10 18h2m24 0h2m48 0h2m6 0h2m110 0h2m10 0h2M10 19h2m24 0h2m48 0h2m6 0h2m110 0h2m10 0h2M12 20h2m42 0h2m46 0h2m42 0h2m14 0h2m8 0h2m42 0h2M12 21h2m42 0h2m46 0h2m42 0h2m14 0h2m8 0h2m42 0h2M12 22h2m88 0h2m46 0h2m12 0h2m4 0h2m4 0h2m32 0h2m4 0h4M12 23h2m88 0h2m46 0h2m12 0h2m4 0h2m4 0h2m32 0h2m4 0h4M10 24h2m138 0h2m12 0h2m4 0h2m38 0h2m6 0h2M10 25h2m138 0h2m12 0h2m4 0h2m38 0h2m6 0h2M54 26h2m94 0h4m14 0h2m20 0h2m26 0h2M54 27h2m94 0h4m14 0h2m20 0h2m26 0h2M54 28h2m96 0h2m14 0h2m22 0h2M54 29h2m96 0h2m14 0h2m22 0h2"/><path stroke="#958e6b" d="M154 4h2m-2 1h2"/><path stroke="#262d3b" d="M178 4h2m-2 1h2"/><path stroke="#7f7851" d="M188 4h2m-2 1h2"/><path stroke="#7c754e" d="M200 4h2m-2 1h2"/><path stroke="#4a4a4a" d="M16 6h2m-2 1h2"/><path stroke="#212533" d="M80 6h2m-2 1h2"/><path stroke="#242935" d="M106 6h2m-2 1h2"/><path stroke="#42454e" d="M144 6h2m-2 1h2m-64 9h2m-2 1h2m-2 1h2m-2 1h2"/><path stroke="#948d6c" d="M146 6h2m-2 1h2"/><path stroke="#585656" d="M186 6h2m-2 1h2M46 8h2m18 0h2M46 9h2m18 0h2m10 13h2m-2 1h2m94 7h2m-2 1h2"/><path stroke="#434343" d="M208 6h2m-2 1h2"/><path stroke="#464646" d="M26 8h2m-2 1h2m6 5h2m-2 1h2"/><path stroke="#313131" d="M34 8h2m-2 1h2"/><path stroke="#464651" d="M64 8h2m-2 1h2"/><path stroke="#3c414a" d="M142 8h2m-2 1h2"/><path stroke="#2d313f" d="M182 8h2m-2 1h2"/><path stroke="#383838" d="M214 8h2m-2 1h2M68 28h2m68 0h2m-72 1h2m68 0h2"/><path stroke="#40474f" d="M4 10h2m-2 1h2"/><path stroke="#373737" d="M18 10h2m-2 1h2m166 21h2m-2 1h2"/><path stroke="#585755" d="M70 10h2m-2 1h2m58 5h2m-2 1h2m-2 1h2m-2 1h2"/><path stroke="#595957" d="M158 10h2m-2 1h2m-84 1h2m-2 1h2"/><path stroke="#2c2c2c" d="M196 10h2m-2 1h2"/><path stroke="#575755" d="M46 12h2m-2 1h2m36 7h2m-2 1h2m26 3h2m-2 1h2"/><path stroke="#242a38" d="M64 12h2m-2 1h2"/><path stroke="#353743" d="M92 12h2m-2 1h2"/><path stroke="#2d2d2d" d="M22 14h2m-2 1h2m46 13h2m-2 1h2m-56 1h2m-2 1h2"/><path stroke="#918c69" d="M88 14h2m-2 1h2"/><path stroke="#565454" d="M92 14h2m-2 1h2m122 1h2m-2 1h2m-2 1h2m-2 1h2m-82 3h2m-2 1h2m-30 1h2m-2 1h2m18 3h2m-2 1h2"/><path stroke="#44474e" d="M94 14h2m-2 1h2"/><path stroke="#2a353c" d="M120 16h2m-2 1h2m-2 1h2m-2 1h2"/><path stroke="#171a23" d="M152 16h2m-2 1h2"/><path stroke="#292b37" d="M170 16h2m-2 1h2m-2 1h2m-2 1h2"/><path stroke="#2b2b2b" d="M16 18h2m-2 1h2m150 11h2m-2 1h2M46 32h2m56 0h2m-60 1h2m56 0h2"/><path stroke="#201e2a" d="M122 18h2m-2 1h2"/><path stroke="#2f2f2f" d="M194 18h2m-2 1h2M78 30h2m-2 1h2"/><path stroke="#373a41" d="M6 20h2m-2 1h2"/><path stroke="#555553" d="M44 20h2m-2 1h2m114 3h2m-2 1h2"/><path stroke="#5a5a58" d="M102 20h2m-2 1h2"/><path stroke="#313641" d="M110 20h2m-2 1h2"/><path stroke="#42454c" d="M172 20h2m-2 1h2"/><path stroke="#393939" d="M188 20h2m-2 1h2"/><path stroke="#4e4e4e" d="M210 20h2m-2 1h2"/><path stroke="#3b3b3b" d="M214 20h2m-2 1h2"/><path stroke="#474a51" d="M56 22h2m-2 1h2"/><path stroke="#323743" d="M64 22h2m-2 1h2"/><path stroke="#343944" d="M158 22h2m-2 1h2"/><path stroke="#2c303a" d="M160 22h2m-2 1h2"/><path stroke="#3a3c46" d="M166 22h2m-2 1h2"/><path stroke="#2b3039" d="M56 24h2m-2 1h2"/><path stroke="#3f4b52" d="M74 24h2m-2 1h2"/><path stroke="#222" d="M100 24h2m-2 1h2m-64 1h2m58 0h2m-62 1h2m58 0h2M6 28h2m6 0h2m6 0h2m74 0h2m24 0h2M6 29h2m6 0h2m6 0h2m74 0h2m24 0h2M14 30h2m6 0h4m34 0h2m6 0h4m10 0h8m2 0h2m28 0h4m10 0h6m2 0h6m2 0h14m16 0h20M14 31h2m6 0h4m34 0h2m6 0h4m10 0h8m2 0h2m28 0h4m10 0h6m2 0h6m2 0h14m16 0h20M6 32h2m6 0h2m8 0h2m6 0h4m14 0h2m8 0h4m6 0h12m6 0h2m12 0h2m2 0h10m6 0h4m16 0h6m14 0h8m2 0h14m16 0h10m2 0h4M6 33h2m6 0h2m8 0h2m6 0h4m14 0h2m8 0h4m6 0h12m6 0h2m12 0h2m2 0h10m6 0h4m16 0h6m14 0h8m2 0h14m16 0h10m2 0h4M48 34h4m10 0h2m12 0h2m10 0h2m34 0h2m40 0h10m2 0h6M48 35h4m10 0h2m12 0h2m10 0h2m34 0h2m40 0h10m2 0h6M48 36h2m124 0h2M48 37h2m124 0h2"/><path stroke="#5e6168" d="M104 24h2m-2 1h2"/><path stroke="#1b202c" d="M136 24h2m-2 1h2"/><path stroke="#5a5a5a" d="M6 26h2m-2 1h2"/><path stroke="#333" d="M8 26h8m2 0h6m38 0h6m148 0h2M8 27h8m2 0h6m38 0h6m148 0h2M8 28h4m6 0h4m2 0h6m2 0h6m6 0h2m14 0h2m4 0h2m4 0h2m4 0h18m8 0h2m2 0h16m2 0h2m4 0h6m12 0h2m2 0h10m2 0h2m12 0h12m4 0h16m2 0h4M8 29h4m6 0h4m2 0h6m2 0h6m6 0h2m14 0h2m4 0h2m4 0h2m4 0h18m8 0h2m2 0h16m2 0h2m4 0h6m12 0h2m2 0h10m2 0h2m12 0h12m4 0h16m2 0h4M34 30h2m10 0h8m8 0h2m8 0h6m2 0h2m20 0h14m2 0h4m44 0h2m2 0h4m2 0h6m20 0h2m2 0h10M34 31h2m10 0h8m8 0h2m8 0h6m2 0h2m20 0h14m2 0h4m44 0h2m2 0h4m2 0h6m20 0h2m2 0h10"/><path stroke="#363636" d="M16 26h2m-2 1h2"/><path stroke="#303030" d="M24 26h2m-2 1h2"/><path stroke="#6d6d6d" d="M30 26h2m-2 1h2"/><path stroke="#444" d="M32 26h2m-2 1h2"/><path stroke="#19202a" d="M94 26h2m-2 1h2"/><path stroke="#1d2530" d="M142 26h2m-2 1h2"/><path stroke="#404751" d="M182 26h2m-2 1h2"/><path stroke="#514e3c" d="M4 28h2m-2 1h2m-2 1h2m-2 1h2m-2 1h2m-2 1h2m-2 1h2m-2 1h2"/><path stroke="#616161" d="M12 28h2m-2 1h2"/><path stroke="#323232" d="M16 28h2m130 0h2m14 0h2M16 29h2m130 0h2m14 0h2m44 5h2m-2 1h2"/><path stroke="#181818" d="M38 28h2m-2 1h2"/><path stroke="#21282f" d="M56 28h2m-2 1h2"/><path stroke="#3d3d3d" d="M62 28h2m-2 1h2"/><path stroke="#3e3e3e" d="M96 28h2m-2 1h2"/><path stroke="#252525" d="M106 28h2m-2 1h2"/><path stroke="#24242f" d="M146 28h2m-2 1h2"/><path stroke="#3a4346" d="M176 28h2m-2 1h2"/><path stroke="#282828" d="M178 28h2m-2 1h2M48 32h2m148 0h2M48 33h2m148 0h2"/><path stroke="#3c3c3c" d="M212 28h2m-2 1h2m-10 1h2m-2 1h2"/><path stroke="#151720" d="M218 28h2m-2 1h2m-2 1h2m-2 1h2m-2 1h2m-2 1h2m-2 1h2m-2 1h2"/><path stroke="#1f1f1f" d="M6 30h2m-2 1h2m192 1h2m-2 1h2"/><path stroke="#212121" d="M12 30h2m76 0h2m-80 1h2m76 0h2m78 1h2m-2 1h2"/><path stroke="#202020" d="M26 30h2m-2 1h2"/><path stroke="#242424" d="M116 30h2m-2 1h2"/><path stroke="#151515" d="M128 30h2m-2 1h2"/><path stroke="#272727" d="M142 30h2m-2 1h2"/><path stroke="#232323" d="M150 30h2m-2 1h2m-70 1h2m-2 1h2m-22 3h2m-2 1h2"/><path stroke="#262626" d="M216 30h2m-2 1h2"/><path stroke="#111" d="M100 32h2m-2 1h2"/><path stroke="#292929" d="M212 32h2m-2 1h2m-102 1h2m-2 1h2"/><path stroke="#343434" d="M34 34h2m-2 1h2"/><path stroke="#1e1e1e" d="M122 34h2m-2 1h2"/><path stroke="#1c1c1c" d="M176 34h2m-2 1h2"/></svg>