<svg xmlns="http://www.w3.org/2000/svg" viewBox="0 -0.5 26 26" shape-rendering="crispEdges"><path stroke="#000" d="M14 0h6m-6 1h6M6 2h8m6 0h2M6 3h8m6 0h2M2 4h4m12 0h4M2 5h4m12 0h4M2 6h2m2 0h4m10 0h2M2 7h2m2 0h4m10 0h2M2 8h2m2 0h2m6 0h4m2 0h2M2 9h2m2 0h2m6 0h4m2 0h2M2 10h2m6 0h2m4 0h2m2 0h2M2 11h2m6 0h2m4 0h2m2 0h2M2 12h2m6 0h4m6 0h2M2 13h2m6 0h4m6 0h2M2 14h2m16 0h2M2 15h2m16 0h2M2 16h2m16 0h2M2 17h2m16 0h2M2 18h2m16 0h2M2 19h2m16 0h2M2 20h2m2 0h2m6 0h8M2 21h2m2 0h2m6 0h8M4 22h10M4 23h10"/><path stroke="gray" d="M14 2h6m-6 1h6M6 4h8M6 5h8M4 6h2M4 7h2"/><path stroke="#16060c" d="M14 4h4m-4 1h4m-8 1h4m-4 1h4m-8 3h2m-2 1h2m-2 1h2m-2 1h2m-2 1h2m-2 1h2m-2 1h2m-2 1h2m-2 1h2m-2 1h2"/><path stroke="#cc5a18" d="M14 6h4m-4 1h4M8 8h4M8 9h4m-4 1h2m-2 1h2m-2 1h2m-2 1h2m-2 1h2m-2 1h2m-2 1h2m-2 1h2"/><path stroke="#a02500" d="M18 6h2m-2 1h2m-8 1h2m-2 1h2m-2 1h4m-4 1h4m-6 3h4m-4 1h4m-4 1h4m-4 1h4m-6 3h4m-4 1h4"/><path stroke="#666" d="M4 8h2M4 9h2m-2 1h2m-2 1h2m-2 1h2m-2 1h2m-2 1h2m-2 1h2m-2 1h2m-2 1h2m-2 1h2m-2 1h2m-2 1h2m-2 1h2"/><path stroke="#871b26" d="M18 8h2m-2 1h2m-2 1h2m-2 1h2m-6 1h4m-4 1h4m-4 1h4m-4 1h4m-4 3h2m-2 1h2m-4 1h2m-2 1h2"/><path stroke="#6d1d30" d="M18 12h2m-2 1h2m-2 1h2m-2 1h2m-4 3h4m-4 1h4"/><path stroke="#ccc100" d="M14 16h6m-6 1h6"/><path stroke="#fff200" d="M8 18h6m-6 1h6"/></svg>