<svg xmlns="http://www.w3.org/2000/svg" viewBox="0 -0.5 16 16" shape-rendering="crispEdges"><path stroke="#000" d="M2 0h12M1 1h1m12 0h1M0 2h1m14 0h1M0 3h1m3 0h2m4 0h2m3 0h1M0 4h1m2 0h1m2 0h1m2 0h1m2 0h1m2 0h1M0 5h1m2 0h1m3 0h2m3 0h1m2 0h1M0 6h1m3 0h1m6 0h1m3 0h1M0 7h1m4 0h1m4 0h1m4 0h1M0 8h1m4 0h1m4 0h1m4 0h1M0 9h1m3 0h1m6 0h1m3 0h1M0 10h1m2 0h1m3 0h2m3 0h1m2 0h1M0 11h1m2 0h1m2 0h1m2 0h1m2 0h1m2 0h1M0 12h1m3 0h2m4 0h2m3 0h1M0 13h1m14 0h1M1 14h1m12 0h1M2 15h12"/><path stroke="#39372e" d="M2 1h1"/><path stroke="#535143" d="M3 1h11M1 2h1m5 0h1M1 3h1m6 0h1M1 5h1M1 6h1M1 7h2m9 0h1M1 8h1m1 0h1m9 0h1M1 9h1m-1 1h1m-1 1h1m-1 1h1m6 0h1m-8 1h1m7 0h1"/><path stroke="#282828" d="M2 2h4m2 0h6M2 3h2m2 0h1m2 0h1m2 0h2M2 4h1m4 0h2m4 0h1M2 5h1m10 0h1M2 6h2m8 0h2M3 7h2m6 0h1m1 0h1M4 8h1m6 0h1M2 9h1m9 0h1M2 10h1m10 0h1M2 11h1m4 0h2m4 0h1M2 12h2m2 0h1m2 0h1m2 0h2M2 13h6m2 0h4"/><path stroke="#1c1e21" d="M6 2h1m7 0h1M7 3h1m6 0h1m-1 1h1m-1 1h1m-1 1h1m-1 1h1M2 8h1m9 0h1m1 0h1m-2 1h2m-1 1h1m-1 1h1m-8 1h1m6 0h1m-7 1h1m5 0h1M2 14h12"/><path stroke="#1e2023" d="M1 4h1"/><path stroke="#a02003" d="M4 4h2m4 0h1M4 5h1m1 0h1m2 0h1M5 6h1m1 0h2M6 7h1M6 8h1M5 9h1m-2 1h1"/><path stroke="#7f0000" d="M11 4h1M5 5h1m4 0h1M6 6h1m2 0h1M7 7h2M7 8h2M6 9h1m2 0h1m-5 1h1m4 0h1m-7 1h1"/><path stroke="#590718" d="M11 5h1m-2 1h1M9 7h1M9 8h1M7 9h2m1 0h1m-5 1h1m2 0h1m1 0h1m-7 1h1m4 0h2"/><path stroke="#252525" d="M3 9h1"/></svg>