<svg xmlns="http://www.w3.org/2000/svg" viewBox="0 -0.5 12 12" shape-rendering="crispEdges"><path stroke="#000" d="M0 2h2m3 0h2m3 0h2M0 3h1m1 0h3m2 0h3m1 0h1M0 4h1m2 0h1m4 0h1m2 0h1M0 5h1m10 0h1M0 6h1m10 0h1M0 7h1m10 0h1M0 8h1m10 0h1M0 9h1m10 0h1M0 10h12"/><path stroke="#e5cd47" d="M1 3h1m3 0h2m3 0h1M1 4h2m1 0h4m1 0h2M1 8h2m6 0h2"/><path stroke="#bca73c" d="M1 5h3m4 0h3M1 9h4m2 0h4"/><path stroke="#e8a127" d="M4 5h4M1 6h1m2 0h1m2 0h1m2 0h1M1 7h1m2 0h1m2 0h1m2 0h1M3 8h6M5 9h2"/><path stroke="#ffa154" d="M2 6h1m5 0h1"/><path stroke="#ff3200" d="M3 6h1m5 0h1M2 7h1m5 0h1"/><path stroke="#ffe7a8" d="M5 6h1"/><path stroke="#ff9321" d="M6 6h1"/><path stroke="#ce0000" d="M3 7h1m5 0h1"/><path stroke="#ff7200" d="M5 7h1"/><path stroke="#d64000" d="M6 7h1"/></svg>